M48
;DRILL file {KiCad 4.0.4-stable} date 06/14/17 14:20:28
;FORMAT={3:3/ absolute / metric / suppress leading zeros}
FMAT,2
METRIC,TZ
T1C0.300
T2C0.889
T3C3.000
%
G90
G05
M71
T1
X119380Y-105410
X119380Y-109220
X119380Y-113030
X119380Y-116840
X119380Y-120650
X119380Y-124460
X119380Y-128270
X125730Y-99060
X125730Y-134620
X125984Y-122707
X127025Y-120472
X127762Y-113030
X127810Y-120995
X128791Y-116040
X129540Y-99060
X129540Y-134620
X129731Y-129318
X130721Y-115729
X130747Y-126778
X130975Y-110998
X132005Y-119538
X132005Y-120688
X132005Y-121838
X132005Y-122988
X132334Y-111506
X132795Y-115332
X133155Y-119538
X133155Y-120688
X133155Y-121838
X133155Y-122988
X133350Y-99060
X133350Y-134620
X133540Y-113062
X133633Y-126374
X134130Y-116110
X134305Y-119538
X134305Y-120688
X134305Y-121838
X134305Y-122988
X135103Y-125451
X135455Y-119538
X135455Y-120688
X135455Y-121838
X135455Y-122988
X136512Y-129883
X137160Y-99060
X137160Y-134620
X137349Y-114550
X137605Y-119666
X137605Y-121190
X137605Y-122206
X138379Y-117399
X139129Y-123222
X140970Y-99060
X140970Y-134620
X144780Y-99060
X144780Y-134620
X148590Y-99060
X148590Y-134620
X154940Y-105410
X154940Y-109220
X154940Y-113030
X154940Y-116840
X154940Y-120650
X154940Y-124460
X154940Y-128270
T2
X121920Y-108458
X121920Y-110998
X121920Y-113538
X121920Y-116840
X121920Y-119380
X121920Y-121920
X121920Y-124460
X121920Y-127000
X124460Y-108458
X124460Y-110998
X124460Y-113538
X124460Y-116840
X124460Y-119380
X124460Y-121920
X124460Y-124460
X124460Y-127000
X128524Y-108966
X131064Y-108966
X133096Y-101092
X133096Y-103632
X135636Y-101092
X135636Y-103632
X138176Y-101092
X138176Y-103632
X151524Y-115570
X151524Y-118110
X151524Y-120650
T3
X121920Y-101600
X121920Y-132080
X152400Y-101600
X152400Y-132080
T0
M30
