G04 #@! TF.FileFunction,Soldermask,Bot*
%FSLAX46Y46*%
G04 Gerber Fmt 4.6, Leading zero omitted, Abs format (unit mm)*
G04 Created by KiCad (PCBNEW 4.0.4-stable) date 06/14/17 14:20:26*
%MOMM*%
%LPD*%
G01*
G04 APERTURE LIST*
%ADD10C,0.100000*%
%ADD11R,1.150000X1.200000*%
%ADD12R,1.200000X1.150000*%
%ADD13R,0.900000X1.300000*%
%ADD14R,1.300000X0.900000*%
%ADD15R,0.900000X0.700000*%
%ADD16R,0.700000X0.900000*%
%ADD17R,1.550000X1.550000*%
%ADD18R,1.150000X1.250000*%
%ADD19R,1.924000X1.924000*%
%ADD20C,6.400000*%
%ADD21R,1.400000X1.650000*%
G04 APERTURE END LIST*
D10*
D11*
X132270500Y-112819598D03*
X132270500Y-114319598D03*
X136334500Y-112795598D03*
X136334500Y-111295598D03*
D12*
X129210500Y-114585598D03*
X127710500Y-114585598D03*
D11*
X138899900Y-124840300D03*
X138899900Y-126340300D03*
X134721600Y-112795598D03*
X134721600Y-111295598D03*
D12*
X134822500Y-114585598D03*
X136322500Y-114585598D03*
D11*
X140652500Y-115511998D03*
X140652500Y-117011998D03*
X140652500Y-119169598D03*
X140652500Y-120669598D03*
D12*
X145466500Y-115525398D03*
X143966500Y-115525398D03*
X145466500Y-120681598D03*
X143966500Y-120681598D03*
D11*
X148526500Y-115511998D03*
X148526500Y-117011998D03*
X148526500Y-119169598D03*
X148526500Y-120669598D03*
D12*
X140640500Y-113975998D03*
X139140500Y-113975998D03*
X140640500Y-122205598D03*
X139140500Y-122205598D03*
D13*
X137616500Y-115499998D03*
X139116500Y-115499998D03*
D14*
X138874500Y-119042598D03*
X138874500Y-120542598D03*
X142430500Y-113987998D03*
X142430500Y-115487998D03*
X142430500Y-120693598D03*
X142430500Y-122193598D03*
D13*
X130722500Y-112807598D03*
X129222500Y-112807598D03*
X127710500Y-130333598D03*
X129210500Y-130333598D03*
D14*
X129476500Y-125265598D03*
X129476500Y-126765598D03*
D15*
X130730300Y-123512998D03*
X130730300Y-123012998D03*
X130730300Y-122512998D03*
X130730300Y-122012998D03*
X130730300Y-121512998D03*
X130730300Y-121012998D03*
X130730300Y-120512998D03*
X130730300Y-120012998D03*
X130730300Y-119512998D03*
X130730300Y-119012998D03*
D16*
X131480300Y-118262998D03*
X131980300Y-118262998D03*
X132480300Y-118262998D03*
X132980300Y-118262998D03*
X133480300Y-118262998D03*
X133980300Y-118262998D03*
X134480300Y-118262998D03*
X134980300Y-118262998D03*
X135480300Y-118262998D03*
X135980300Y-118262998D03*
D15*
X136730300Y-119012998D03*
X136730300Y-119512998D03*
X136730300Y-120012998D03*
X136730300Y-120512998D03*
X136730300Y-121012998D03*
X136730300Y-121512998D03*
X136730300Y-122012998D03*
X136730300Y-122512998D03*
X136730300Y-123012998D03*
X136730300Y-123512998D03*
D16*
X135980300Y-124262998D03*
X135480300Y-124262998D03*
X134980300Y-124262998D03*
X134480300Y-124262998D03*
X133980300Y-124262998D03*
X133480300Y-124262998D03*
X132980300Y-124262998D03*
X132480300Y-124262998D03*
X131980300Y-124262998D03*
X131480300Y-124262998D03*
D17*
X135455300Y-119537998D03*
X135455300Y-120687998D03*
X135455300Y-121837998D03*
X135455300Y-122987998D03*
X134305300Y-119537998D03*
X134305300Y-120687998D03*
X134305300Y-121837998D03*
X134305300Y-122987998D03*
X133155300Y-119537998D03*
X133155300Y-120687998D03*
X133155300Y-121837998D03*
X133155300Y-122987998D03*
X132005300Y-119537998D03*
X132005300Y-120687998D03*
X132005300Y-121837998D03*
X132005300Y-122987998D03*
D18*
X134914500Y-127228598D03*
X134914500Y-128578598D03*
X133864500Y-128578598D03*
X133864500Y-127228598D03*
D11*
X147002500Y-115511998D03*
X147002500Y-117011998D03*
X147002500Y-119169598D03*
X147002500Y-120669598D03*
D12*
X145466500Y-117023998D03*
X143966500Y-117023998D03*
X145466500Y-119182998D03*
X143966500Y-119182998D03*
D11*
X136601200Y-127227900D03*
X136601200Y-128727900D03*
D12*
X133806500Y-130340100D03*
X135306500Y-130340100D03*
D13*
X132004500Y-130333598D03*
X130504500Y-130333598D03*
X132004500Y-128301598D03*
X130504500Y-128301598D03*
X127710500Y-128301598D03*
X129210500Y-128301598D03*
X145454500Y-113975998D03*
X143954500Y-113975998D03*
X145466500Y-122205598D03*
X143966500Y-122205598D03*
D14*
X148526500Y-112717998D03*
X148526500Y-114217998D03*
X148526500Y-123463598D03*
X148526500Y-121963598D03*
D19*
X133096000Y-103632000D03*
X133096000Y-101092000D03*
X135636000Y-103632000D03*
X135636000Y-101092000D03*
X138176000Y-103632000D03*
X138176000Y-101092000D03*
D20*
X121920000Y-101600000D03*
X152400000Y-101600000D03*
X121920000Y-132080000D03*
X152400000Y-132080000D03*
D19*
X151523700Y-120650000D03*
X151523700Y-118110000D03*
X151523700Y-115570000D03*
D21*
X135652000Y-109220000D03*
X137652000Y-109220000D03*
D12*
X135624000Y-105918000D03*
X134124000Y-105918000D03*
X135624000Y-107442000D03*
X134124000Y-107442000D03*
D19*
X128524000Y-108966000D03*
X131064000Y-108966000D03*
X121920000Y-116840000D03*
X124460000Y-116840000D03*
X121920000Y-119380000D03*
X124460000Y-119380000D03*
X121920000Y-121920000D03*
X124460000Y-121920000D03*
X121920000Y-124460000D03*
X124460000Y-124460000D03*
X121920000Y-127000000D03*
X124460000Y-127000000D03*
X121920000Y-108458000D03*
X124460000Y-108458000D03*
X121920000Y-110998000D03*
X124460000Y-110998000D03*
X121920000Y-113538000D03*
X124460000Y-113538000D03*
D13*
X127735200Y-111201200D03*
X129235200Y-111201200D03*
M02*
