G04 #@! TF.FileFunction,Copper,L1,Top,Signal*
%FSLAX46Y46*%
G04 Gerber Fmt 4.6, Leading zero omitted, Abs format (unit mm)*
G04 Created by KiCad (PCBNEW 4.0.4-stable) date 06/14/17 14:20:26*
%MOMM*%
%LPD*%
G01*
G04 APERTURE LIST*
%ADD10C,0.100000*%
%ADD11R,1.524000X1.524000*%
%ADD12R,1.597660X1.800860*%
%ADD13C,6.000000*%
%ADD14R,0.500000X0.900000*%
%ADD15C,0.600000*%
%ADD16C,0.200000*%
%ADD17C,0.300000*%
%ADD18C,0.600000*%
%ADD19C,0.400000*%
%ADD20C,0.254000*%
G04 APERTURE END LIST*
D10*
D11*
X133096000Y-103632000D03*
X133096000Y-101092000D03*
X135636000Y-103632000D03*
X135636000Y-101092000D03*
X138176000Y-103632000D03*
X138176000Y-101092000D03*
D12*
X139143861Y-106590945D03*
X141983581Y-106590945D03*
D13*
X121920000Y-101600000D03*
X152400000Y-101600000D03*
X121920000Y-132080000D03*
X152400000Y-132080000D03*
D14*
X135749721Y-106590945D03*
X137249721Y-106590945D03*
D11*
X151523700Y-120650000D03*
X151523700Y-118110000D03*
X151523700Y-115570000D03*
X128524000Y-108966000D03*
X131064000Y-108966000D03*
X121920000Y-116840000D03*
X124460000Y-116840000D03*
X121920000Y-119380000D03*
X124460000Y-119380000D03*
X121920000Y-121920000D03*
X124460000Y-121920000D03*
X121920000Y-124460000D03*
X124460000Y-124460000D03*
X121920000Y-127000000D03*
X124460000Y-127000000D03*
X121920000Y-108458000D03*
X124460000Y-108458000D03*
X121920000Y-110998000D03*
X124460000Y-110998000D03*
X121920000Y-113538000D03*
X124460000Y-113538000D03*
D15*
X136512300Y-129882900D03*
X135102600Y-125450600D03*
X133633323Y-126373777D03*
X138379200Y-117398800D03*
X132334000Y-111506000D03*
X119380000Y-105410000D03*
X119380000Y-109220000D03*
X119380000Y-113030000D03*
X119380000Y-116840000D03*
X119380000Y-120650000D03*
X119380000Y-124460000D03*
X119380000Y-128270000D03*
X125730000Y-134620000D03*
X129540000Y-134620000D03*
X133350000Y-134620000D03*
X137160000Y-134620000D03*
X140970000Y-134620000D03*
X144780000Y-134620000D03*
X148590000Y-134620000D03*
X154940000Y-128270000D03*
X154940000Y-124460000D03*
X154940000Y-120650000D03*
X154940000Y-116840000D03*
X154940000Y-113030000D03*
X154940000Y-109220000D03*
X154940000Y-105410000D03*
X148590000Y-99060000D03*
X144780000Y-99060000D03*
X140970000Y-99060000D03*
X137160000Y-99060000D03*
X133350000Y-99060000D03*
X129540000Y-99060000D03*
X125730000Y-99060000D03*
X135455300Y-122987998D03*
X134305300Y-122987998D03*
X133155300Y-122987998D03*
X132005300Y-122987998D03*
X135455300Y-121837998D03*
X134305300Y-121837998D03*
X133155300Y-121837998D03*
X132005300Y-121837998D03*
X135455300Y-120687998D03*
X134305300Y-120687998D03*
X133155300Y-120687998D03*
X132005300Y-120687998D03*
X135455300Y-119537998D03*
X134305300Y-119537998D03*
X133155300Y-119537998D03*
X132005300Y-119537998D03*
X127762000Y-113030000D03*
X137349284Y-114550292D03*
X130746500Y-126777598D03*
X137604500Y-122205598D03*
X128790700Y-116039900D03*
X127810260Y-120995440D03*
X129730500Y-129317598D03*
X139128500Y-123221598D03*
X134130300Y-116109598D03*
X130975100Y-110998002D03*
X132794560Y-115331538D03*
X137604500Y-119665598D03*
X125984000Y-122707400D03*
X127025400Y-120472200D03*
X130721100Y-115728598D03*
X133540500Y-113061598D03*
X137604500Y-121189598D03*
D16*
X137349284Y-114550292D02*
X138379200Y-115580208D01*
X138379200Y-115580208D02*
X138379200Y-117398800D01*
X133096000Y-101092000D02*
X133096000Y-99314000D01*
X133096000Y-99314000D02*
X133350000Y-99060000D01*
D17*
X119380000Y-105410000D02*
X119380000Y-104140000D01*
X119380000Y-104140000D02*
X121920000Y-101600000D01*
X119380000Y-113030000D02*
X119380000Y-109220000D01*
X119380000Y-120650000D02*
X119380000Y-116840000D01*
X119380000Y-128270000D02*
X119380000Y-124460000D01*
X129540000Y-134620000D02*
X125730000Y-134620000D01*
X137160000Y-134620000D02*
X133350000Y-134620000D01*
X144780000Y-134620000D02*
X140970000Y-134620000D01*
X152400000Y-132080000D02*
X149400001Y-135079999D01*
X149400001Y-135079999D02*
X149049999Y-135079999D01*
X149049999Y-135079999D02*
X148590000Y-134620000D01*
X154940000Y-128270000D02*
X154940000Y-129540000D01*
X154940000Y-129540000D02*
X152400000Y-132080000D01*
X154940000Y-120650000D02*
X154940000Y-124460000D01*
X154940000Y-113030000D02*
X154940000Y-116840000D01*
X154940000Y-105410000D02*
X154940000Y-109220000D01*
X144780000Y-99060000D02*
X148590000Y-99060000D01*
X137160000Y-99060000D02*
X140970000Y-99060000D01*
X129540000Y-99060000D02*
X133350000Y-99060000D01*
X121920000Y-101600000D02*
X124919999Y-98600001D01*
X124919999Y-98600001D02*
X125270001Y-98600001D01*
X125270001Y-98600001D02*
X125730000Y-99060000D01*
X128490701Y-116339899D02*
X128790700Y-116039900D01*
X127810499Y-117020101D02*
X128490701Y-116339899D01*
X127810499Y-121513600D02*
X127810499Y-117020101D01*
X127810499Y-121513600D02*
X127810499Y-127397597D01*
X127810260Y-120995440D02*
X127810260Y-121513361D01*
X127810260Y-121513361D02*
X127810499Y-121513600D01*
X127810499Y-127397597D02*
X129430501Y-129017599D01*
X129430501Y-129017599D02*
X129730500Y-129317598D01*
X139128500Y-123221598D02*
X137658498Y-123221598D01*
X137658498Y-123221598D02*
X136842500Y-122405600D01*
X136842500Y-122405600D02*
X136842500Y-116871598D01*
X136842500Y-116871598D02*
X136080500Y-116109598D01*
X136080500Y-116109598D02*
X134130300Y-116109598D01*
X125522000Y-108458000D02*
X128062002Y-110998002D01*
X124460000Y-108458000D02*
X125522000Y-108458000D01*
X128062002Y-110998002D02*
X130975100Y-110998002D01*
X132794560Y-115331538D02*
X136318440Y-115331538D01*
X136318440Y-115331538D02*
X137604500Y-116617598D01*
X137604500Y-116617598D02*
X137604500Y-119241334D01*
X137604500Y-119241334D02*
X137604500Y-119665598D01*
X125984000Y-122283136D02*
X125984000Y-122707400D01*
X125984000Y-119842000D02*
X125984000Y-122283136D01*
X125522000Y-119380000D02*
X125984000Y-119842000D01*
X124460000Y-119380000D02*
X125522000Y-119380000D01*
X124460000Y-119380000D02*
X121920000Y-119380000D01*
X127025400Y-122956600D02*
X127025400Y-120896464D01*
X125522000Y-124460000D02*
X127025400Y-122956600D01*
X124460000Y-124460000D02*
X125522000Y-124460000D01*
X127025400Y-120896464D02*
X127025400Y-120472200D01*
X124460000Y-124460000D02*
X121920000Y-124460000D01*
D18*
X137249721Y-106590945D02*
X139143861Y-106590945D01*
X133540500Y-113061598D02*
X137572598Y-113061598D01*
X137572598Y-113061598D02*
X139293600Y-114782600D01*
X139293600Y-114782600D02*
X139293600Y-119500498D01*
X139293600Y-119500498D02*
X137904499Y-120889599D01*
X137904499Y-120889599D02*
X137604500Y-121189598D01*
X130721100Y-115728598D02*
X130721100Y-114007900D01*
X130721100Y-114007900D02*
X131667402Y-113061598D01*
X131667402Y-113061598D02*
X133540500Y-113061598D01*
X135636000Y-103632000D02*
X135636000Y-106477224D01*
X135636000Y-106477224D02*
X135749721Y-106590945D01*
X135636000Y-101092000D02*
X135636000Y-103632000D01*
D19*
X133540500Y-113061598D02*
X133604000Y-112998098D01*
D20*
G36*
X156516000Y-136196000D02*
X117804000Y-136196000D01*
X117804000Y-127285750D01*
X120523000Y-127285750D01*
X120523000Y-127888310D01*
X120619673Y-128121699D01*
X120798302Y-128300327D01*
X121031691Y-128397000D01*
X121634250Y-128397000D01*
X121793000Y-128238250D01*
X121793000Y-127127000D01*
X122047000Y-127127000D01*
X122047000Y-128238250D01*
X122205750Y-128397000D01*
X122808309Y-128397000D01*
X123041698Y-128300327D01*
X123190000Y-128152026D01*
X123338302Y-128300327D01*
X123571691Y-128397000D01*
X124174250Y-128397000D01*
X124333000Y-128238250D01*
X124333000Y-127127000D01*
X124587000Y-127127000D01*
X124587000Y-128238250D01*
X124745750Y-128397000D01*
X125348309Y-128397000D01*
X125581698Y-128300327D01*
X125760327Y-128121699D01*
X125857000Y-127888310D01*
X125857000Y-127285750D01*
X125698250Y-127127000D01*
X124587000Y-127127000D01*
X124333000Y-127127000D01*
X123221750Y-127127000D01*
X123190000Y-127158750D01*
X123158250Y-127127000D01*
X122047000Y-127127000D01*
X121793000Y-127127000D01*
X120681750Y-127127000D01*
X120523000Y-127285750D01*
X117804000Y-127285750D01*
X117804000Y-118618000D01*
X120510560Y-118618000D01*
X120510560Y-120142000D01*
X120554838Y-120377317D01*
X120693910Y-120593441D01*
X120775770Y-120649374D01*
X120706559Y-120693910D01*
X120561569Y-120906110D01*
X120510560Y-121158000D01*
X120510560Y-122682000D01*
X120554838Y-122917317D01*
X120693910Y-123133441D01*
X120775770Y-123189374D01*
X120706559Y-123233910D01*
X120561569Y-123446110D01*
X120510560Y-123698000D01*
X120510560Y-125222000D01*
X120554838Y-125457317D01*
X120693910Y-125673441D01*
X120771511Y-125726464D01*
X120619673Y-125878301D01*
X120523000Y-126111690D01*
X120523000Y-126714250D01*
X120681750Y-126873000D01*
X121793000Y-126873000D01*
X121793000Y-126853000D01*
X122047000Y-126853000D01*
X122047000Y-126873000D01*
X123158250Y-126873000D01*
X123190000Y-126841250D01*
X123221750Y-126873000D01*
X124333000Y-126873000D01*
X124333000Y-126853000D01*
X124587000Y-126853000D01*
X124587000Y-126873000D01*
X125698250Y-126873000D01*
X125857000Y-126714250D01*
X125857000Y-126111690D01*
X125760327Y-125878301D01*
X125609354Y-125727329D01*
X125673441Y-125686090D01*
X125818431Y-125473890D01*
X125869440Y-125222000D01*
X125869440Y-125153819D01*
X126077079Y-125015079D01*
X127025499Y-124066659D01*
X127025499Y-127397597D01*
X127085254Y-127698004D01*
X127255420Y-127952676D01*
X128795347Y-129492603D01*
X128795338Y-129502765D01*
X128937383Y-129846541D01*
X129200173Y-130109790D01*
X129543701Y-130252436D01*
X129915667Y-130252760D01*
X130259443Y-130110715D01*
X130522692Y-129847925D01*
X130665338Y-129504397D01*
X130665662Y-129132431D01*
X130523617Y-128788655D01*
X130260827Y-128525406D01*
X129917299Y-128382760D01*
X129905810Y-128382750D01*
X128595499Y-127072439D01*
X128595499Y-121532708D01*
X128602452Y-121525767D01*
X128745098Y-121182239D01*
X128745422Y-120810273D01*
X128603377Y-120466497D01*
X128595499Y-120458605D01*
X128595499Y-117345259D01*
X128965705Y-116975053D01*
X128975867Y-116975062D01*
X129319643Y-116833017D01*
X129582892Y-116570227D01*
X129725538Y-116226699D01*
X129725810Y-115913765D01*
X129785938Y-115913765D01*
X129927983Y-116257541D01*
X130190773Y-116520790D01*
X130534301Y-116663436D01*
X130906267Y-116663760D01*
X131250043Y-116521715D01*
X131513292Y-116258925D01*
X131655938Y-115915397D01*
X131656262Y-115543431D01*
X131656100Y-115543039D01*
X131656100Y-114395190D01*
X132054692Y-113996598D01*
X133539684Y-113996598D01*
X133725667Y-113996760D01*
X133726059Y-113996598D01*
X137185308Y-113996598D01*
X138358600Y-115169890D01*
X138358600Y-116462255D01*
X138329745Y-116317192D01*
X138159579Y-116062519D01*
X138159576Y-116062517D01*
X136873519Y-114776459D01*
X136618847Y-114606293D01*
X136318440Y-114546538D01*
X133332066Y-114546538D01*
X133324887Y-114539346D01*
X132981359Y-114396700D01*
X132609393Y-114396376D01*
X132265617Y-114538421D01*
X132002368Y-114801211D01*
X131859722Y-115144739D01*
X131859398Y-115516705D01*
X132001443Y-115860481D01*
X132264233Y-116123730D01*
X132607761Y-116266376D01*
X132979727Y-116266700D01*
X133195240Y-116177652D01*
X133195138Y-116294765D01*
X133337183Y-116638541D01*
X133599973Y-116901790D01*
X133943501Y-117044436D01*
X134315467Y-117044760D01*
X134659243Y-116902715D01*
X134667374Y-116894598D01*
X135755342Y-116894598D01*
X136057500Y-117196756D01*
X136057500Y-122405600D01*
X136117255Y-122706007D01*
X136287421Y-122960679D01*
X137103419Y-123776677D01*
X137358092Y-123946843D01*
X137658498Y-124006598D01*
X138590994Y-124006598D01*
X138598173Y-124013790D01*
X138941701Y-124156436D01*
X139313667Y-124156760D01*
X139657443Y-124014715D01*
X139920692Y-123751925D01*
X140063338Y-123408397D01*
X140063662Y-123036431D01*
X139921617Y-122692655D01*
X139658827Y-122429406D01*
X139315299Y-122286760D01*
X138943333Y-122286436D01*
X138599557Y-122428481D01*
X138591426Y-122436598D01*
X137983656Y-122436598D01*
X137671715Y-122124657D01*
X137789667Y-122124760D01*
X138133443Y-121982715D01*
X138396692Y-121719925D01*
X138396855Y-121719533D01*
X139954745Y-120161643D01*
X140137586Y-119888000D01*
X150114260Y-119888000D01*
X150114260Y-121412000D01*
X150158538Y-121647317D01*
X150297610Y-121863441D01*
X150509810Y-122008431D01*
X150761700Y-122059440D01*
X152285700Y-122059440D01*
X152521017Y-122015162D01*
X152737141Y-121876090D01*
X152882131Y-121663890D01*
X152933140Y-121412000D01*
X152933140Y-119888000D01*
X152888862Y-119652683D01*
X152749790Y-119436559D01*
X152672189Y-119383536D01*
X152824027Y-119231699D01*
X152920700Y-118998310D01*
X152920700Y-118395750D01*
X152761950Y-118237000D01*
X151650700Y-118237000D01*
X151650700Y-118257000D01*
X151396700Y-118257000D01*
X151396700Y-118237000D01*
X150285450Y-118237000D01*
X150126700Y-118395750D01*
X150126700Y-118998310D01*
X150223373Y-119231699D01*
X150374346Y-119382671D01*
X150310259Y-119423910D01*
X150165269Y-119636110D01*
X150114260Y-119888000D01*
X140137586Y-119888000D01*
X140157427Y-119858307D01*
X140228600Y-119500498D01*
X140228600Y-114808000D01*
X150114260Y-114808000D01*
X150114260Y-116332000D01*
X150158538Y-116567317D01*
X150297610Y-116783441D01*
X150375211Y-116836464D01*
X150223373Y-116988301D01*
X150126700Y-117221690D01*
X150126700Y-117824250D01*
X150285450Y-117983000D01*
X151396700Y-117983000D01*
X151396700Y-117963000D01*
X151650700Y-117963000D01*
X151650700Y-117983000D01*
X152761950Y-117983000D01*
X152920700Y-117824250D01*
X152920700Y-117221690D01*
X152824027Y-116988301D01*
X152673054Y-116837329D01*
X152737141Y-116796090D01*
X152882131Y-116583890D01*
X152933140Y-116332000D01*
X152933140Y-114808000D01*
X152888862Y-114572683D01*
X152749790Y-114356559D01*
X152537590Y-114211569D01*
X152285700Y-114160560D01*
X150761700Y-114160560D01*
X150526383Y-114204838D01*
X150310259Y-114343910D01*
X150165269Y-114556110D01*
X150114260Y-114808000D01*
X140228600Y-114808000D01*
X140228600Y-114782600D01*
X140157427Y-114424791D01*
X139954745Y-114121455D01*
X138233743Y-112400453D01*
X137930407Y-112197771D01*
X137572598Y-112126598D01*
X133541316Y-112126598D01*
X133355333Y-112126436D01*
X133354941Y-112126598D01*
X131667402Y-112126598D01*
X131309593Y-112197771D01*
X131006257Y-112400453D01*
X130059955Y-113346755D01*
X129857273Y-113650091D01*
X129786100Y-114007900D01*
X129786100Y-115727782D01*
X129785938Y-115913765D01*
X129725810Y-115913765D01*
X129725862Y-115854733D01*
X129583817Y-115510957D01*
X129321027Y-115247708D01*
X128977499Y-115105062D01*
X128605533Y-115104738D01*
X128261757Y-115246783D01*
X127998508Y-115509573D01*
X127855862Y-115853101D01*
X127855852Y-115864590D01*
X127255420Y-116465022D01*
X127085254Y-116719694D01*
X127043733Y-116928431D01*
X127025499Y-117020101D01*
X127025499Y-119537199D01*
X126840233Y-119537038D01*
X126718356Y-119587397D01*
X126709245Y-119541594D01*
X126539079Y-119286921D01*
X126077079Y-118824921D01*
X125869440Y-118686181D01*
X125869440Y-118618000D01*
X125825162Y-118382683D01*
X125686090Y-118166559D01*
X125608489Y-118113536D01*
X125760327Y-117961699D01*
X125857000Y-117728310D01*
X125857000Y-117125750D01*
X125698250Y-116967000D01*
X124587000Y-116967000D01*
X124587000Y-116987000D01*
X124333000Y-116987000D01*
X124333000Y-116967000D01*
X123221750Y-116967000D01*
X123190000Y-116998750D01*
X123158250Y-116967000D01*
X122047000Y-116967000D01*
X122047000Y-116987000D01*
X121793000Y-116987000D01*
X121793000Y-116967000D01*
X120681750Y-116967000D01*
X120523000Y-117125750D01*
X120523000Y-117728310D01*
X120619673Y-117961699D01*
X120770646Y-118112671D01*
X120706559Y-118153910D01*
X120561569Y-118366110D01*
X120510560Y-118618000D01*
X117804000Y-118618000D01*
X117804000Y-115951690D01*
X120523000Y-115951690D01*
X120523000Y-116554250D01*
X120681750Y-116713000D01*
X121793000Y-116713000D01*
X121793000Y-115601750D01*
X122047000Y-115601750D01*
X122047000Y-116713000D01*
X123158250Y-116713000D01*
X123190000Y-116681250D01*
X123221750Y-116713000D01*
X124333000Y-116713000D01*
X124333000Y-115601750D01*
X124587000Y-115601750D01*
X124587000Y-116713000D01*
X125698250Y-116713000D01*
X125857000Y-116554250D01*
X125857000Y-115951690D01*
X125760327Y-115718301D01*
X125581698Y-115539673D01*
X125348309Y-115443000D01*
X124745750Y-115443000D01*
X124587000Y-115601750D01*
X124333000Y-115601750D01*
X124174250Y-115443000D01*
X123571691Y-115443000D01*
X123338302Y-115539673D01*
X123190000Y-115687974D01*
X123041698Y-115539673D01*
X122808309Y-115443000D01*
X122205750Y-115443000D01*
X122047000Y-115601750D01*
X121793000Y-115601750D01*
X121634250Y-115443000D01*
X121031691Y-115443000D01*
X120798302Y-115539673D01*
X120619673Y-115718301D01*
X120523000Y-115951690D01*
X117804000Y-115951690D01*
X117804000Y-107696000D01*
X120510560Y-107696000D01*
X120510560Y-109220000D01*
X120554838Y-109455317D01*
X120693910Y-109671441D01*
X120775770Y-109727374D01*
X120706559Y-109771910D01*
X120561569Y-109984110D01*
X120510560Y-110236000D01*
X120510560Y-111760000D01*
X120554838Y-111995317D01*
X120693910Y-112211441D01*
X120775770Y-112267374D01*
X120706559Y-112311910D01*
X120561569Y-112524110D01*
X120510560Y-112776000D01*
X120510560Y-114300000D01*
X120554838Y-114535317D01*
X120693910Y-114751441D01*
X120906110Y-114896431D01*
X121158000Y-114947440D01*
X122682000Y-114947440D01*
X122917317Y-114903162D01*
X123133441Y-114764090D01*
X123189374Y-114682230D01*
X123233910Y-114751441D01*
X123446110Y-114896431D01*
X123698000Y-114947440D01*
X125222000Y-114947440D01*
X125457317Y-114903162D01*
X125673441Y-114764090D01*
X125818431Y-114551890D01*
X125869440Y-114300000D01*
X125869440Y-112776000D01*
X125825162Y-112540683D01*
X125686090Y-112324559D01*
X125604230Y-112268626D01*
X125673441Y-112224090D01*
X125818431Y-112011890D01*
X125869440Y-111760000D01*
X125869440Y-110236000D01*
X125825162Y-110000683D01*
X125686090Y-109784559D01*
X125604230Y-109728626D01*
X125651835Y-109697993D01*
X127506923Y-111553081D01*
X127761595Y-111723247D01*
X128062002Y-111783002D01*
X130437594Y-111783002D01*
X130444773Y-111790194D01*
X130788301Y-111932840D01*
X131160267Y-111933164D01*
X131504043Y-111791119D01*
X131767292Y-111528329D01*
X131909938Y-111184801D01*
X131910262Y-110812835D01*
X131768217Y-110469059D01*
X131674761Y-110375440D01*
X131826000Y-110375440D01*
X132061317Y-110331162D01*
X132277441Y-110192090D01*
X132422431Y-109979890D01*
X132473440Y-109728000D01*
X132473440Y-108204000D01*
X132429162Y-107968683D01*
X132290090Y-107752559D01*
X132077890Y-107607569D01*
X131826000Y-107556560D01*
X130302000Y-107556560D01*
X130066683Y-107600838D01*
X129850559Y-107739910D01*
X129794626Y-107821770D01*
X129750090Y-107752559D01*
X129537890Y-107607569D01*
X129286000Y-107556560D01*
X127762000Y-107556560D01*
X127526683Y-107600838D01*
X127310559Y-107739910D01*
X127165569Y-107952110D01*
X127114560Y-108204000D01*
X127114560Y-108940402D01*
X126077079Y-107902921D01*
X125869440Y-107764181D01*
X125869440Y-107696000D01*
X125825162Y-107460683D01*
X125686090Y-107244559D01*
X125473890Y-107099569D01*
X125222000Y-107048560D01*
X123698000Y-107048560D01*
X123462683Y-107092838D01*
X123246559Y-107231910D01*
X123190626Y-107313770D01*
X123146090Y-107244559D01*
X122933890Y-107099569D01*
X122682000Y-107048560D01*
X121158000Y-107048560D01*
X120922683Y-107092838D01*
X120706559Y-107231910D01*
X120561569Y-107444110D01*
X120510560Y-107696000D01*
X117804000Y-107696000D01*
X117804000Y-103917750D01*
X131699000Y-103917750D01*
X131699000Y-104520309D01*
X131795673Y-104753698D01*
X131974301Y-104932327D01*
X132207690Y-105029000D01*
X132810250Y-105029000D01*
X132969000Y-104870250D01*
X132969000Y-103759000D01*
X131857750Y-103759000D01*
X131699000Y-103917750D01*
X117804000Y-103917750D01*
X117804000Y-101377750D01*
X131699000Y-101377750D01*
X131699000Y-101980309D01*
X131795673Y-102213698D01*
X131943974Y-102362000D01*
X131795673Y-102510302D01*
X131699000Y-102743691D01*
X131699000Y-103346250D01*
X131857750Y-103505000D01*
X132969000Y-103505000D01*
X132969000Y-102393750D01*
X132937250Y-102362000D01*
X132969000Y-102330250D01*
X132969000Y-101219000D01*
X131857750Y-101219000D01*
X131699000Y-101377750D01*
X117804000Y-101377750D01*
X117804000Y-100203691D01*
X131699000Y-100203691D01*
X131699000Y-100806250D01*
X131857750Y-100965000D01*
X132969000Y-100965000D01*
X132969000Y-99853750D01*
X133223000Y-99853750D01*
X133223000Y-100965000D01*
X133243000Y-100965000D01*
X133243000Y-101219000D01*
X133223000Y-101219000D01*
X133223000Y-102330250D01*
X133254750Y-102362000D01*
X133223000Y-102393750D01*
X133223000Y-103505000D01*
X133243000Y-103505000D01*
X133243000Y-103759000D01*
X133223000Y-103759000D01*
X133223000Y-104870250D01*
X133381750Y-105029000D01*
X133984310Y-105029000D01*
X134217699Y-104932327D01*
X134368671Y-104781354D01*
X134409910Y-104845441D01*
X134622110Y-104990431D01*
X134701000Y-105006407D01*
X134701000Y-106477224D01*
X134772173Y-106835033D01*
X134852281Y-106954923D01*
X134852281Y-107040945D01*
X134896559Y-107276262D01*
X135035631Y-107492386D01*
X135247831Y-107637376D01*
X135499721Y-107688385D01*
X135999721Y-107688385D01*
X136235038Y-107644107D01*
X136451162Y-107505035D01*
X136498855Y-107435234D01*
X136535631Y-107492386D01*
X136747831Y-107637376D01*
X136999721Y-107688385D01*
X137499721Y-107688385D01*
X137726627Y-107645690D01*
X137741869Y-107726692D01*
X137880941Y-107942816D01*
X138093141Y-108087806D01*
X138345031Y-108138815D01*
X139942691Y-108138815D01*
X140178008Y-108094537D01*
X140394132Y-107955465D01*
X140539122Y-107743265D01*
X140559692Y-107641686D01*
X140646424Y-107851074D01*
X140825053Y-108029702D01*
X141058442Y-108126375D01*
X141697831Y-108126375D01*
X141856581Y-107967625D01*
X141856581Y-106717945D01*
X142110581Y-106717945D01*
X142110581Y-107967625D01*
X142269331Y-108126375D01*
X142908720Y-108126375D01*
X143142109Y-108029702D01*
X143320738Y-107851074D01*
X143417411Y-107617685D01*
X143417411Y-106876695D01*
X143258661Y-106717945D01*
X142110581Y-106717945D01*
X141856581Y-106717945D01*
X141836581Y-106717945D01*
X141836581Y-106463945D01*
X141856581Y-106463945D01*
X141856581Y-105214265D01*
X142110581Y-105214265D01*
X142110581Y-106463945D01*
X143258661Y-106463945D01*
X143417411Y-106305195D01*
X143417411Y-105564205D01*
X143320738Y-105330816D01*
X143142109Y-105152188D01*
X142908720Y-105055515D01*
X142269331Y-105055515D01*
X142110581Y-105214265D01*
X141856581Y-105214265D01*
X141697831Y-105055515D01*
X141058442Y-105055515D01*
X140825053Y-105152188D01*
X140646424Y-105330816D01*
X140561175Y-105536626D01*
X140545853Y-105455198D01*
X140406781Y-105239074D01*
X140194581Y-105094084D01*
X139942691Y-105043075D01*
X138345031Y-105043075D01*
X138109714Y-105087353D01*
X137893590Y-105226425D01*
X137748600Y-105438625D01*
X137728120Y-105539757D01*
X137499721Y-105493505D01*
X136999721Y-105493505D01*
X136764404Y-105537783D01*
X136571000Y-105662235D01*
X136571000Y-105008888D01*
X136633317Y-104997162D01*
X136849441Y-104858090D01*
X136902464Y-104780489D01*
X137054301Y-104932327D01*
X137287690Y-105029000D01*
X137890250Y-105029000D01*
X138049000Y-104870250D01*
X138049000Y-103759000D01*
X138303000Y-103759000D01*
X138303000Y-104870250D01*
X138461750Y-105029000D01*
X139064310Y-105029000D01*
X139297699Y-104932327D01*
X139476327Y-104753698D01*
X139573000Y-104520309D01*
X139573000Y-103917750D01*
X139414250Y-103759000D01*
X138303000Y-103759000D01*
X138049000Y-103759000D01*
X138029000Y-103759000D01*
X138029000Y-103505000D01*
X138049000Y-103505000D01*
X138049000Y-102393750D01*
X138017250Y-102362000D01*
X138049000Y-102330250D01*
X138049000Y-101219000D01*
X138303000Y-101219000D01*
X138303000Y-102330250D01*
X138334750Y-102362000D01*
X138303000Y-102393750D01*
X138303000Y-103505000D01*
X139414250Y-103505000D01*
X139573000Y-103346250D01*
X139573000Y-102743691D01*
X139476327Y-102510302D01*
X139328026Y-102362000D01*
X139476327Y-102213698D01*
X139573000Y-101980309D01*
X139573000Y-101377750D01*
X139414250Y-101219000D01*
X138303000Y-101219000D01*
X138049000Y-101219000D01*
X138029000Y-101219000D01*
X138029000Y-100965000D01*
X138049000Y-100965000D01*
X138049000Y-99853750D01*
X138303000Y-99853750D01*
X138303000Y-100965000D01*
X139414250Y-100965000D01*
X139573000Y-100806250D01*
X139573000Y-100203691D01*
X139476327Y-99970302D01*
X139297699Y-99791673D01*
X139064310Y-99695000D01*
X138461750Y-99695000D01*
X138303000Y-99853750D01*
X138049000Y-99853750D01*
X137890250Y-99695000D01*
X137287690Y-99695000D01*
X137054301Y-99791673D01*
X136903329Y-99942646D01*
X136862090Y-99878559D01*
X136649890Y-99733569D01*
X136398000Y-99682560D01*
X134874000Y-99682560D01*
X134638683Y-99726838D01*
X134422559Y-99865910D01*
X134369536Y-99943511D01*
X134217699Y-99791673D01*
X133984310Y-99695000D01*
X133381750Y-99695000D01*
X133223000Y-99853750D01*
X132969000Y-99853750D01*
X132810250Y-99695000D01*
X132207690Y-99695000D01*
X131974301Y-99791673D01*
X131795673Y-99970302D01*
X131699000Y-100203691D01*
X117804000Y-100203691D01*
X117804000Y-97484000D01*
X156516000Y-97484000D01*
X156516000Y-136196000D01*
X156516000Y-136196000D01*
G37*
X156516000Y-136196000D02*
X117804000Y-136196000D01*
X117804000Y-127285750D01*
X120523000Y-127285750D01*
X120523000Y-127888310D01*
X120619673Y-128121699D01*
X120798302Y-128300327D01*
X121031691Y-128397000D01*
X121634250Y-128397000D01*
X121793000Y-128238250D01*
X121793000Y-127127000D01*
X122047000Y-127127000D01*
X122047000Y-128238250D01*
X122205750Y-128397000D01*
X122808309Y-128397000D01*
X123041698Y-128300327D01*
X123190000Y-128152026D01*
X123338302Y-128300327D01*
X123571691Y-128397000D01*
X124174250Y-128397000D01*
X124333000Y-128238250D01*
X124333000Y-127127000D01*
X124587000Y-127127000D01*
X124587000Y-128238250D01*
X124745750Y-128397000D01*
X125348309Y-128397000D01*
X125581698Y-128300327D01*
X125760327Y-128121699D01*
X125857000Y-127888310D01*
X125857000Y-127285750D01*
X125698250Y-127127000D01*
X124587000Y-127127000D01*
X124333000Y-127127000D01*
X123221750Y-127127000D01*
X123190000Y-127158750D01*
X123158250Y-127127000D01*
X122047000Y-127127000D01*
X121793000Y-127127000D01*
X120681750Y-127127000D01*
X120523000Y-127285750D01*
X117804000Y-127285750D01*
X117804000Y-118618000D01*
X120510560Y-118618000D01*
X120510560Y-120142000D01*
X120554838Y-120377317D01*
X120693910Y-120593441D01*
X120775770Y-120649374D01*
X120706559Y-120693910D01*
X120561569Y-120906110D01*
X120510560Y-121158000D01*
X120510560Y-122682000D01*
X120554838Y-122917317D01*
X120693910Y-123133441D01*
X120775770Y-123189374D01*
X120706559Y-123233910D01*
X120561569Y-123446110D01*
X120510560Y-123698000D01*
X120510560Y-125222000D01*
X120554838Y-125457317D01*
X120693910Y-125673441D01*
X120771511Y-125726464D01*
X120619673Y-125878301D01*
X120523000Y-126111690D01*
X120523000Y-126714250D01*
X120681750Y-126873000D01*
X121793000Y-126873000D01*
X121793000Y-126853000D01*
X122047000Y-126853000D01*
X122047000Y-126873000D01*
X123158250Y-126873000D01*
X123190000Y-126841250D01*
X123221750Y-126873000D01*
X124333000Y-126873000D01*
X124333000Y-126853000D01*
X124587000Y-126853000D01*
X124587000Y-126873000D01*
X125698250Y-126873000D01*
X125857000Y-126714250D01*
X125857000Y-126111690D01*
X125760327Y-125878301D01*
X125609354Y-125727329D01*
X125673441Y-125686090D01*
X125818431Y-125473890D01*
X125869440Y-125222000D01*
X125869440Y-125153819D01*
X126077079Y-125015079D01*
X127025499Y-124066659D01*
X127025499Y-127397597D01*
X127085254Y-127698004D01*
X127255420Y-127952676D01*
X128795347Y-129492603D01*
X128795338Y-129502765D01*
X128937383Y-129846541D01*
X129200173Y-130109790D01*
X129543701Y-130252436D01*
X129915667Y-130252760D01*
X130259443Y-130110715D01*
X130522692Y-129847925D01*
X130665338Y-129504397D01*
X130665662Y-129132431D01*
X130523617Y-128788655D01*
X130260827Y-128525406D01*
X129917299Y-128382760D01*
X129905810Y-128382750D01*
X128595499Y-127072439D01*
X128595499Y-121532708D01*
X128602452Y-121525767D01*
X128745098Y-121182239D01*
X128745422Y-120810273D01*
X128603377Y-120466497D01*
X128595499Y-120458605D01*
X128595499Y-117345259D01*
X128965705Y-116975053D01*
X128975867Y-116975062D01*
X129319643Y-116833017D01*
X129582892Y-116570227D01*
X129725538Y-116226699D01*
X129725810Y-115913765D01*
X129785938Y-115913765D01*
X129927983Y-116257541D01*
X130190773Y-116520790D01*
X130534301Y-116663436D01*
X130906267Y-116663760D01*
X131250043Y-116521715D01*
X131513292Y-116258925D01*
X131655938Y-115915397D01*
X131656262Y-115543431D01*
X131656100Y-115543039D01*
X131656100Y-114395190D01*
X132054692Y-113996598D01*
X133539684Y-113996598D01*
X133725667Y-113996760D01*
X133726059Y-113996598D01*
X137185308Y-113996598D01*
X138358600Y-115169890D01*
X138358600Y-116462255D01*
X138329745Y-116317192D01*
X138159579Y-116062519D01*
X138159576Y-116062517D01*
X136873519Y-114776459D01*
X136618847Y-114606293D01*
X136318440Y-114546538D01*
X133332066Y-114546538D01*
X133324887Y-114539346D01*
X132981359Y-114396700D01*
X132609393Y-114396376D01*
X132265617Y-114538421D01*
X132002368Y-114801211D01*
X131859722Y-115144739D01*
X131859398Y-115516705D01*
X132001443Y-115860481D01*
X132264233Y-116123730D01*
X132607761Y-116266376D01*
X132979727Y-116266700D01*
X133195240Y-116177652D01*
X133195138Y-116294765D01*
X133337183Y-116638541D01*
X133599973Y-116901790D01*
X133943501Y-117044436D01*
X134315467Y-117044760D01*
X134659243Y-116902715D01*
X134667374Y-116894598D01*
X135755342Y-116894598D01*
X136057500Y-117196756D01*
X136057500Y-122405600D01*
X136117255Y-122706007D01*
X136287421Y-122960679D01*
X137103419Y-123776677D01*
X137358092Y-123946843D01*
X137658498Y-124006598D01*
X138590994Y-124006598D01*
X138598173Y-124013790D01*
X138941701Y-124156436D01*
X139313667Y-124156760D01*
X139657443Y-124014715D01*
X139920692Y-123751925D01*
X140063338Y-123408397D01*
X140063662Y-123036431D01*
X139921617Y-122692655D01*
X139658827Y-122429406D01*
X139315299Y-122286760D01*
X138943333Y-122286436D01*
X138599557Y-122428481D01*
X138591426Y-122436598D01*
X137983656Y-122436598D01*
X137671715Y-122124657D01*
X137789667Y-122124760D01*
X138133443Y-121982715D01*
X138396692Y-121719925D01*
X138396855Y-121719533D01*
X139954745Y-120161643D01*
X140137586Y-119888000D01*
X150114260Y-119888000D01*
X150114260Y-121412000D01*
X150158538Y-121647317D01*
X150297610Y-121863441D01*
X150509810Y-122008431D01*
X150761700Y-122059440D01*
X152285700Y-122059440D01*
X152521017Y-122015162D01*
X152737141Y-121876090D01*
X152882131Y-121663890D01*
X152933140Y-121412000D01*
X152933140Y-119888000D01*
X152888862Y-119652683D01*
X152749790Y-119436559D01*
X152672189Y-119383536D01*
X152824027Y-119231699D01*
X152920700Y-118998310D01*
X152920700Y-118395750D01*
X152761950Y-118237000D01*
X151650700Y-118237000D01*
X151650700Y-118257000D01*
X151396700Y-118257000D01*
X151396700Y-118237000D01*
X150285450Y-118237000D01*
X150126700Y-118395750D01*
X150126700Y-118998310D01*
X150223373Y-119231699D01*
X150374346Y-119382671D01*
X150310259Y-119423910D01*
X150165269Y-119636110D01*
X150114260Y-119888000D01*
X140137586Y-119888000D01*
X140157427Y-119858307D01*
X140228600Y-119500498D01*
X140228600Y-114808000D01*
X150114260Y-114808000D01*
X150114260Y-116332000D01*
X150158538Y-116567317D01*
X150297610Y-116783441D01*
X150375211Y-116836464D01*
X150223373Y-116988301D01*
X150126700Y-117221690D01*
X150126700Y-117824250D01*
X150285450Y-117983000D01*
X151396700Y-117983000D01*
X151396700Y-117963000D01*
X151650700Y-117963000D01*
X151650700Y-117983000D01*
X152761950Y-117983000D01*
X152920700Y-117824250D01*
X152920700Y-117221690D01*
X152824027Y-116988301D01*
X152673054Y-116837329D01*
X152737141Y-116796090D01*
X152882131Y-116583890D01*
X152933140Y-116332000D01*
X152933140Y-114808000D01*
X152888862Y-114572683D01*
X152749790Y-114356559D01*
X152537590Y-114211569D01*
X152285700Y-114160560D01*
X150761700Y-114160560D01*
X150526383Y-114204838D01*
X150310259Y-114343910D01*
X150165269Y-114556110D01*
X150114260Y-114808000D01*
X140228600Y-114808000D01*
X140228600Y-114782600D01*
X140157427Y-114424791D01*
X139954745Y-114121455D01*
X138233743Y-112400453D01*
X137930407Y-112197771D01*
X137572598Y-112126598D01*
X133541316Y-112126598D01*
X133355333Y-112126436D01*
X133354941Y-112126598D01*
X131667402Y-112126598D01*
X131309593Y-112197771D01*
X131006257Y-112400453D01*
X130059955Y-113346755D01*
X129857273Y-113650091D01*
X129786100Y-114007900D01*
X129786100Y-115727782D01*
X129785938Y-115913765D01*
X129725810Y-115913765D01*
X129725862Y-115854733D01*
X129583817Y-115510957D01*
X129321027Y-115247708D01*
X128977499Y-115105062D01*
X128605533Y-115104738D01*
X128261757Y-115246783D01*
X127998508Y-115509573D01*
X127855862Y-115853101D01*
X127855852Y-115864590D01*
X127255420Y-116465022D01*
X127085254Y-116719694D01*
X127043733Y-116928431D01*
X127025499Y-117020101D01*
X127025499Y-119537199D01*
X126840233Y-119537038D01*
X126718356Y-119587397D01*
X126709245Y-119541594D01*
X126539079Y-119286921D01*
X126077079Y-118824921D01*
X125869440Y-118686181D01*
X125869440Y-118618000D01*
X125825162Y-118382683D01*
X125686090Y-118166559D01*
X125608489Y-118113536D01*
X125760327Y-117961699D01*
X125857000Y-117728310D01*
X125857000Y-117125750D01*
X125698250Y-116967000D01*
X124587000Y-116967000D01*
X124587000Y-116987000D01*
X124333000Y-116987000D01*
X124333000Y-116967000D01*
X123221750Y-116967000D01*
X123190000Y-116998750D01*
X123158250Y-116967000D01*
X122047000Y-116967000D01*
X122047000Y-116987000D01*
X121793000Y-116987000D01*
X121793000Y-116967000D01*
X120681750Y-116967000D01*
X120523000Y-117125750D01*
X120523000Y-117728310D01*
X120619673Y-117961699D01*
X120770646Y-118112671D01*
X120706559Y-118153910D01*
X120561569Y-118366110D01*
X120510560Y-118618000D01*
X117804000Y-118618000D01*
X117804000Y-115951690D01*
X120523000Y-115951690D01*
X120523000Y-116554250D01*
X120681750Y-116713000D01*
X121793000Y-116713000D01*
X121793000Y-115601750D01*
X122047000Y-115601750D01*
X122047000Y-116713000D01*
X123158250Y-116713000D01*
X123190000Y-116681250D01*
X123221750Y-116713000D01*
X124333000Y-116713000D01*
X124333000Y-115601750D01*
X124587000Y-115601750D01*
X124587000Y-116713000D01*
X125698250Y-116713000D01*
X125857000Y-116554250D01*
X125857000Y-115951690D01*
X125760327Y-115718301D01*
X125581698Y-115539673D01*
X125348309Y-115443000D01*
X124745750Y-115443000D01*
X124587000Y-115601750D01*
X124333000Y-115601750D01*
X124174250Y-115443000D01*
X123571691Y-115443000D01*
X123338302Y-115539673D01*
X123190000Y-115687974D01*
X123041698Y-115539673D01*
X122808309Y-115443000D01*
X122205750Y-115443000D01*
X122047000Y-115601750D01*
X121793000Y-115601750D01*
X121634250Y-115443000D01*
X121031691Y-115443000D01*
X120798302Y-115539673D01*
X120619673Y-115718301D01*
X120523000Y-115951690D01*
X117804000Y-115951690D01*
X117804000Y-107696000D01*
X120510560Y-107696000D01*
X120510560Y-109220000D01*
X120554838Y-109455317D01*
X120693910Y-109671441D01*
X120775770Y-109727374D01*
X120706559Y-109771910D01*
X120561569Y-109984110D01*
X120510560Y-110236000D01*
X120510560Y-111760000D01*
X120554838Y-111995317D01*
X120693910Y-112211441D01*
X120775770Y-112267374D01*
X120706559Y-112311910D01*
X120561569Y-112524110D01*
X120510560Y-112776000D01*
X120510560Y-114300000D01*
X120554838Y-114535317D01*
X120693910Y-114751441D01*
X120906110Y-114896431D01*
X121158000Y-114947440D01*
X122682000Y-114947440D01*
X122917317Y-114903162D01*
X123133441Y-114764090D01*
X123189374Y-114682230D01*
X123233910Y-114751441D01*
X123446110Y-114896431D01*
X123698000Y-114947440D01*
X125222000Y-114947440D01*
X125457317Y-114903162D01*
X125673441Y-114764090D01*
X125818431Y-114551890D01*
X125869440Y-114300000D01*
X125869440Y-112776000D01*
X125825162Y-112540683D01*
X125686090Y-112324559D01*
X125604230Y-112268626D01*
X125673441Y-112224090D01*
X125818431Y-112011890D01*
X125869440Y-111760000D01*
X125869440Y-110236000D01*
X125825162Y-110000683D01*
X125686090Y-109784559D01*
X125604230Y-109728626D01*
X125651835Y-109697993D01*
X127506923Y-111553081D01*
X127761595Y-111723247D01*
X128062002Y-111783002D01*
X130437594Y-111783002D01*
X130444773Y-111790194D01*
X130788301Y-111932840D01*
X131160267Y-111933164D01*
X131504043Y-111791119D01*
X131767292Y-111528329D01*
X131909938Y-111184801D01*
X131910262Y-110812835D01*
X131768217Y-110469059D01*
X131674761Y-110375440D01*
X131826000Y-110375440D01*
X132061317Y-110331162D01*
X132277441Y-110192090D01*
X132422431Y-109979890D01*
X132473440Y-109728000D01*
X132473440Y-108204000D01*
X132429162Y-107968683D01*
X132290090Y-107752559D01*
X132077890Y-107607569D01*
X131826000Y-107556560D01*
X130302000Y-107556560D01*
X130066683Y-107600838D01*
X129850559Y-107739910D01*
X129794626Y-107821770D01*
X129750090Y-107752559D01*
X129537890Y-107607569D01*
X129286000Y-107556560D01*
X127762000Y-107556560D01*
X127526683Y-107600838D01*
X127310559Y-107739910D01*
X127165569Y-107952110D01*
X127114560Y-108204000D01*
X127114560Y-108940402D01*
X126077079Y-107902921D01*
X125869440Y-107764181D01*
X125869440Y-107696000D01*
X125825162Y-107460683D01*
X125686090Y-107244559D01*
X125473890Y-107099569D01*
X125222000Y-107048560D01*
X123698000Y-107048560D01*
X123462683Y-107092838D01*
X123246559Y-107231910D01*
X123190626Y-107313770D01*
X123146090Y-107244559D01*
X122933890Y-107099569D01*
X122682000Y-107048560D01*
X121158000Y-107048560D01*
X120922683Y-107092838D01*
X120706559Y-107231910D01*
X120561569Y-107444110D01*
X120510560Y-107696000D01*
X117804000Y-107696000D01*
X117804000Y-103917750D01*
X131699000Y-103917750D01*
X131699000Y-104520309D01*
X131795673Y-104753698D01*
X131974301Y-104932327D01*
X132207690Y-105029000D01*
X132810250Y-105029000D01*
X132969000Y-104870250D01*
X132969000Y-103759000D01*
X131857750Y-103759000D01*
X131699000Y-103917750D01*
X117804000Y-103917750D01*
X117804000Y-101377750D01*
X131699000Y-101377750D01*
X131699000Y-101980309D01*
X131795673Y-102213698D01*
X131943974Y-102362000D01*
X131795673Y-102510302D01*
X131699000Y-102743691D01*
X131699000Y-103346250D01*
X131857750Y-103505000D01*
X132969000Y-103505000D01*
X132969000Y-102393750D01*
X132937250Y-102362000D01*
X132969000Y-102330250D01*
X132969000Y-101219000D01*
X131857750Y-101219000D01*
X131699000Y-101377750D01*
X117804000Y-101377750D01*
X117804000Y-100203691D01*
X131699000Y-100203691D01*
X131699000Y-100806250D01*
X131857750Y-100965000D01*
X132969000Y-100965000D01*
X132969000Y-99853750D01*
X133223000Y-99853750D01*
X133223000Y-100965000D01*
X133243000Y-100965000D01*
X133243000Y-101219000D01*
X133223000Y-101219000D01*
X133223000Y-102330250D01*
X133254750Y-102362000D01*
X133223000Y-102393750D01*
X133223000Y-103505000D01*
X133243000Y-103505000D01*
X133243000Y-103759000D01*
X133223000Y-103759000D01*
X133223000Y-104870250D01*
X133381750Y-105029000D01*
X133984310Y-105029000D01*
X134217699Y-104932327D01*
X134368671Y-104781354D01*
X134409910Y-104845441D01*
X134622110Y-104990431D01*
X134701000Y-105006407D01*
X134701000Y-106477224D01*
X134772173Y-106835033D01*
X134852281Y-106954923D01*
X134852281Y-107040945D01*
X134896559Y-107276262D01*
X135035631Y-107492386D01*
X135247831Y-107637376D01*
X135499721Y-107688385D01*
X135999721Y-107688385D01*
X136235038Y-107644107D01*
X136451162Y-107505035D01*
X136498855Y-107435234D01*
X136535631Y-107492386D01*
X136747831Y-107637376D01*
X136999721Y-107688385D01*
X137499721Y-107688385D01*
X137726627Y-107645690D01*
X137741869Y-107726692D01*
X137880941Y-107942816D01*
X138093141Y-108087806D01*
X138345031Y-108138815D01*
X139942691Y-108138815D01*
X140178008Y-108094537D01*
X140394132Y-107955465D01*
X140539122Y-107743265D01*
X140559692Y-107641686D01*
X140646424Y-107851074D01*
X140825053Y-108029702D01*
X141058442Y-108126375D01*
X141697831Y-108126375D01*
X141856581Y-107967625D01*
X141856581Y-106717945D01*
X142110581Y-106717945D01*
X142110581Y-107967625D01*
X142269331Y-108126375D01*
X142908720Y-108126375D01*
X143142109Y-108029702D01*
X143320738Y-107851074D01*
X143417411Y-107617685D01*
X143417411Y-106876695D01*
X143258661Y-106717945D01*
X142110581Y-106717945D01*
X141856581Y-106717945D01*
X141836581Y-106717945D01*
X141836581Y-106463945D01*
X141856581Y-106463945D01*
X141856581Y-105214265D01*
X142110581Y-105214265D01*
X142110581Y-106463945D01*
X143258661Y-106463945D01*
X143417411Y-106305195D01*
X143417411Y-105564205D01*
X143320738Y-105330816D01*
X143142109Y-105152188D01*
X142908720Y-105055515D01*
X142269331Y-105055515D01*
X142110581Y-105214265D01*
X141856581Y-105214265D01*
X141697831Y-105055515D01*
X141058442Y-105055515D01*
X140825053Y-105152188D01*
X140646424Y-105330816D01*
X140561175Y-105536626D01*
X140545853Y-105455198D01*
X140406781Y-105239074D01*
X140194581Y-105094084D01*
X139942691Y-105043075D01*
X138345031Y-105043075D01*
X138109714Y-105087353D01*
X137893590Y-105226425D01*
X137748600Y-105438625D01*
X137728120Y-105539757D01*
X137499721Y-105493505D01*
X136999721Y-105493505D01*
X136764404Y-105537783D01*
X136571000Y-105662235D01*
X136571000Y-105008888D01*
X136633317Y-104997162D01*
X136849441Y-104858090D01*
X136902464Y-104780489D01*
X137054301Y-104932327D01*
X137287690Y-105029000D01*
X137890250Y-105029000D01*
X138049000Y-104870250D01*
X138049000Y-103759000D01*
X138303000Y-103759000D01*
X138303000Y-104870250D01*
X138461750Y-105029000D01*
X139064310Y-105029000D01*
X139297699Y-104932327D01*
X139476327Y-104753698D01*
X139573000Y-104520309D01*
X139573000Y-103917750D01*
X139414250Y-103759000D01*
X138303000Y-103759000D01*
X138049000Y-103759000D01*
X138029000Y-103759000D01*
X138029000Y-103505000D01*
X138049000Y-103505000D01*
X138049000Y-102393750D01*
X138017250Y-102362000D01*
X138049000Y-102330250D01*
X138049000Y-101219000D01*
X138303000Y-101219000D01*
X138303000Y-102330250D01*
X138334750Y-102362000D01*
X138303000Y-102393750D01*
X138303000Y-103505000D01*
X139414250Y-103505000D01*
X139573000Y-103346250D01*
X139573000Y-102743691D01*
X139476327Y-102510302D01*
X139328026Y-102362000D01*
X139476327Y-102213698D01*
X139573000Y-101980309D01*
X139573000Y-101377750D01*
X139414250Y-101219000D01*
X138303000Y-101219000D01*
X138049000Y-101219000D01*
X138029000Y-101219000D01*
X138029000Y-100965000D01*
X138049000Y-100965000D01*
X138049000Y-99853750D01*
X138303000Y-99853750D01*
X138303000Y-100965000D01*
X139414250Y-100965000D01*
X139573000Y-100806250D01*
X139573000Y-100203691D01*
X139476327Y-99970302D01*
X139297699Y-99791673D01*
X139064310Y-99695000D01*
X138461750Y-99695000D01*
X138303000Y-99853750D01*
X138049000Y-99853750D01*
X137890250Y-99695000D01*
X137287690Y-99695000D01*
X137054301Y-99791673D01*
X136903329Y-99942646D01*
X136862090Y-99878559D01*
X136649890Y-99733569D01*
X136398000Y-99682560D01*
X134874000Y-99682560D01*
X134638683Y-99726838D01*
X134422559Y-99865910D01*
X134369536Y-99943511D01*
X134217699Y-99791673D01*
X133984310Y-99695000D01*
X133381750Y-99695000D01*
X133223000Y-99853750D01*
X132969000Y-99853750D01*
X132810250Y-99695000D01*
X132207690Y-99695000D01*
X131974301Y-99791673D01*
X131795673Y-99970302D01*
X131699000Y-100203691D01*
X117804000Y-100203691D01*
X117804000Y-97484000D01*
X156516000Y-97484000D01*
X156516000Y-136196000D01*
M02*
