G04 #@! TF.FileFunction,Copper,L2,Bot,Signal*
%FSLAX46Y46*%
G04 Gerber Fmt 4.6, Leading zero omitted, Abs format (unit mm)*
G04 Created by KiCad (PCBNEW 4.0.4-stable) date 06/14/17 14:20:26*
%MOMM*%
%LPD*%
G01*
G04 APERTURE LIST*
%ADD10C,0.100000*%
%ADD11R,0.750000X0.800000*%
%ADD12R,0.800000X0.750000*%
%ADD13R,0.500000X0.900000*%
%ADD14R,0.900000X0.500000*%
%ADD15R,0.500000X0.300000*%
%ADD16R,0.300000X0.500000*%
%ADD17R,1.150000X1.150000*%
%ADD18R,0.750000X0.850000*%
%ADD19R,1.524000X1.524000*%
%ADD20C,6.000000*%
%ADD21R,1.000000X1.250000*%
%ADD22C,0.600000*%
%ADD23C,0.300000*%
%ADD24C,0.400000*%
%ADD25C,0.200000*%
%ADD26C,0.600000*%
%ADD27C,0.254000*%
G04 APERTURE END LIST*
D10*
D11*
X132270500Y-112819598D03*
X132270500Y-114319598D03*
X136334500Y-112795598D03*
X136334500Y-111295598D03*
D12*
X129210500Y-114585598D03*
X127710500Y-114585598D03*
D11*
X138899900Y-124840300D03*
X138899900Y-126340300D03*
X134721600Y-112795598D03*
X134721600Y-111295598D03*
D12*
X134822500Y-114585598D03*
X136322500Y-114585598D03*
D11*
X140652500Y-115511998D03*
X140652500Y-117011998D03*
X140652500Y-119169598D03*
X140652500Y-120669598D03*
D12*
X145466500Y-115525398D03*
X143966500Y-115525398D03*
X145466500Y-120681598D03*
X143966500Y-120681598D03*
D11*
X148526500Y-115511998D03*
X148526500Y-117011998D03*
X148526500Y-119169598D03*
X148526500Y-120669598D03*
D12*
X140640500Y-113975998D03*
X139140500Y-113975998D03*
X140640500Y-122205598D03*
X139140500Y-122205598D03*
D13*
X137616500Y-115499998D03*
X139116500Y-115499998D03*
D14*
X138874500Y-119042598D03*
X138874500Y-120542598D03*
X142430500Y-113987998D03*
X142430500Y-115487998D03*
X142430500Y-120693598D03*
X142430500Y-122193598D03*
D13*
X130722500Y-112807598D03*
X129222500Y-112807598D03*
X127710500Y-130333598D03*
X129210500Y-130333598D03*
D14*
X129476500Y-125265598D03*
X129476500Y-126765598D03*
D15*
X130730300Y-123512998D03*
X130730300Y-123012998D03*
X130730300Y-122512998D03*
X130730300Y-122012998D03*
X130730300Y-121512998D03*
X130730300Y-121012998D03*
X130730300Y-120512998D03*
X130730300Y-120012998D03*
X130730300Y-119512998D03*
X130730300Y-119012998D03*
D16*
X131480300Y-118262998D03*
X131980300Y-118262998D03*
X132480300Y-118262998D03*
X132980300Y-118262998D03*
X133480300Y-118262998D03*
X133980300Y-118262998D03*
X134480300Y-118262998D03*
X134980300Y-118262998D03*
X135480300Y-118262998D03*
X135980300Y-118262998D03*
D15*
X136730300Y-119012998D03*
X136730300Y-119512998D03*
X136730300Y-120012998D03*
X136730300Y-120512998D03*
X136730300Y-121012998D03*
X136730300Y-121512998D03*
X136730300Y-122012998D03*
X136730300Y-122512998D03*
X136730300Y-123012998D03*
X136730300Y-123512998D03*
D16*
X135980300Y-124262998D03*
X135480300Y-124262998D03*
X134980300Y-124262998D03*
X134480300Y-124262998D03*
X133980300Y-124262998D03*
X133480300Y-124262998D03*
X132980300Y-124262998D03*
X132480300Y-124262998D03*
X131980300Y-124262998D03*
X131480300Y-124262998D03*
D17*
X135455300Y-119537998D03*
X135455300Y-120687998D03*
X135455300Y-121837998D03*
X135455300Y-122987998D03*
X134305300Y-119537998D03*
X134305300Y-120687998D03*
X134305300Y-121837998D03*
X134305300Y-122987998D03*
X133155300Y-119537998D03*
X133155300Y-120687998D03*
X133155300Y-121837998D03*
X133155300Y-122987998D03*
X132005300Y-119537998D03*
X132005300Y-120687998D03*
X132005300Y-121837998D03*
X132005300Y-122987998D03*
D18*
X134914500Y-127228598D03*
X134914500Y-128578598D03*
X133864500Y-128578598D03*
X133864500Y-127228598D03*
D11*
X147002500Y-115511998D03*
X147002500Y-117011998D03*
X147002500Y-119169598D03*
X147002500Y-120669598D03*
D12*
X145466500Y-117023998D03*
X143966500Y-117023998D03*
X145466500Y-119182998D03*
X143966500Y-119182998D03*
D11*
X136601200Y-127227900D03*
X136601200Y-128727900D03*
D12*
X133806500Y-130340100D03*
X135306500Y-130340100D03*
D13*
X132004500Y-130333598D03*
X130504500Y-130333598D03*
X132004500Y-128301598D03*
X130504500Y-128301598D03*
X127710500Y-128301598D03*
X129210500Y-128301598D03*
X145454500Y-113975998D03*
X143954500Y-113975998D03*
X145466500Y-122205598D03*
X143966500Y-122205598D03*
D14*
X148526500Y-112717998D03*
X148526500Y-114217998D03*
X148526500Y-123463598D03*
X148526500Y-121963598D03*
D19*
X133096000Y-103632000D03*
X133096000Y-101092000D03*
X135636000Y-103632000D03*
X135636000Y-101092000D03*
X138176000Y-103632000D03*
X138176000Y-101092000D03*
D20*
X121920000Y-101600000D03*
X152400000Y-101600000D03*
X121920000Y-132080000D03*
X152400000Y-132080000D03*
D19*
X151523700Y-120650000D03*
X151523700Y-118110000D03*
X151523700Y-115570000D03*
D21*
X135652000Y-109220000D03*
X137652000Y-109220000D03*
D12*
X135624000Y-105918000D03*
X134124000Y-105918000D03*
X135624000Y-107442000D03*
X134124000Y-107442000D03*
D19*
X128524000Y-108966000D03*
X131064000Y-108966000D03*
X121920000Y-116840000D03*
X124460000Y-116840000D03*
X121920000Y-119380000D03*
X124460000Y-119380000D03*
X121920000Y-121920000D03*
X124460000Y-121920000D03*
X121920000Y-124460000D03*
X124460000Y-124460000D03*
X121920000Y-127000000D03*
X124460000Y-127000000D03*
X121920000Y-108458000D03*
X124460000Y-108458000D03*
X121920000Y-110998000D03*
X124460000Y-110998000D03*
X121920000Y-113538000D03*
X124460000Y-113538000D03*
D13*
X127735200Y-111201200D03*
X129235200Y-111201200D03*
D22*
X136512300Y-129882900D03*
X135102600Y-125450600D03*
X133633323Y-126373777D03*
X138379200Y-117398800D03*
X132334000Y-111506000D03*
X119380000Y-105410000D03*
X119380000Y-109220000D03*
X119380000Y-113030000D03*
X119380000Y-116840000D03*
X119380000Y-120650000D03*
X119380000Y-124460000D03*
X119380000Y-128270000D03*
X125730000Y-134620000D03*
X129540000Y-134620000D03*
X133350000Y-134620000D03*
X137160000Y-134620000D03*
X140970000Y-134620000D03*
X144780000Y-134620000D03*
X148590000Y-134620000D03*
X154940000Y-128270000D03*
X154940000Y-124460000D03*
X154940000Y-120650000D03*
X154940000Y-116840000D03*
X154940000Y-113030000D03*
X154940000Y-109220000D03*
X154940000Y-105410000D03*
X148590000Y-99060000D03*
X144780000Y-99060000D03*
X140970000Y-99060000D03*
X137160000Y-99060000D03*
X133350000Y-99060000D03*
X129540000Y-99060000D03*
X125730000Y-99060000D03*
X135455300Y-122987998D03*
X134305300Y-122987998D03*
X133155300Y-122987998D03*
X132005300Y-122987998D03*
X135455300Y-121837998D03*
X134305300Y-121837998D03*
X133155300Y-121837998D03*
X132005300Y-121837998D03*
X135455300Y-120687998D03*
X134305300Y-120687998D03*
X133155300Y-120687998D03*
X132005300Y-120687998D03*
X135455300Y-119537998D03*
X134305300Y-119537998D03*
X133155300Y-119537998D03*
X132005300Y-119537998D03*
X127762000Y-113030000D03*
X137349284Y-114550292D03*
X130746500Y-126777598D03*
X137604500Y-122205598D03*
X128790700Y-116039900D03*
X127810260Y-120995440D03*
X129730500Y-129317598D03*
X139128500Y-123221598D03*
X134130300Y-116109598D03*
X130975100Y-110998002D03*
X132794560Y-115331538D03*
X137604500Y-119665598D03*
X125984000Y-122707400D03*
X127025400Y-120472200D03*
X130721100Y-115728598D03*
X133540500Y-113061598D03*
X137604500Y-121189598D03*
D23*
X136601200Y-129794000D02*
X136512300Y-129882900D01*
X136601200Y-128727900D02*
X136601200Y-129794000D01*
X134914500Y-128578598D02*
X136451898Y-128578598D01*
X136451898Y-128578598D02*
X136601200Y-128727900D01*
X138899900Y-126340300D02*
X135992300Y-126340300D01*
X135992300Y-126340300D02*
X135102600Y-125450600D01*
X133734679Y-126373777D02*
X133633323Y-126373777D01*
X133864500Y-126503598D02*
X133734679Y-126373777D01*
X133864500Y-127228598D02*
X133864500Y-126503598D01*
X135128000Y-128792098D02*
X135128000Y-130161600D01*
X135128000Y-130161600D02*
X135306500Y-130340100D01*
X132270500Y-112819598D02*
X132270500Y-111569500D01*
X132270500Y-111569500D02*
X132334000Y-111506000D01*
X135128000Y-128792098D02*
X134914500Y-128578598D01*
X119380000Y-109220000D02*
X119380000Y-105410000D01*
X119380000Y-116840000D02*
X119380000Y-113030000D01*
X119380000Y-124460000D02*
X119380000Y-120650000D01*
X121920000Y-132080000D02*
X118920001Y-129080001D01*
X118920001Y-129080001D02*
X118920001Y-128729999D01*
X118920001Y-128729999D02*
X119380000Y-128270000D01*
X125730000Y-134620000D02*
X124460000Y-134620000D01*
X124460000Y-134620000D02*
X121920000Y-132080000D01*
X133350000Y-134620000D02*
X129540000Y-134620000D01*
X140970000Y-134620000D02*
X137160000Y-134620000D01*
X148590000Y-134620000D02*
X144780000Y-134620000D01*
X154940000Y-124460000D02*
X154940000Y-128270000D01*
X154940000Y-116840000D02*
X154940000Y-120650000D01*
X154940000Y-109220000D02*
X154940000Y-113030000D01*
X152400000Y-101600000D02*
X155399999Y-104599999D01*
X155399999Y-104599999D02*
X155399999Y-104950001D01*
X155399999Y-104950001D02*
X154940000Y-105410000D01*
X148590000Y-99060000D02*
X149860000Y-99060000D01*
X149860000Y-99060000D02*
X152400000Y-101600000D01*
X140970000Y-99060000D02*
X144780000Y-99060000D01*
X133350000Y-99060000D02*
X137160000Y-99060000D01*
X125730000Y-99060000D02*
X129540000Y-99060000D01*
D24*
X127710500Y-114585598D02*
X127710500Y-113081500D01*
X127710500Y-113081500D02*
X127762000Y-113030000D01*
D25*
X136322500Y-114585598D02*
X137313978Y-114585598D01*
X137313978Y-114585598D02*
X137349284Y-114550292D01*
D23*
X130730300Y-119512998D02*
X131980300Y-119512998D01*
X131980300Y-119512998D02*
X132005300Y-119537998D01*
X130730300Y-122012998D02*
X131830300Y-122012998D01*
X131830300Y-122012998D02*
X132005300Y-121837998D01*
X136730300Y-122012998D02*
X135630300Y-122012998D01*
X135630300Y-122012998D02*
X135455300Y-121837998D01*
X135480300Y-118262998D02*
X135480300Y-119512998D01*
X135480300Y-119512998D02*
X135455300Y-119537998D01*
X129476500Y-126765598D02*
X130734500Y-126765598D01*
X130734500Y-126765598D02*
X130746500Y-126777598D01*
X130504500Y-128301598D02*
X130504500Y-127019598D01*
X130504500Y-127019598D02*
X130746500Y-126777598D01*
X129210500Y-128301598D02*
X129210500Y-127031598D01*
X129210500Y-127031598D02*
X129476500Y-126765598D01*
X136730300Y-122012998D02*
X137411900Y-122012998D01*
X137411900Y-122012998D02*
X137604500Y-122205598D01*
X129090699Y-115739901D02*
X128790700Y-116039900D01*
X129210500Y-114585598D02*
X129210500Y-115620100D01*
X129210500Y-115620100D02*
X129090699Y-115739901D01*
X129210500Y-114585598D02*
X129185500Y-114585598D01*
X129185500Y-114585598D02*
X128498600Y-113898698D01*
X128498600Y-113898698D02*
X128498600Y-108991400D01*
X128498600Y-108991400D02*
X128524000Y-108966000D01*
X124460000Y-121920000D02*
X126885700Y-121920000D01*
X126885700Y-121920000D02*
X127810260Y-120995440D01*
X127827818Y-121012998D02*
X127810260Y-120995440D01*
X130730300Y-121012998D02*
X127827818Y-121012998D01*
X121920000Y-121920000D02*
X124460000Y-121920000D01*
X129730500Y-129317598D02*
X130504500Y-130091598D01*
X130504500Y-130091598D02*
X130504500Y-130333598D01*
X129210500Y-130333598D02*
X129210500Y-129837598D01*
X129210500Y-129837598D02*
X129730500Y-129317598D01*
X129222500Y-114573598D02*
X129210500Y-114585598D01*
X138899900Y-124840300D02*
X138594400Y-124840300D01*
X138594400Y-124840300D02*
X137267098Y-123512998D01*
X137267098Y-123512998D02*
X137166898Y-123512998D01*
X137166898Y-123512998D02*
X136730300Y-123512998D01*
X136730300Y-123512998D02*
X136867900Y-123512998D01*
X136730300Y-123012998D02*
X136730300Y-123512998D01*
X136730300Y-122512998D02*
X136730300Y-123012998D01*
X134480300Y-118262998D02*
X134480300Y-116721600D01*
X134480300Y-116721600D02*
X134822500Y-116379400D01*
X134822500Y-115430200D02*
X134822500Y-114585598D01*
X134822500Y-116379400D02*
X134822500Y-115430200D01*
X133480300Y-118262998D02*
X133480300Y-114268796D01*
X133480300Y-114268796D02*
X134179498Y-113569598D01*
X134179498Y-113569598D02*
X138734100Y-113569598D01*
X138734100Y-113569598D02*
X139140500Y-113975998D01*
X139140500Y-122205598D02*
X139140500Y-123209598D01*
X139140500Y-123209598D02*
X139128500Y-123221598D01*
X133980300Y-118262998D02*
X133980300Y-116259598D01*
X133980300Y-116259598D02*
X134130300Y-116109598D01*
X140652500Y-115511998D02*
X139128500Y-115511998D01*
X139128500Y-115511998D02*
X139116500Y-115499998D01*
X140652500Y-115511998D02*
X142406500Y-115511998D01*
X142406500Y-115511998D02*
X142430500Y-115487998D01*
X143966500Y-115499998D02*
X143966500Y-117023998D01*
X142430500Y-115487998D02*
X143954500Y-115487998D01*
X143954500Y-115487998D02*
X143966500Y-115499998D01*
X148526500Y-115511998D02*
X148526500Y-114217998D01*
X147002500Y-115511998D02*
X148526500Y-115511998D01*
X145466500Y-115499998D02*
X146990500Y-115499998D01*
X146990500Y-115499998D02*
X147002500Y-115511998D01*
X145466500Y-115499998D02*
X145466500Y-113987998D01*
X145466500Y-113987998D02*
X145454500Y-113975998D01*
X145466500Y-117023998D02*
X145466500Y-115499998D01*
X134980300Y-118262998D02*
X134980300Y-117687798D01*
X134980300Y-117687798D02*
X137066500Y-115601598D01*
X137066500Y-115601598D02*
X137616500Y-115601598D01*
X136730300Y-119012998D02*
X138844900Y-119012998D01*
X138844900Y-119012998D02*
X138874500Y-119042598D01*
X131275099Y-111298001D02*
X130975100Y-110998002D01*
X131470400Y-111493302D02*
X131275099Y-111298001D01*
X131470400Y-113494498D02*
X131470400Y-111493302D01*
X132270500Y-114294598D02*
X131470400Y-113494498D01*
X132270500Y-114319598D02*
X132270500Y-114294598D01*
X121920000Y-108458000D02*
X124460000Y-108458000D01*
X132794560Y-115331538D02*
X132794560Y-114843658D01*
X132794560Y-114843658D02*
X132270500Y-114319598D01*
X132980300Y-115729398D02*
X132980300Y-115517278D01*
X132980300Y-115517278D02*
X132794560Y-115331538D01*
X132980300Y-117712998D02*
X132980300Y-118262998D01*
X132980300Y-115729398D02*
X132980300Y-117712998D01*
X136730300Y-119512998D02*
X137451900Y-119512998D01*
X137451900Y-119512998D02*
X137604500Y-119665598D01*
X130730300Y-120012998D02*
X130172998Y-120012998D01*
X130172998Y-120012998D02*
X124460000Y-114300000D01*
X124460000Y-114300000D02*
X124460000Y-113538000D01*
X124460000Y-113538000D02*
X121920000Y-113538000D01*
X127735200Y-111201200D02*
X126238000Y-111201200D01*
X126238000Y-111201200D02*
X126187200Y-111252000D01*
X130730300Y-119012998D02*
X130188998Y-119012998D01*
X130188998Y-119012998D02*
X126187200Y-115011200D01*
X126187200Y-115011200D02*
X126187200Y-111252000D01*
X126187200Y-111252000D02*
X126136400Y-111201200D01*
X126136400Y-111201200D02*
X124663200Y-111201200D01*
X124663200Y-111201200D02*
X124460000Y-110998000D01*
X124460000Y-110875998D02*
X124460000Y-110998000D01*
X124460000Y-110998000D02*
X121920000Y-110998000D01*
X127682604Y-122707400D02*
X126408264Y-122707400D01*
X130730300Y-121512998D02*
X128877006Y-121512998D01*
X126408264Y-122707400D02*
X125984000Y-122707400D01*
X128877006Y-121512998D02*
X127682604Y-122707400D01*
X130730300Y-120512998D02*
X128894998Y-120512998D01*
X128554201Y-120172201D02*
X127325399Y-120172201D01*
X128894998Y-120512998D02*
X128554201Y-120172201D01*
X127325399Y-120172201D02*
X127025400Y-120472200D01*
X143966500Y-120681598D02*
X143966500Y-119169598D01*
X143966500Y-119169598D02*
X143954500Y-119157598D01*
X142430500Y-120693598D02*
X143954500Y-120693598D01*
X143954500Y-120693598D02*
X143966500Y-120681598D01*
X140652500Y-120669598D02*
X142406500Y-120669598D01*
X142406500Y-120669598D02*
X142430500Y-120693598D01*
X138874500Y-120542598D02*
X140525500Y-120542598D01*
X140525500Y-120542598D02*
X140652500Y-120669598D01*
X148526500Y-120669598D02*
X148526500Y-121963598D01*
X147002500Y-120669598D02*
X148526500Y-120669598D01*
X145466500Y-120681598D02*
X146990500Y-120681598D01*
X146990500Y-120681598D02*
X147002500Y-120669598D01*
X145466500Y-120681598D02*
X145466500Y-119169598D01*
X145466500Y-119169598D02*
X145454500Y-119157598D01*
X145466500Y-122205598D02*
X145466500Y-120681598D01*
X142430500Y-113987998D02*
X140652500Y-113987998D01*
X140652500Y-113987998D02*
X140640500Y-113975998D01*
X142418500Y-113975998D02*
X142430500Y-113987998D01*
X142430500Y-113987998D02*
X143942500Y-113987998D01*
X143942500Y-113987998D02*
X143954500Y-113975998D01*
X142430500Y-122193598D02*
X143954500Y-122193598D01*
X143954500Y-122193598D02*
X143966500Y-122205598D01*
X140640500Y-122205598D02*
X142418500Y-122205598D01*
X142418500Y-122205598D02*
X142430500Y-122193598D01*
X134914500Y-127228598D02*
X136600502Y-127228598D01*
X136600502Y-127228598D02*
X136601200Y-127227900D01*
X134914500Y-127228598D02*
X134683500Y-126997598D01*
X134683500Y-126504700D02*
X133480300Y-125301500D01*
X134683500Y-126997598D02*
X134683500Y-126504700D01*
X133480300Y-125301500D02*
X133480300Y-124262998D01*
X133709398Y-128578598D02*
X132980300Y-127849500D01*
X132980300Y-127849500D02*
X132980300Y-124812998D01*
X132980300Y-124812998D02*
X132980300Y-124262998D01*
X133864500Y-128578598D02*
X133864500Y-130282100D01*
X133864500Y-130282100D02*
X133806500Y-130340100D01*
X133709398Y-128578598D02*
X133864500Y-128578598D01*
X133806500Y-128636598D02*
X133864500Y-128578598D01*
X133864500Y-128528598D02*
X133864500Y-128578598D01*
X151523700Y-115515198D02*
X151523700Y-115677798D01*
X148526500Y-112717998D02*
X148726500Y-112717998D01*
X148726500Y-112717998D02*
X151523700Y-115515198D01*
X148526500Y-123463598D02*
X148726500Y-123463598D01*
X148726500Y-123463598D02*
X151432300Y-120757798D01*
X151432300Y-120757798D02*
X151523700Y-120757798D01*
X127710500Y-130333598D02*
X127710500Y-128301598D01*
X130730300Y-122512998D02*
X129973180Y-122512998D01*
X127710500Y-124775678D02*
X127710500Y-127551598D01*
X129973180Y-122512998D02*
X127710500Y-124775678D01*
X127710500Y-127551598D02*
X127710500Y-128301598D01*
X130730300Y-123012998D02*
X130180300Y-123012998D01*
X129476500Y-123716798D02*
X129476500Y-124715598D01*
X130180300Y-123012998D02*
X129476500Y-123716798D01*
X129476500Y-124715598D02*
X129476500Y-125265598D01*
X132004500Y-128301598D02*
X132004500Y-126003598D01*
X132004500Y-126003598D02*
X130730300Y-124729398D01*
X130730300Y-124729398D02*
X130730300Y-123512998D01*
X132004500Y-128301598D02*
X132004500Y-130333598D01*
D26*
X133553200Y-109220000D02*
X131318000Y-109220000D01*
X131318000Y-109220000D02*
X131064000Y-108966000D01*
D23*
X129222500Y-112807598D02*
X129222500Y-111213900D01*
X129222500Y-111213900D02*
X129235200Y-111201200D01*
D26*
X134721600Y-112795598D02*
X136334500Y-112795598D01*
X133540500Y-113061598D02*
X133806500Y-112795598D01*
X133806500Y-112795598D02*
X134721600Y-112795598D01*
X135652000Y-109220000D02*
X133553200Y-109220000D01*
X133540500Y-113061598D02*
X133540500Y-112637334D01*
X133540500Y-112637334D02*
X133553200Y-112624634D01*
X133553200Y-112624634D02*
X133553200Y-109220000D01*
X135624000Y-107442000D02*
X135624000Y-109192000D01*
X135624000Y-109192000D02*
X135652000Y-109220000D01*
X135624000Y-105918000D02*
X135624000Y-107442000D01*
X135636000Y-103632000D02*
X135636000Y-105906000D01*
X135636000Y-105906000D02*
X135624000Y-105918000D01*
D23*
X135398000Y-108966000D02*
X135652000Y-109220000D01*
X133540500Y-113061598D02*
X133604000Y-112998098D01*
X134721600Y-112795598D02*
X134721600Y-112928400D01*
X134721600Y-112928400D02*
X134620000Y-113030000D01*
X133572098Y-113030000D02*
X133540500Y-113061598D01*
X129222500Y-112807598D02*
X129222500Y-113007598D01*
X129222500Y-113007598D02*
X130222490Y-114007588D01*
X130222490Y-114007588D02*
X130222490Y-115229988D01*
X130222490Y-115229988D02*
X130421101Y-115428599D01*
X130421101Y-115428599D02*
X130721100Y-115728598D01*
X131980300Y-116987798D02*
X131021099Y-116028597D01*
X131021099Y-116028597D02*
X130721100Y-115728598D01*
X131980300Y-118262998D02*
X131980300Y-116987798D01*
X136730300Y-121512998D02*
X137281100Y-121512998D01*
X137281100Y-121512998D02*
X137604500Y-121189598D01*
X132480300Y-118262998D02*
X132480300Y-116173500D01*
X132480300Y-116173500D02*
X130722500Y-114415700D01*
X130722500Y-114415700D02*
X130722500Y-113557598D01*
X130722500Y-113557598D02*
X130722500Y-112807598D01*
X130734500Y-112795598D02*
X130722500Y-112807598D01*
D27*
G36*
X156516000Y-136196000D02*
X117804000Y-136196000D01*
X117804000Y-127285750D01*
X120523000Y-127285750D01*
X120523000Y-127888310D01*
X120619673Y-128121699D01*
X120798302Y-128300327D01*
X121031691Y-128397000D01*
X121634250Y-128397000D01*
X121793000Y-128238250D01*
X121793000Y-127127000D01*
X122047000Y-127127000D01*
X122047000Y-128238250D01*
X122205750Y-128397000D01*
X122808309Y-128397000D01*
X123041698Y-128300327D01*
X123190000Y-128152026D01*
X123338302Y-128300327D01*
X123571691Y-128397000D01*
X124174250Y-128397000D01*
X124333000Y-128238250D01*
X124333000Y-127127000D01*
X124587000Y-127127000D01*
X124587000Y-128238250D01*
X124745750Y-128397000D01*
X125348309Y-128397000D01*
X125581698Y-128300327D01*
X125760327Y-128121699D01*
X125857000Y-127888310D01*
X125857000Y-127285750D01*
X125698250Y-127127000D01*
X124587000Y-127127000D01*
X124333000Y-127127000D01*
X123221750Y-127127000D01*
X123190000Y-127158750D01*
X123158250Y-127127000D01*
X122047000Y-127127000D01*
X121793000Y-127127000D01*
X120681750Y-127127000D01*
X120523000Y-127285750D01*
X117804000Y-127285750D01*
X117804000Y-115951690D01*
X120523000Y-115951690D01*
X120523000Y-116554250D01*
X120681750Y-116713000D01*
X121793000Y-116713000D01*
X121793000Y-115601750D01*
X122047000Y-115601750D01*
X122047000Y-116713000D01*
X123158250Y-116713000D01*
X123190000Y-116681250D01*
X123221750Y-116713000D01*
X124333000Y-116713000D01*
X124333000Y-115601750D01*
X124174250Y-115443000D01*
X123571691Y-115443000D01*
X123338302Y-115539673D01*
X123190000Y-115687974D01*
X123041698Y-115539673D01*
X122808309Y-115443000D01*
X122205750Y-115443000D01*
X122047000Y-115601750D01*
X121793000Y-115601750D01*
X121634250Y-115443000D01*
X121031691Y-115443000D01*
X120798302Y-115539673D01*
X120619673Y-115718301D01*
X120523000Y-115951690D01*
X117804000Y-115951690D01*
X117804000Y-107696000D01*
X120510560Y-107696000D01*
X120510560Y-109220000D01*
X120554838Y-109455317D01*
X120693910Y-109671441D01*
X120775770Y-109727374D01*
X120706559Y-109771910D01*
X120561569Y-109984110D01*
X120510560Y-110236000D01*
X120510560Y-111760000D01*
X120554838Y-111995317D01*
X120693910Y-112211441D01*
X120775770Y-112267374D01*
X120706559Y-112311910D01*
X120561569Y-112524110D01*
X120510560Y-112776000D01*
X120510560Y-114300000D01*
X120554838Y-114535317D01*
X120693910Y-114751441D01*
X120906110Y-114896431D01*
X121158000Y-114947440D01*
X122682000Y-114947440D01*
X122917317Y-114903162D01*
X123133441Y-114764090D01*
X123189374Y-114682230D01*
X123233910Y-114751441D01*
X123446110Y-114896431D01*
X123698000Y-114947440D01*
X123997282Y-114947440D01*
X124619296Y-115569454D01*
X124587000Y-115601750D01*
X124587000Y-116713000D01*
X125698250Y-116713000D01*
X125730546Y-116680704D01*
X128437043Y-119387201D01*
X127325399Y-119387201D01*
X127024993Y-119446956D01*
X126890110Y-119537081D01*
X126840233Y-119537038D01*
X126496457Y-119679083D01*
X126233208Y-119941873D01*
X126090562Y-120285401D01*
X126090238Y-120657367D01*
X126232283Y-121001143D01*
X126365907Y-121135000D01*
X125865112Y-121135000D01*
X125825162Y-120922683D01*
X125686090Y-120706559D01*
X125604230Y-120650626D01*
X125673441Y-120606090D01*
X125818431Y-120393890D01*
X125869440Y-120142000D01*
X125869440Y-118618000D01*
X125825162Y-118382683D01*
X125686090Y-118166559D01*
X125608489Y-118113536D01*
X125760327Y-117961699D01*
X125857000Y-117728310D01*
X125857000Y-117125750D01*
X125698250Y-116967000D01*
X124587000Y-116967000D01*
X124587000Y-116987000D01*
X124333000Y-116987000D01*
X124333000Y-116967000D01*
X123221750Y-116967000D01*
X123190000Y-116998750D01*
X123158250Y-116967000D01*
X122047000Y-116967000D01*
X122047000Y-116987000D01*
X121793000Y-116987000D01*
X121793000Y-116967000D01*
X120681750Y-116967000D01*
X120523000Y-117125750D01*
X120523000Y-117728310D01*
X120619673Y-117961699D01*
X120770646Y-118112671D01*
X120706559Y-118153910D01*
X120561569Y-118366110D01*
X120510560Y-118618000D01*
X120510560Y-120142000D01*
X120554838Y-120377317D01*
X120693910Y-120593441D01*
X120775770Y-120649374D01*
X120706559Y-120693910D01*
X120561569Y-120906110D01*
X120510560Y-121158000D01*
X120510560Y-122682000D01*
X120554838Y-122917317D01*
X120693910Y-123133441D01*
X120775770Y-123189374D01*
X120706559Y-123233910D01*
X120561569Y-123446110D01*
X120510560Y-123698000D01*
X120510560Y-125222000D01*
X120554838Y-125457317D01*
X120693910Y-125673441D01*
X120771511Y-125726464D01*
X120619673Y-125878301D01*
X120523000Y-126111690D01*
X120523000Y-126714250D01*
X120681750Y-126873000D01*
X121793000Y-126873000D01*
X121793000Y-126853000D01*
X122047000Y-126853000D01*
X122047000Y-126873000D01*
X123158250Y-126873000D01*
X123190000Y-126841250D01*
X123221750Y-126873000D01*
X124333000Y-126873000D01*
X124333000Y-126853000D01*
X124587000Y-126853000D01*
X124587000Y-126873000D01*
X125698250Y-126873000D01*
X125857000Y-126714250D01*
X125857000Y-126111690D01*
X125760327Y-125878301D01*
X125609354Y-125727329D01*
X125673441Y-125686090D01*
X125818431Y-125473890D01*
X125869440Y-125222000D01*
X125869440Y-123698000D01*
X125858958Y-123642292D01*
X126169167Y-123642562D01*
X126512943Y-123500517D01*
X126521074Y-123492400D01*
X127682604Y-123492400D01*
X127933533Y-123442487D01*
X127155421Y-124220599D01*
X126985255Y-124475271D01*
X126965168Y-124576255D01*
X126925500Y-124775678D01*
X126925500Y-127509801D01*
X126864069Y-127599708D01*
X126813060Y-127851598D01*
X126813060Y-128751598D01*
X126857338Y-128986915D01*
X126925500Y-129092842D01*
X126925500Y-129541801D01*
X126864069Y-129631708D01*
X126813060Y-129883598D01*
X126813060Y-130783598D01*
X126857338Y-131018915D01*
X126996410Y-131235039D01*
X127208610Y-131380029D01*
X127460500Y-131431038D01*
X127960500Y-131431038D01*
X128195817Y-131386760D01*
X128411941Y-131247688D01*
X128459634Y-131177887D01*
X128496410Y-131235039D01*
X128708610Y-131380029D01*
X128960500Y-131431038D01*
X129460500Y-131431038D01*
X129695817Y-131386760D01*
X129858887Y-131281827D01*
X130002610Y-131380029D01*
X130254500Y-131431038D01*
X130754500Y-131431038D01*
X130989817Y-131386760D01*
X131205941Y-131247688D01*
X131253634Y-131177887D01*
X131290410Y-131235039D01*
X131502610Y-131380029D01*
X131754500Y-131431038D01*
X132254500Y-131431038D01*
X132489817Y-131386760D01*
X132705941Y-131247688D01*
X132850931Y-131035488D01*
X132852642Y-131027038D01*
X132942410Y-131166541D01*
X133154610Y-131311531D01*
X133406500Y-131362540D01*
X134206500Y-131362540D01*
X134441817Y-131318262D01*
X134545146Y-131251771D01*
X134546802Y-131253427D01*
X134780191Y-131350100D01*
X135020750Y-131350100D01*
X135179500Y-131191350D01*
X135179500Y-130467100D01*
X135433500Y-130467100D01*
X135433500Y-131191350D01*
X135592250Y-131350100D01*
X135832809Y-131350100D01*
X136066198Y-131253427D01*
X136244827Y-131074799D01*
X136341500Y-130841410D01*
X136341500Y-130625850D01*
X136182750Y-130467100D01*
X135433500Y-130467100D01*
X135179500Y-130467100D01*
X135159500Y-130467100D01*
X135159500Y-130213100D01*
X135179500Y-130213100D01*
X135179500Y-130193100D01*
X135433500Y-130193100D01*
X135433500Y-130213100D01*
X136182750Y-130213100D01*
X136341500Y-130054350D01*
X136341500Y-129838790D01*
X136310065Y-129762900D01*
X136315450Y-129762900D01*
X136474200Y-129604150D01*
X136474200Y-128854900D01*
X136728200Y-128854900D01*
X136728200Y-129604150D01*
X136886950Y-129762900D01*
X137102510Y-129762900D01*
X137335899Y-129666227D01*
X137514527Y-129487598D01*
X137611200Y-129254209D01*
X137611200Y-129013650D01*
X137452450Y-128854900D01*
X136728200Y-128854900D01*
X136474200Y-128854900D01*
X136454200Y-128854900D01*
X136454200Y-128600900D01*
X136474200Y-128600900D01*
X136474200Y-128580900D01*
X136728200Y-128580900D01*
X136728200Y-128600900D01*
X137452450Y-128600900D01*
X137611200Y-128442150D01*
X137611200Y-128201591D01*
X137514527Y-127968202D01*
X137513157Y-127966832D01*
X137572631Y-127879790D01*
X137623640Y-127627900D01*
X137623640Y-126827900D01*
X137585660Y-126626050D01*
X137889900Y-126626050D01*
X137889900Y-126866609D01*
X137986573Y-127099998D01*
X138165201Y-127278627D01*
X138398590Y-127375300D01*
X138614150Y-127375300D01*
X138772900Y-127216550D01*
X138772900Y-126467300D01*
X139026900Y-126467300D01*
X139026900Y-127216550D01*
X139185650Y-127375300D01*
X139401210Y-127375300D01*
X139634599Y-127278627D01*
X139813227Y-127099998D01*
X139909900Y-126866609D01*
X139909900Y-126626050D01*
X139751150Y-126467300D01*
X139026900Y-126467300D01*
X138772900Y-126467300D01*
X138048650Y-126467300D01*
X137889900Y-126626050D01*
X137585660Y-126626050D01*
X137579362Y-126592583D01*
X137440290Y-126376459D01*
X137228090Y-126231469D01*
X136976200Y-126180460D01*
X136226200Y-126180460D01*
X135990883Y-126224738D01*
X135774759Y-126363810D01*
X135767719Y-126374114D01*
X135753590Y-126352157D01*
X135541390Y-126207167D01*
X135390208Y-126176552D01*
X135238579Y-125949621D01*
X134449396Y-125160438D01*
X134630300Y-125160438D01*
X134733971Y-125140931D01*
X134830300Y-125160438D01*
X135130300Y-125160438D01*
X135233971Y-125140931D01*
X135330300Y-125160438D01*
X135630300Y-125160438D01*
X135733971Y-125140931D01*
X135830300Y-125160438D01*
X136130300Y-125160438D01*
X136365617Y-125116160D01*
X136581741Y-124977088D01*
X136726731Y-124764888D01*
X136777740Y-124512998D01*
X136777740Y-124310438D01*
X136954380Y-124310438D01*
X137877460Y-125233517D01*
X137877460Y-125240300D01*
X137921738Y-125475617D01*
X137988229Y-125578946D01*
X137986573Y-125580602D01*
X137889900Y-125813991D01*
X137889900Y-126054550D01*
X138048650Y-126213300D01*
X138772900Y-126213300D01*
X138772900Y-126193300D01*
X139026900Y-126193300D01*
X139026900Y-126213300D01*
X139751150Y-126213300D01*
X139909900Y-126054550D01*
X139909900Y-125813991D01*
X139813227Y-125580602D01*
X139811857Y-125579232D01*
X139871331Y-125492190D01*
X139922340Y-125240300D01*
X139922340Y-124440300D01*
X139878062Y-124204983D01*
X139738990Y-123988859D01*
X139705955Y-123966287D01*
X139920692Y-123751925D01*
X140063338Y-123408397D01*
X140063526Y-123192200D01*
X140240500Y-123228038D01*
X141040500Y-123228038D01*
X141275817Y-123183760D01*
X141491941Y-123044688D01*
X141528899Y-122990598D01*
X141656265Y-122990598D01*
X141728610Y-123040029D01*
X141980500Y-123091038D01*
X142880500Y-123091038D01*
X143115817Y-123046760D01*
X143184982Y-123002253D01*
X143252410Y-123107039D01*
X143464610Y-123252029D01*
X143716500Y-123303038D01*
X144216500Y-123303038D01*
X144451817Y-123258760D01*
X144667941Y-123119688D01*
X144715634Y-123049887D01*
X144752410Y-123107039D01*
X144964610Y-123252029D01*
X145216500Y-123303038D01*
X145716500Y-123303038D01*
X145951817Y-123258760D01*
X146167941Y-123119688D01*
X146312931Y-122907488D01*
X146363940Y-122655598D01*
X146363940Y-121755598D01*
X146342878Y-121643664D01*
X146375610Y-121666029D01*
X146627500Y-121717038D01*
X147377500Y-121717038D01*
X147430378Y-121707088D01*
X147429060Y-121713598D01*
X147429060Y-122213598D01*
X147473338Y-122448915D01*
X147612410Y-122665039D01*
X147682211Y-122712732D01*
X147625059Y-122749508D01*
X147480069Y-122961708D01*
X147429060Y-123213598D01*
X147429060Y-123713598D01*
X147473338Y-123948915D01*
X147612410Y-124165039D01*
X147824610Y-124310029D01*
X148076500Y-124361038D01*
X148976500Y-124361038D01*
X149211817Y-124316760D01*
X149427941Y-124177688D01*
X149572931Y-123965488D01*
X149623940Y-123713598D01*
X149623940Y-123676316D01*
X151240816Y-122059440D01*
X152285700Y-122059440D01*
X152521017Y-122015162D01*
X152737141Y-121876090D01*
X152882131Y-121663890D01*
X152933140Y-121412000D01*
X152933140Y-119888000D01*
X152888862Y-119652683D01*
X152749790Y-119436559D01*
X152672189Y-119383536D01*
X152824027Y-119231699D01*
X152920700Y-118998310D01*
X152920700Y-118395750D01*
X152761950Y-118237000D01*
X151650700Y-118237000D01*
X151650700Y-118257000D01*
X151396700Y-118257000D01*
X151396700Y-118237000D01*
X150285450Y-118237000D01*
X150126700Y-118395750D01*
X150126700Y-118998310D01*
X150223373Y-119231699D01*
X150374346Y-119382671D01*
X150310259Y-119423910D01*
X150165269Y-119636110D01*
X150114260Y-119888000D01*
X150114260Y-120965680D01*
X149583146Y-121496794D01*
X149579662Y-121478281D01*
X149488062Y-121335931D01*
X149497931Y-121321488D01*
X149548940Y-121069598D01*
X149548940Y-120269598D01*
X149504662Y-120034281D01*
X149438171Y-119930952D01*
X149439827Y-119929296D01*
X149536500Y-119695907D01*
X149536500Y-119455348D01*
X149377750Y-119296598D01*
X148653500Y-119296598D01*
X148653500Y-119316598D01*
X148399500Y-119316598D01*
X148399500Y-119296598D01*
X147129500Y-119296598D01*
X147129500Y-119316598D01*
X146875500Y-119316598D01*
X146875500Y-119296598D01*
X146855500Y-119296598D01*
X146855500Y-119042598D01*
X146875500Y-119042598D01*
X146875500Y-118293348D01*
X147129500Y-118293348D01*
X147129500Y-119042598D01*
X148399500Y-119042598D01*
X148399500Y-118293348D01*
X148653500Y-118293348D01*
X148653500Y-119042598D01*
X149377750Y-119042598D01*
X149536500Y-118883848D01*
X149536500Y-118643289D01*
X149439827Y-118409900D01*
X149261199Y-118231271D01*
X149027810Y-118134598D01*
X148812250Y-118134598D01*
X148653500Y-118293348D01*
X148399500Y-118293348D01*
X148240750Y-118134598D01*
X148025190Y-118134598D01*
X147791801Y-118231271D01*
X147764500Y-118258572D01*
X147737199Y-118231271D01*
X147503810Y-118134598D01*
X147288250Y-118134598D01*
X147129500Y-118293348D01*
X146875500Y-118293348D01*
X146716750Y-118134598D01*
X146501190Y-118134598D01*
X146267801Y-118231271D01*
X146218858Y-118280214D01*
X146118390Y-118211567D01*
X145866500Y-118160558D01*
X145066500Y-118160558D01*
X144831183Y-118204836D01*
X144716522Y-118278618D01*
X144618390Y-118211567D01*
X144366500Y-118160558D01*
X143566500Y-118160558D01*
X143331183Y-118204836D01*
X143115059Y-118343908D01*
X142970069Y-118556108D01*
X142919060Y-118807998D01*
X142919060Y-119557998D01*
X142963338Y-119793315D01*
X142977853Y-119815873D01*
X142880500Y-119796158D01*
X141980500Y-119796158D01*
X141745183Y-119840436D01*
X141676553Y-119884598D01*
X141584342Y-119884598D01*
X141662500Y-119695907D01*
X141662500Y-119455348D01*
X141503750Y-119296598D01*
X140779500Y-119296598D01*
X140779500Y-119316598D01*
X140525500Y-119316598D01*
X140525500Y-119296598D01*
X140505500Y-119296598D01*
X140505500Y-119042598D01*
X140525500Y-119042598D01*
X140525500Y-118293348D01*
X140779500Y-118293348D01*
X140779500Y-119042598D01*
X141503750Y-119042598D01*
X141662500Y-118883848D01*
X141662500Y-118643289D01*
X141565827Y-118409900D01*
X141387199Y-118231271D01*
X141153810Y-118134598D01*
X140938250Y-118134598D01*
X140779500Y-118293348D01*
X140525500Y-118293348D01*
X140366750Y-118134598D01*
X140151190Y-118134598D01*
X139917801Y-118231271D01*
X139796157Y-118352916D01*
X139788590Y-118341157D01*
X139576390Y-118196167D01*
X139324500Y-118145158D01*
X138424500Y-118145158D01*
X138189183Y-118189436D01*
X138129256Y-118227998D01*
X137041731Y-118227998D01*
X136980300Y-118215558D01*
X136777740Y-118215558D01*
X136777740Y-118012998D01*
X136733462Y-117777681D01*
X136594390Y-117561557D01*
X136382190Y-117416567D01*
X136365141Y-117413115D01*
X136480508Y-117297748D01*
X139642500Y-117297748D01*
X139642500Y-117538307D01*
X139739173Y-117771696D01*
X139917801Y-117950325D01*
X140151190Y-118046998D01*
X140366750Y-118046998D01*
X140525500Y-117888248D01*
X140525500Y-117138998D01*
X140779500Y-117138998D01*
X140779500Y-117888248D01*
X140938250Y-118046998D01*
X141153810Y-118046998D01*
X141387199Y-117950325D01*
X141565827Y-117771696D01*
X141662500Y-117538307D01*
X141662500Y-117297748D01*
X141503750Y-117138998D01*
X140779500Y-117138998D01*
X140525500Y-117138998D01*
X139801250Y-117138998D01*
X139642500Y-117297748D01*
X136480508Y-117297748D01*
X137212087Y-116566169D01*
X137366500Y-116597438D01*
X137866500Y-116597438D01*
X138101817Y-116553160D01*
X138317941Y-116414088D01*
X138365634Y-116344287D01*
X138402410Y-116401439D01*
X138614610Y-116546429D01*
X138866500Y-116597438D01*
X139366500Y-116597438D01*
X139601817Y-116553160D01*
X139642500Y-116526981D01*
X139642500Y-116726248D01*
X139801250Y-116884998D01*
X140525500Y-116884998D01*
X140525500Y-116864998D01*
X140779500Y-116864998D01*
X140779500Y-116884998D01*
X141503750Y-116884998D01*
X141662500Y-116726248D01*
X141662500Y-116485689D01*
X141584342Y-116296998D01*
X141673828Y-116296998D01*
X141728610Y-116334429D01*
X141980500Y-116385438D01*
X142880500Y-116385438D01*
X142992434Y-116364376D01*
X142970069Y-116397108D01*
X142919060Y-116648998D01*
X142919060Y-117398998D01*
X142963338Y-117634315D01*
X143102410Y-117850439D01*
X143314610Y-117995429D01*
X143566500Y-118046438D01*
X144366500Y-118046438D01*
X144601817Y-118002160D01*
X144716478Y-117928378D01*
X144814610Y-117995429D01*
X145066500Y-118046438D01*
X145866500Y-118046438D01*
X146101817Y-118002160D01*
X146234352Y-117916876D01*
X146267801Y-117950325D01*
X146501190Y-118046998D01*
X146716750Y-118046998D01*
X146875500Y-117888248D01*
X146875500Y-117138998D01*
X147129500Y-117138998D01*
X147129500Y-117888248D01*
X147288250Y-118046998D01*
X147503810Y-118046998D01*
X147737199Y-117950325D01*
X147764500Y-117923024D01*
X147791801Y-117950325D01*
X148025190Y-118046998D01*
X148240750Y-118046998D01*
X148399500Y-117888248D01*
X148399500Y-117138998D01*
X148653500Y-117138998D01*
X148653500Y-117888248D01*
X148812250Y-118046998D01*
X149027810Y-118046998D01*
X149261199Y-117950325D01*
X149439827Y-117771696D01*
X149536500Y-117538307D01*
X149536500Y-117297748D01*
X149377750Y-117138998D01*
X148653500Y-117138998D01*
X148399500Y-117138998D01*
X147129500Y-117138998D01*
X146875500Y-117138998D01*
X146855500Y-117138998D01*
X146855500Y-116884998D01*
X146875500Y-116884998D01*
X146875500Y-116864998D01*
X147129500Y-116864998D01*
X147129500Y-116884998D01*
X148399500Y-116884998D01*
X148399500Y-116864998D01*
X148653500Y-116864998D01*
X148653500Y-116884998D01*
X149377750Y-116884998D01*
X149536500Y-116726248D01*
X149536500Y-116485689D01*
X149439827Y-116252300D01*
X149438457Y-116250930D01*
X149497931Y-116163888D01*
X149548940Y-115911998D01*
X149548940Y-115111998D01*
X149504662Y-114876681D01*
X149485813Y-114847389D01*
X149572931Y-114719888D01*
X149580560Y-114682216D01*
X150114260Y-115215916D01*
X150114260Y-116332000D01*
X150158538Y-116567317D01*
X150297610Y-116783441D01*
X150375211Y-116836464D01*
X150223373Y-116988301D01*
X150126700Y-117221690D01*
X150126700Y-117824250D01*
X150285450Y-117983000D01*
X151396700Y-117983000D01*
X151396700Y-117963000D01*
X151650700Y-117963000D01*
X151650700Y-117983000D01*
X152761950Y-117983000D01*
X152920700Y-117824250D01*
X152920700Y-117221690D01*
X152824027Y-116988301D01*
X152673054Y-116837329D01*
X152737141Y-116796090D01*
X152882131Y-116583890D01*
X152933140Y-116332000D01*
X152933140Y-114808000D01*
X152888862Y-114572683D01*
X152749790Y-114356559D01*
X152537590Y-114211569D01*
X152285700Y-114160560D01*
X151279220Y-114160560D01*
X149623940Y-112505280D01*
X149623940Y-112467998D01*
X149579662Y-112232681D01*
X149440590Y-112016557D01*
X149228390Y-111871567D01*
X148976500Y-111820558D01*
X148076500Y-111820558D01*
X147841183Y-111864836D01*
X147625059Y-112003908D01*
X147480069Y-112216108D01*
X147429060Y-112467998D01*
X147429060Y-112967998D01*
X147473338Y-113203315D01*
X147612410Y-113419439D01*
X147682211Y-113467132D01*
X147625059Y-113503908D01*
X147480069Y-113716108D01*
X147429060Y-113967998D01*
X147429060Y-114467998D01*
X147430430Y-114475277D01*
X147377500Y-114464558D01*
X146627500Y-114464558D01*
X146392183Y-114508836D01*
X146326622Y-114551024D01*
X146351940Y-114425998D01*
X146351940Y-113525998D01*
X146307662Y-113290681D01*
X146168590Y-113074557D01*
X145956390Y-112929567D01*
X145704500Y-112878558D01*
X145204500Y-112878558D01*
X144969183Y-112922836D01*
X144753059Y-113061908D01*
X144705366Y-113131709D01*
X144668590Y-113074557D01*
X144456390Y-112929567D01*
X144204500Y-112878558D01*
X143704500Y-112878558D01*
X143469183Y-112922836D01*
X143253059Y-113061908D01*
X143177548Y-113172422D01*
X143132390Y-113141567D01*
X142880500Y-113090558D01*
X141980500Y-113090558D01*
X141745183Y-113134836D01*
X141639256Y-113202998D01*
X141538978Y-113202998D01*
X141504590Y-113149557D01*
X141292390Y-113004567D01*
X141040500Y-112953558D01*
X140240500Y-112953558D01*
X140005183Y-112997836D01*
X139890522Y-113071618D01*
X139792390Y-113004567D01*
X139540500Y-112953558D01*
X139197944Y-112953558D01*
X139034507Y-112844353D01*
X138734100Y-112784598D01*
X137356940Y-112784598D01*
X137356940Y-112395598D01*
X137312662Y-112160281D01*
X137246171Y-112056952D01*
X137247827Y-112055296D01*
X137344500Y-111821907D01*
X137344500Y-111581348D01*
X137185750Y-111422598D01*
X136461500Y-111422598D01*
X136461500Y-111442598D01*
X136207500Y-111442598D01*
X136207500Y-111422598D01*
X134848600Y-111422598D01*
X134848600Y-111442598D01*
X134594600Y-111442598D01*
X134594600Y-111422598D01*
X134574600Y-111422598D01*
X134574600Y-111168598D01*
X134594600Y-111168598D01*
X134594600Y-111148598D01*
X134848600Y-111148598D01*
X134848600Y-111168598D01*
X136207500Y-111168598D01*
X136207500Y-111148598D01*
X136461500Y-111148598D01*
X136461500Y-111168598D01*
X137185750Y-111168598D01*
X137344500Y-111009848D01*
X137344500Y-110769289D01*
X137247827Y-110535900D01*
X137191927Y-110480000D01*
X137366250Y-110480000D01*
X137525000Y-110321250D01*
X137525000Y-109347000D01*
X137779000Y-109347000D01*
X137779000Y-110321250D01*
X137937750Y-110480000D01*
X138278309Y-110480000D01*
X138511698Y-110383327D01*
X138690327Y-110204699D01*
X138787000Y-109971310D01*
X138787000Y-109505750D01*
X138628250Y-109347000D01*
X137779000Y-109347000D01*
X137525000Y-109347000D01*
X137505000Y-109347000D01*
X137505000Y-109093000D01*
X137525000Y-109093000D01*
X137525000Y-108118750D01*
X137779000Y-108118750D01*
X137779000Y-109093000D01*
X138628250Y-109093000D01*
X138787000Y-108934250D01*
X138787000Y-108468690D01*
X138690327Y-108235301D01*
X138511698Y-108056673D01*
X138278309Y-107960000D01*
X137937750Y-107960000D01*
X137779000Y-108118750D01*
X137525000Y-108118750D01*
X137366250Y-107960000D01*
X137025691Y-107960000D01*
X136792302Y-108056673D01*
X136651064Y-108197910D01*
X136616090Y-108143559D01*
X136584268Y-108121816D01*
X136620431Y-108068890D01*
X136671440Y-107817000D01*
X136671440Y-107067000D01*
X136627162Y-106831683D01*
X136559000Y-106725756D01*
X136559000Y-106634797D01*
X136620431Y-106544890D01*
X136671440Y-106293000D01*
X136671440Y-105543000D01*
X136627162Y-105307683D01*
X136571000Y-105220405D01*
X136571000Y-105008888D01*
X136633317Y-104997162D01*
X136849441Y-104858090D01*
X136902464Y-104780489D01*
X137054301Y-104932327D01*
X137287690Y-105029000D01*
X137890250Y-105029000D01*
X138049000Y-104870250D01*
X138049000Y-103759000D01*
X138303000Y-103759000D01*
X138303000Y-104870250D01*
X138461750Y-105029000D01*
X139064310Y-105029000D01*
X139297699Y-104932327D01*
X139476327Y-104753698D01*
X139573000Y-104520309D01*
X139573000Y-103917750D01*
X139414250Y-103759000D01*
X138303000Y-103759000D01*
X138049000Y-103759000D01*
X138029000Y-103759000D01*
X138029000Y-103505000D01*
X138049000Y-103505000D01*
X138049000Y-102393750D01*
X138017250Y-102362000D01*
X138049000Y-102330250D01*
X138049000Y-101219000D01*
X138303000Y-101219000D01*
X138303000Y-102330250D01*
X138334750Y-102362000D01*
X138303000Y-102393750D01*
X138303000Y-103505000D01*
X139414250Y-103505000D01*
X139573000Y-103346250D01*
X139573000Y-102743691D01*
X139476327Y-102510302D01*
X139328026Y-102362000D01*
X139476327Y-102213698D01*
X139573000Y-101980309D01*
X139573000Y-101377750D01*
X139414250Y-101219000D01*
X138303000Y-101219000D01*
X138049000Y-101219000D01*
X138029000Y-101219000D01*
X138029000Y-100965000D01*
X138049000Y-100965000D01*
X138049000Y-99853750D01*
X138303000Y-99853750D01*
X138303000Y-100965000D01*
X139414250Y-100965000D01*
X139573000Y-100806250D01*
X139573000Y-100203691D01*
X139476327Y-99970302D01*
X139297699Y-99791673D01*
X139064310Y-99695000D01*
X138461750Y-99695000D01*
X138303000Y-99853750D01*
X138049000Y-99853750D01*
X137890250Y-99695000D01*
X137287690Y-99695000D01*
X137054301Y-99791673D01*
X136903329Y-99942646D01*
X136862090Y-99878559D01*
X136649890Y-99733569D01*
X136398000Y-99682560D01*
X134874000Y-99682560D01*
X134638683Y-99726838D01*
X134422559Y-99865910D01*
X134369536Y-99943511D01*
X134217699Y-99791673D01*
X133984310Y-99695000D01*
X133381750Y-99695000D01*
X133223000Y-99853750D01*
X133223000Y-100965000D01*
X133243000Y-100965000D01*
X133243000Y-101219000D01*
X133223000Y-101219000D01*
X133223000Y-102330250D01*
X133254750Y-102362000D01*
X133223000Y-102393750D01*
X133223000Y-103505000D01*
X133243000Y-103505000D01*
X133243000Y-103759000D01*
X133223000Y-103759000D01*
X133223000Y-104870250D01*
X133360862Y-105008112D01*
X133185673Y-105183301D01*
X133089000Y-105416690D01*
X133089000Y-105632250D01*
X133247750Y-105791000D01*
X133997000Y-105791000D01*
X133997000Y-105771000D01*
X134251000Y-105771000D01*
X134251000Y-105791000D01*
X134271000Y-105791000D01*
X134271000Y-106045000D01*
X134251000Y-106045000D01*
X134251000Y-107315000D01*
X134271000Y-107315000D01*
X134271000Y-107569000D01*
X134251000Y-107569000D01*
X134251000Y-107589000D01*
X133997000Y-107589000D01*
X133997000Y-107569000D01*
X133247750Y-107569000D01*
X133089000Y-107727750D01*
X133089000Y-107943310D01*
X133185673Y-108176699D01*
X133293975Y-108285000D01*
X132473440Y-108285000D01*
X132473440Y-108204000D01*
X132429162Y-107968683D01*
X132290090Y-107752559D01*
X132077890Y-107607569D01*
X131826000Y-107556560D01*
X130302000Y-107556560D01*
X130066683Y-107600838D01*
X129850559Y-107739910D01*
X129794626Y-107821770D01*
X129750090Y-107752559D01*
X129537890Y-107607569D01*
X129286000Y-107556560D01*
X127762000Y-107556560D01*
X127526683Y-107600838D01*
X127310559Y-107739910D01*
X127165569Y-107952110D01*
X127114560Y-108204000D01*
X127114560Y-109728000D01*
X127158838Y-109963317D01*
X127274698Y-110143369D01*
X127249883Y-110148038D01*
X127033759Y-110287110D01*
X126945556Y-110416200D01*
X126238000Y-110416200D01*
X126187200Y-110426305D01*
X126136400Y-110416200D01*
X125869440Y-110416200D01*
X125869440Y-110236000D01*
X125825162Y-110000683D01*
X125686090Y-109784559D01*
X125604230Y-109728626D01*
X125673441Y-109684090D01*
X125818431Y-109471890D01*
X125869440Y-109220000D01*
X125869440Y-107696000D01*
X125825162Y-107460683D01*
X125686090Y-107244559D01*
X125473890Y-107099569D01*
X125222000Y-107048560D01*
X123698000Y-107048560D01*
X123462683Y-107092838D01*
X123246559Y-107231910D01*
X123190626Y-107313770D01*
X123146090Y-107244559D01*
X122933890Y-107099569D01*
X122682000Y-107048560D01*
X121158000Y-107048560D01*
X120922683Y-107092838D01*
X120706559Y-107231910D01*
X120561569Y-107444110D01*
X120510560Y-107696000D01*
X117804000Y-107696000D01*
X117804000Y-106203750D01*
X133089000Y-106203750D01*
X133089000Y-106419310D01*
X133185673Y-106652699D01*
X133212974Y-106680000D01*
X133185673Y-106707301D01*
X133089000Y-106940690D01*
X133089000Y-107156250D01*
X133247750Y-107315000D01*
X133997000Y-107315000D01*
X133997000Y-106045000D01*
X133247750Y-106045000D01*
X133089000Y-106203750D01*
X117804000Y-106203750D01*
X117804000Y-103917750D01*
X131699000Y-103917750D01*
X131699000Y-104520309D01*
X131795673Y-104753698D01*
X131974301Y-104932327D01*
X132207690Y-105029000D01*
X132810250Y-105029000D01*
X132969000Y-104870250D01*
X132969000Y-103759000D01*
X131857750Y-103759000D01*
X131699000Y-103917750D01*
X117804000Y-103917750D01*
X117804000Y-101377750D01*
X131699000Y-101377750D01*
X131699000Y-101980309D01*
X131795673Y-102213698D01*
X131943974Y-102362000D01*
X131795673Y-102510302D01*
X131699000Y-102743691D01*
X131699000Y-103346250D01*
X131857750Y-103505000D01*
X132969000Y-103505000D01*
X132969000Y-102393750D01*
X132937250Y-102362000D01*
X132969000Y-102330250D01*
X132969000Y-101219000D01*
X131857750Y-101219000D01*
X131699000Y-101377750D01*
X117804000Y-101377750D01*
X117804000Y-100203691D01*
X131699000Y-100203691D01*
X131699000Y-100806250D01*
X131857750Y-100965000D01*
X132969000Y-100965000D01*
X132969000Y-99853750D01*
X132810250Y-99695000D01*
X132207690Y-99695000D01*
X131974301Y-99791673D01*
X131795673Y-99970302D01*
X131699000Y-100203691D01*
X117804000Y-100203691D01*
X117804000Y-97484000D01*
X156516000Y-97484000D01*
X156516000Y-136196000D01*
X156516000Y-136196000D01*
G37*
X156516000Y-136196000D02*
X117804000Y-136196000D01*
X117804000Y-127285750D01*
X120523000Y-127285750D01*
X120523000Y-127888310D01*
X120619673Y-128121699D01*
X120798302Y-128300327D01*
X121031691Y-128397000D01*
X121634250Y-128397000D01*
X121793000Y-128238250D01*
X121793000Y-127127000D01*
X122047000Y-127127000D01*
X122047000Y-128238250D01*
X122205750Y-128397000D01*
X122808309Y-128397000D01*
X123041698Y-128300327D01*
X123190000Y-128152026D01*
X123338302Y-128300327D01*
X123571691Y-128397000D01*
X124174250Y-128397000D01*
X124333000Y-128238250D01*
X124333000Y-127127000D01*
X124587000Y-127127000D01*
X124587000Y-128238250D01*
X124745750Y-128397000D01*
X125348309Y-128397000D01*
X125581698Y-128300327D01*
X125760327Y-128121699D01*
X125857000Y-127888310D01*
X125857000Y-127285750D01*
X125698250Y-127127000D01*
X124587000Y-127127000D01*
X124333000Y-127127000D01*
X123221750Y-127127000D01*
X123190000Y-127158750D01*
X123158250Y-127127000D01*
X122047000Y-127127000D01*
X121793000Y-127127000D01*
X120681750Y-127127000D01*
X120523000Y-127285750D01*
X117804000Y-127285750D01*
X117804000Y-115951690D01*
X120523000Y-115951690D01*
X120523000Y-116554250D01*
X120681750Y-116713000D01*
X121793000Y-116713000D01*
X121793000Y-115601750D01*
X122047000Y-115601750D01*
X122047000Y-116713000D01*
X123158250Y-116713000D01*
X123190000Y-116681250D01*
X123221750Y-116713000D01*
X124333000Y-116713000D01*
X124333000Y-115601750D01*
X124174250Y-115443000D01*
X123571691Y-115443000D01*
X123338302Y-115539673D01*
X123190000Y-115687974D01*
X123041698Y-115539673D01*
X122808309Y-115443000D01*
X122205750Y-115443000D01*
X122047000Y-115601750D01*
X121793000Y-115601750D01*
X121634250Y-115443000D01*
X121031691Y-115443000D01*
X120798302Y-115539673D01*
X120619673Y-115718301D01*
X120523000Y-115951690D01*
X117804000Y-115951690D01*
X117804000Y-107696000D01*
X120510560Y-107696000D01*
X120510560Y-109220000D01*
X120554838Y-109455317D01*
X120693910Y-109671441D01*
X120775770Y-109727374D01*
X120706559Y-109771910D01*
X120561569Y-109984110D01*
X120510560Y-110236000D01*
X120510560Y-111760000D01*
X120554838Y-111995317D01*
X120693910Y-112211441D01*
X120775770Y-112267374D01*
X120706559Y-112311910D01*
X120561569Y-112524110D01*
X120510560Y-112776000D01*
X120510560Y-114300000D01*
X120554838Y-114535317D01*
X120693910Y-114751441D01*
X120906110Y-114896431D01*
X121158000Y-114947440D01*
X122682000Y-114947440D01*
X122917317Y-114903162D01*
X123133441Y-114764090D01*
X123189374Y-114682230D01*
X123233910Y-114751441D01*
X123446110Y-114896431D01*
X123698000Y-114947440D01*
X123997282Y-114947440D01*
X124619296Y-115569454D01*
X124587000Y-115601750D01*
X124587000Y-116713000D01*
X125698250Y-116713000D01*
X125730546Y-116680704D01*
X128437043Y-119387201D01*
X127325399Y-119387201D01*
X127024993Y-119446956D01*
X126890110Y-119537081D01*
X126840233Y-119537038D01*
X126496457Y-119679083D01*
X126233208Y-119941873D01*
X126090562Y-120285401D01*
X126090238Y-120657367D01*
X126232283Y-121001143D01*
X126365907Y-121135000D01*
X125865112Y-121135000D01*
X125825162Y-120922683D01*
X125686090Y-120706559D01*
X125604230Y-120650626D01*
X125673441Y-120606090D01*
X125818431Y-120393890D01*
X125869440Y-120142000D01*
X125869440Y-118618000D01*
X125825162Y-118382683D01*
X125686090Y-118166559D01*
X125608489Y-118113536D01*
X125760327Y-117961699D01*
X125857000Y-117728310D01*
X125857000Y-117125750D01*
X125698250Y-116967000D01*
X124587000Y-116967000D01*
X124587000Y-116987000D01*
X124333000Y-116987000D01*
X124333000Y-116967000D01*
X123221750Y-116967000D01*
X123190000Y-116998750D01*
X123158250Y-116967000D01*
X122047000Y-116967000D01*
X122047000Y-116987000D01*
X121793000Y-116987000D01*
X121793000Y-116967000D01*
X120681750Y-116967000D01*
X120523000Y-117125750D01*
X120523000Y-117728310D01*
X120619673Y-117961699D01*
X120770646Y-118112671D01*
X120706559Y-118153910D01*
X120561569Y-118366110D01*
X120510560Y-118618000D01*
X120510560Y-120142000D01*
X120554838Y-120377317D01*
X120693910Y-120593441D01*
X120775770Y-120649374D01*
X120706559Y-120693910D01*
X120561569Y-120906110D01*
X120510560Y-121158000D01*
X120510560Y-122682000D01*
X120554838Y-122917317D01*
X120693910Y-123133441D01*
X120775770Y-123189374D01*
X120706559Y-123233910D01*
X120561569Y-123446110D01*
X120510560Y-123698000D01*
X120510560Y-125222000D01*
X120554838Y-125457317D01*
X120693910Y-125673441D01*
X120771511Y-125726464D01*
X120619673Y-125878301D01*
X120523000Y-126111690D01*
X120523000Y-126714250D01*
X120681750Y-126873000D01*
X121793000Y-126873000D01*
X121793000Y-126853000D01*
X122047000Y-126853000D01*
X122047000Y-126873000D01*
X123158250Y-126873000D01*
X123190000Y-126841250D01*
X123221750Y-126873000D01*
X124333000Y-126873000D01*
X124333000Y-126853000D01*
X124587000Y-126853000D01*
X124587000Y-126873000D01*
X125698250Y-126873000D01*
X125857000Y-126714250D01*
X125857000Y-126111690D01*
X125760327Y-125878301D01*
X125609354Y-125727329D01*
X125673441Y-125686090D01*
X125818431Y-125473890D01*
X125869440Y-125222000D01*
X125869440Y-123698000D01*
X125858958Y-123642292D01*
X126169167Y-123642562D01*
X126512943Y-123500517D01*
X126521074Y-123492400D01*
X127682604Y-123492400D01*
X127933533Y-123442487D01*
X127155421Y-124220599D01*
X126985255Y-124475271D01*
X126965168Y-124576255D01*
X126925500Y-124775678D01*
X126925500Y-127509801D01*
X126864069Y-127599708D01*
X126813060Y-127851598D01*
X126813060Y-128751598D01*
X126857338Y-128986915D01*
X126925500Y-129092842D01*
X126925500Y-129541801D01*
X126864069Y-129631708D01*
X126813060Y-129883598D01*
X126813060Y-130783598D01*
X126857338Y-131018915D01*
X126996410Y-131235039D01*
X127208610Y-131380029D01*
X127460500Y-131431038D01*
X127960500Y-131431038D01*
X128195817Y-131386760D01*
X128411941Y-131247688D01*
X128459634Y-131177887D01*
X128496410Y-131235039D01*
X128708610Y-131380029D01*
X128960500Y-131431038D01*
X129460500Y-131431038D01*
X129695817Y-131386760D01*
X129858887Y-131281827D01*
X130002610Y-131380029D01*
X130254500Y-131431038D01*
X130754500Y-131431038D01*
X130989817Y-131386760D01*
X131205941Y-131247688D01*
X131253634Y-131177887D01*
X131290410Y-131235039D01*
X131502610Y-131380029D01*
X131754500Y-131431038D01*
X132254500Y-131431038D01*
X132489817Y-131386760D01*
X132705941Y-131247688D01*
X132850931Y-131035488D01*
X132852642Y-131027038D01*
X132942410Y-131166541D01*
X133154610Y-131311531D01*
X133406500Y-131362540D01*
X134206500Y-131362540D01*
X134441817Y-131318262D01*
X134545146Y-131251771D01*
X134546802Y-131253427D01*
X134780191Y-131350100D01*
X135020750Y-131350100D01*
X135179500Y-131191350D01*
X135179500Y-130467100D01*
X135433500Y-130467100D01*
X135433500Y-131191350D01*
X135592250Y-131350100D01*
X135832809Y-131350100D01*
X136066198Y-131253427D01*
X136244827Y-131074799D01*
X136341500Y-130841410D01*
X136341500Y-130625850D01*
X136182750Y-130467100D01*
X135433500Y-130467100D01*
X135179500Y-130467100D01*
X135159500Y-130467100D01*
X135159500Y-130213100D01*
X135179500Y-130213100D01*
X135179500Y-130193100D01*
X135433500Y-130193100D01*
X135433500Y-130213100D01*
X136182750Y-130213100D01*
X136341500Y-130054350D01*
X136341500Y-129838790D01*
X136310065Y-129762900D01*
X136315450Y-129762900D01*
X136474200Y-129604150D01*
X136474200Y-128854900D01*
X136728200Y-128854900D01*
X136728200Y-129604150D01*
X136886950Y-129762900D01*
X137102510Y-129762900D01*
X137335899Y-129666227D01*
X137514527Y-129487598D01*
X137611200Y-129254209D01*
X137611200Y-129013650D01*
X137452450Y-128854900D01*
X136728200Y-128854900D01*
X136474200Y-128854900D01*
X136454200Y-128854900D01*
X136454200Y-128600900D01*
X136474200Y-128600900D01*
X136474200Y-128580900D01*
X136728200Y-128580900D01*
X136728200Y-128600900D01*
X137452450Y-128600900D01*
X137611200Y-128442150D01*
X137611200Y-128201591D01*
X137514527Y-127968202D01*
X137513157Y-127966832D01*
X137572631Y-127879790D01*
X137623640Y-127627900D01*
X137623640Y-126827900D01*
X137585660Y-126626050D01*
X137889900Y-126626050D01*
X137889900Y-126866609D01*
X137986573Y-127099998D01*
X138165201Y-127278627D01*
X138398590Y-127375300D01*
X138614150Y-127375300D01*
X138772900Y-127216550D01*
X138772900Y-126467300D01*
X139026900Y-126467300D01*
X139026900Y-127216550D01*
X139185650Y-127375300D01*
X139401210Y-127375300D01*
X139634599Y-127278627D01*
X139813227Y-127099998D01*
X139909900Y-126866609D01*
X139909900Y-126626050D01*
X139751150Y-126467300D01*
X139026900Y-126467300D01*
X138772900Y-126467300D01*
X138048650Y-126467300D01*
X137889900Y-126626050D01*
X137585660Y-126626050D01*
X137579362Y-126592583D01*
X137440290Y-126376459D01*
X137228090Y-126231469D01*
X136976200Y-126180460D01*
X136226200Y-126180460D01*
X135990883Y-126224738D01*
X135774759Y-126363810D01*
X135767719Y-126374114D01*
X135753590Y-126352157D01*
X135541390Y-126207167D01*
X135390208Y-126176552D01*
X135238579Y-125949621D01*
X134449396Y-125160438D01*
X134630300Y-125160438D01*
X134733971Y-125140931D01*
X134830300Y-125160438D01*
X135130300Y-125160438D01*
X135233971Y-125140931D01*
X135330300Y-125160438D01*
X135630300Y-125160438D01*
X135733971Y-125140931D01*
X135830300Y-125160438D01*
X136130300Y-125160438D01*
X136365617Y-125116160D01*
X136581741Y-124977088D01*
X136726731Y-124764888D01*
X136777740Y-124512998D01*
X136777740Y-124310438D01*
X136954380Y-124310438D01*
X137877460Y-125233517D01*
X137877460Y-125240300D01*
X137921738Y-125475617D01*
X137988229Y-125578946D01*
X137986573Y-125580602D01*
X137889900Y-125813991D01*
X137889900Y-126054550D01*
X138048650Y-126213300D01*
X138772900Y-126213300D01*
X138772900Y-126193300D01*
X139026900Y-126193300D01*
X139026900Y-126213300D01*
X139751150Y-126213300D01*
X139909900Y-126054550D01*
X139909900Y-125813991D01*
X139813227Y-125580602D01*
X139811857Y-125579232D01*
X139871331Y-125492190D01*
X139922340Y-125240300D01*
X139922340Y-124440300D01*
X139878062Y-124204983D01*
X139738990Y-123988859D01*
X139705955Y-123966287D01*
X139920692Y-123751925D01*
X140063338Y-123408397D01*
X140063526Y-123192200D01*
X140240500Y-123228038D01*
X141040500Y-123228038D01*
X141275817Y-123183760D01*
X141491941Y-123044688D01*
X141528899Y-122990598D01*
X141656265Y-122990598D01*
X141728610Y-123040029D01*
X141980500Y-123091038D01*
X142880500Y-123091038D01*
X143115817Y-123046760D01*
X143184982Y-123002253D01*
X143252410Y-123107039D01*
X143464610Y-123252029D01*
X143716500Y-123303038D01*
X144216500Y-123303038D01*
X144451817Y-123258760D01*
X144667941Y-123119688D01*
X144715634Y-123049887D01*
X144752410Y-123107039D01*
X144964610Y-123252029D01*
X145216500Y-123303038D01*
X145716500Y-123303038D01*
X145951817Y-123258760D01*
X146167941Y-123119688D01*
X146312931Y-122907488D01*
X146363940Y-122655598D01*
X146363940Y-121755598D01*
X146342878Y-121643664D01*
X146375610Y-121666029D01*
X146627500Y-121717038D01*
X147377500Y-121717038D01*
X147430378Y-121707088D01*
X147429060Y-121713598D01*
X147429060Y-122213598D01*
X147473338Y-122448915D01*
X147612410Y-122665039D01*
X147682211Y-122712732D01*
X147625059Y-122749508D01*
X147480069Y-122961708D01*
X147429060Y-123213598D01*
X147429060Y-123713598D01*
X147473338Y-123948915D01*
X147612410Y-124165039D01*
X147824610Y-124310029D01*
X148076500Y-124361038D01*
X148976500Y-124361038D01*
X149211817Y-124316760D01*
X149427941Y-124177688D01*
X149572931Y-123965488D01*
X149623940Y-123713598D01*
X149623940Y-123676316D01*
X151240816Y-122059440D01*
X152285700Y-122059440D01*
X152521017Y-122015162D01*
X152737141Y-121876090D01*
X152882131Y-121663890D01*
X152933140Y-121412000D01*
X152933140Y-119888000D01*
X152888862Y-119652683D01*
X152749790Y-119436559D01*
X152672189Y-119383536D01*
X152824027Y-119231699D01*
X152920700Y-118998310D01*
X152920700Y-118395750D01*
X152761950Y-118237000D01*
X151650700Y-118237000D01*
X151650700Y-118257000D01*
X151396700Y-118257000D01*
X151396700Y-118237000D01*
X150285450Y-118237000D01*
X150126700Y-118395750D01*
X150126700Y-118998310D01*
X150223373Y-119231699D01*
X150374346Y-119382671D01*
X150310259Y-119423910D01*
X150165269Y-119636110D01*
X150114260Y-119888000D01*
X150114260Y-120965680D01*
X149583146Y-121496794D01*
X149579662Y-121478281D01*
X149488062Y-121335931D01*
X149497931Y-121321488D01*
X149548940Y-121069598D01*
X149548940Y-120269598D01*
X149504662Y-120034281D01*
X149438171Y-119930952D01*
X149439827Y-119929296D01*
X149536500Y-119695907D01*
X149536500Y-119455348D01*
X149377750Y-119296598D01*
X148653500Y-119296598D01*
X148653500Y-119316598D01*
X148399500Y-119316598D01*
X148399500Y-119296598D01*
X147129500Y-119296598D01*
X147129500Y-119316598D01*
X146875500Y-119316598D01*
X146875500Y-119296598D01*
X146855500Y-119296598D01*
X146855500Y-119042598D01*
X146875500Y-119042598D01*
X146875500Y-118293348D01*
X147129500Y-118293348D01*
X147129500Y-119042598D01*
X148399500Y-119042598D01*
X148399500Y-118293348D01*
X148653500Y-118293348D01*
X148653500Y-119042598D01*
X149377750Y-119042598D01*
X149536500Y-118883848D01*
X149536500Y-118643289D01*
X149439827Y-118409900D01*
X149261199Y-118231271D01*
X149027810Y-118134598D01*
X148812250Y-118134598D01*
X148653500Y-118293348D01*
X148399500Y-118293348D01*
X148240750Y-118134598D01*
X148025190Y-118134598D01*
X147791801Y-118231271D01*
X147764500Y-118258572D01*
X147737199Y-118231271D01*
X147503810Y-118134598D01*
X147288250Y-118134598D01*
X147129500Y-118293348D01*
X146875500Y-118293348D01*
X146716750Y-118134598D01*
X146501190Y-118134598D01*
X146267801Y-118231271D01*
X146218858Y-118280214D01*
X146118390Y-118211567D01*
X145866500Y-118160558D01*
X145066500Y-118160558D01*
X144831183Y-118204836D01*
X144716522Y-118278618D01*
X144618390Y-118211567D01*
X144366500Y-118160558D01*
X143566500Y-118160558D01*
X143331183Y-118204836D01*
X143115059Y-118343908D01*
X142970069Y-118556108D01*
X142919060Y-118807998D01*
X142919060Y-119557998D01*
X142963338Y-119793315D01*
X142977853Y-119815873D01*
X142880500Y-119796158D01*
X141980500Y-119796158D01*
X141745183Y-119840436D01*
X141676553Y-119884598D01*
X141584342Y-119884598D01*
X141662500Y-119695907D01*
X141662500Y-119455348D01*
X141503750Y-119296598D01*
X140779500Y-119296598D01*
X140779500Y-119316598D01*
X140525500Y-119316598D01*
X140525500Y-119296598D01*
X140505500Y-119296598D01*
X140505500Y-119042598D01*
X140525500Y-119042598D01*
X140525500Y-118293348D01*
X140779500Y-118293348D01*
X140779500Y-119042598D01*
X141503750Y-119042598D01*
X141662500Y-118883848D01*
X141662500Y-118643289D01*
X141565827Y-118409900D01*
X141387199Y-118231271D01*
X141153810Y-118134598D01*
X140938250Y-118134598D01*
X140779500Y-118293348D01*
X140525500Y-118293348D01*
X140366750Y-118134598D01*
X140151190Y-118134598D01*
X139917801Y-118231271D01*
X139796157Y-118352916D01*
X139788590Y-118341157D01*
X139576390Y-118196167D01*
X139324500Y-118145158D01*
X138424500Y-118145158D01*
X138189183Y-118189436D01*
X138129256Y-118227998D01*
X137041731Y-118227998D01*
X136980300Y-118215558D01*
X136777740Y-118215558D01*
X136777740Y-118012998D01*
X136733462Y-117777681D01*
X136594390Y-117561557D01*
X136382190Y-117416567D01*
X136365141Y-117413115D01*
X136480508Y-117297748D01*
X139642500Y-117297748D01*
X139642500Y-117538307D01*
X139739173Y-117771696D01*
X139917801Y-117950325D01*
X140151190Y-118046998D01*
X140366750Y-118046998D01*
X140525500Y-117888248D01*
X140525500Y-117138998D01*
X140779500Y-117138998D01*
X140779500Y-117888248D01*
X140938250Y-118046998D01*
X141153810Y-118046998D01*
X141387199Y-117950325D01*
X141565827Y-117771696D01*
X141662500Y-117538307D01*
X141662500Y-117297748D01*
X141503750Y-117138998D01*
X140779500Y-117138998D01*
X140525500Y-117138998D01*
X139801250Y-117138998D01*
X139642500Y-117297748D01*
X136480508Y-117297748D01*
X137212087Y-116566169D01*
X137366500Y-116597438D01*
X137866500Y-116597438D01*
X138101817Y-116553160D01*
X138317941Y-116414088D01*
X138365634Y-116344287D01*
X138402410Y-116401439D01*
X138614610Y-116546429D01*
X138866500Y-116597438D01*
X139366500Y-116597438D01*
X139601817Y-116553160D01*
X139642500Y-116526981D01*
X139642500Y-116726248D01*
X139801250Y-116884998D01*
X140525500Y-116884998D01*
X140525500Y-116864998D01*
X140779500Y-116864998D01*
X140779500Y-116884998D01*
X141503750Y-116884998D01*
X141662500Y-116726248D01*
X141662500Y-116485689D01*
X141584342Y-116296998D01*
X141673828Y-116296998D01*
X141728610Y-116334429D01*
X141980500Y-116385438D01*
X142880500Y-116385438D01*
X142992434Y-116364376D01*
X142970069Y-116397108D01*
X142919060Y-116648998D01*
X142919060Y-117398998D01*
X142963338Y-117634315D01*
X143102410Y-117850439D01*
X143314610Y-117995429D01*
X143566500Y-118046438D01*
X144366500Y-118046438D01*
X144601817Y-118002160D01*
X144716478Y-117928378D01*
X144814610Y-117995429D01*
X145066500Y-118046438D01*
X145866500Y-118046438D01*
X146101817Y-118002160D01*
X146234352Y-117916876D01*
X146267801Y-117950325D01*
X146501190Y-118046998D01*
X146716750Y-118046998D01*
X146875500Y-117888248D01*
X146875500Y-117138998D01*
X147129500Y-117138998D01*
X147129500Y-117888248D01*
X147288250Y-118046998D01*
X147503810Y-118046998D01*
X147737199Y-117950325D01*
X147764500Y-117923024D01*
X147791801Y-117950325D01*
X148025190Y-118046998D01*
X148240750Y-118046998D01*
X148399500Y-117888248D01*
X148399500Y-117138998D01*
X148653500Y-117138998D01*
X148653500Y-117888248D01*
X148812250Y-118046998D01*
X149027810Y-118046998D01*
X149261199Y-117950325D01*
X149439827Y-117771696D01*
X149536500Y-117538307D01*
X149536500Y-117297748D01*
X149377750Y-117138998D01*
X148653500Y-117138998D01*
X148399500Y-117138998D01*
X147129500Y-117138998D01*
X146875500Y-117138998D01*
X146855500Y-117138998D01*
X146855500Y-116884998D01*
X146875500Y-116884998D01*
X146875500Y-116864998D01*
X147129500Y-116864998D01*
X147129500Y-116884998D01*
X148399500Y-116884998D01*
X148399500Y-116864998D01*
X148653500Y-116864998D01*
X148653500Y-116884998D01*
X149377750Y-116884998D01*
X149536500Y-116726248D01*
X149536500Y-116485689D01*
X149439827Y-116252300D01*
X149438457Y-116250930D01*
X149497931Y-116163888D01*
X149548940Y-115911998D01*
X149548940Y-115111998D01*
X149504662Y-114876681D01*
X149485813Y-114847389D01*
X149572931Y-114719888D01*
X149580560Y-114682216D01*
X150114260Y-115215916D01*
X150114260Y-116332000D01*
X150158538Y-116567317D01*
X150297610Y-116783441D01*
X150375211Y-116836464D01*
X150223373Y-116988301D01*
X150126700Y-117221690D01*
X150126700Y-117824250D01*
X150285450Y-117983000D01*
X151396700Y-117983000D01*
X151396700Y-117963000D01*
X151650700Y-117963000D01*
X151650700Y-117983000D01*
X152761950Y-117983000D01*
X152920700Y-117824250D01*
X152920700Y-117221690D01*
X152824027Y-116988301D01*
X152673054Y-116837329D01*
X152737141Y-116796090D01*
X152882131Y-116583890D01*
X152933140Y-116332000D01*
X152933140Y-114808000D01*
X152888862Y-114572683D01*
X152749790Y-114356559D01*
X152537590Y-114211569D01*
X152285700Y-114160560D01*
X151279220Y-114160560D01*
X149623940Y-112505280D01*
X149623940Y-112467998D01*
X149579662Y-112232681D01*
X149440590Y-112016557D01*
X149228390Y-111871567D01*
X148976500Y-111820558D01*
X148076500Y-111820558D01*
X147841183Y-111864836D01*
X147625059Y-112003908D01*
X147480069Y-112216108D01*
X147429060Y-112467998D01*
X147429060Y-112967998D01*
X147473338Y-113203315D01*
X147612410Y-113419439D01*
X147682211Y-113467132D01*
X147625059Y-113503908D01*
X147480069Y-113716108D01*
X147429060Y-113967998D01*
X147429060Y-114467998D01*
X147430430Y-114475277D01*
X147377500Y-114464558D01*
X146627500Y-114464558D01*
X146392183Y-114508836D01*
X146326622Y-114551024D01*
X146351940Y-114425998D01*
X146351940Y-113525998D01*
X146307662Y-113290681D01*
X146168590Y-113074557D01*
X145956390Y-112929567D01*
X145704500Y-112878558D01*
X145204500Y-112878558D01*
X144969183Y-112922836D01*
X144753059Y-113061908D01*
X144705366Y-113131709D01*
X144668590Y-113074557D01*
X144456390Y-112929567D01*
X144204500Y-112878558D01*
X143704500Y-112878558D01*
X143469183Y-112922836D01*
X143253059Y-113061908D01*
X143177548Y-113172422D01*
X143132390Y-113141567D01*
X142880500Y-113090558D01*
X141980500Y-113090558D01*
X141745183Y-113134836D01*
X141639256Y-113202998D01*
X141538978Y-113202998D01*
X141504590Y-113149557D01*
X141292390Y-113004567D01*
X141040500Y-112953558D01*
X140240500Y-112953558D01*
X140005183Y-112997836D01*
X139890522Y-113071618D01*
X139792390Y-113004567D01*
X139540500Y-112953558D01*
X139197944Y-112953558D01*
X139034507Y-112844353D01*
X138734100Y-112784598D01*
X137356940Y-112784598D01*
X137356940Y-112395598D01*
X137312662Y-112160281D01*
X137246171Y-112056952D01*
X137247827Y-112055296D01*
X137344500Y-111821907D01*
X137344500Y-111581348D01*
X137185750Y-111422598D01*
X136461500Y-111422598D01*
X136461500Y-111442598D01*
X136207500Y-111442598D01*
X136207500Y-111422598D01*
X134848600Y-111422598D01*
X134848600Y-111442598D01*
X134594600Y-111442598D01*
X134594600Y-111422598D01*
X134574600Y-111422598D01*
X134574600Y-111168598D01*
X134594600Y-111168598D01*
X134594600Y-111148598D01*
X134848600Y-111148598D01*
X134848600Y-111168598D01*
X136207500Y-111168598D01*
X136207500Y-111148598D01*
X136461500Y-111148598D01*
X136461500Y-111168598D01*
X137185750Y-111168598D01*
X137344500Y-111009848D01*
X137344500Y-110769289D01*
X137247827Y-110535900D01*
X137191927Y-110480000D01*
X137366250Y-110480000D01*
X137525000Y-110321250D01*
X137525000Y-109347000D01*
X137779000Y-109347000D01*
X137779000Y-110321250D01*
X137937750Y-110480000D01*
X138278309Y-110480000D01*
X138511698Y-110383327D01*
X138690327Y-110204699D01*
X138787000Y-109971310D01*
X138787000Y-109505750D01*
X138628250Y-109347000D01*
X137779000Y-109347000D01*
X137525000Y-109347000D01*
X137505000Y-109347000D01*
X137505000Y-109093000D01*
X137525000Y-109093000D01*
X137525000Y-108118750D01*
X137779000Y-108118750D01*
X137779000Y-109093000D01*
X138628250Y-109093000D01*
X138787000Y-108934250D01*
X138787000Y-108468690D01*
X138690327Y-108235301D01*
X138511698Y-108056673D01*
X138278309Y-107960000D01*
X137937750Y-107960000D01*
X137779000Y-108118750D01*
X137525000Y-108118750D01*
X137366250Y-107960000D01*
X137025691Y-107960000D01*
X136792302Y-108056673D01*
X136651064Y-108197910D01*
X136616090Y-108143559D01*
X136584268Y-108121816D01*
X136620431Y-108068890D01*
X136671440Y-107817000D01*
X136671440Y-107067000D01*
X136627162Y-106831683D01*
X136559000Y-106725756D01*
X136559000Y-106634797D01*
X136620431Y-106544890D01*
X136671440Y-106293000D01*
X136671440Y-105543000D01*
X136627162Y-105307683D01*
X136571000Y-105220405D01*
X136571000Y-105008888D01*
X136633317Y-104997162D01*
X136849441Y-104858090D01*
X136902464Y-104780489D01*
X137054301Y-104932327D01*
X137287690Y-105029000D01*
X137890250Y-105029000D01*
X138049000Y-104870250D01*
X138049000Y-103759000D01*
X138303000Y-103759000D01*
X138303000Y-104870250D01*
X138461750Y-105029000D01*
X139064310Y-105029000D01*
X139297699Y-104932327D01*
X139476327Y-104753698D01*
X139573000Y-104520309D01*
X139573000Y-103917750D01*
X139414250Y-103759000D01*
X138303000Y-103759000D01*
X138049000Y-103759000D01*
X138029000Y-103759000D01*
X138029000Y-103505000D01*
X138049000Y-103505000D01*
X138049000Y-102393750D01*
X138017250Y-102362000D01*
X138049000Y-102330250D01*
X138049000Y-101219000D01*
X138303000Y-101219000D01*
X138303000Y-102330250D01*
X138334750Y-102362000D01*
X138303000Y-102393750D01*
X138303000Y-103505000D01*
X139414250Y-103505000D01*
X139573000Y-103346250D01*
X139573000Y-102743691D01*
X139476327Y-102510302D01*
X139328026Y-102362000D01*
X139476327Y-102213698D01*
X139573000Y-101980309D01*
X139573000Y-101377750D01*
X139414250Y-101219000D01*
X138303000Y-101219000D01*
X138049000Y-101219000D01*
X138029000Y-101219000D01*
X138029000Y-100965000D01*
X138049000Y-100965000D01*
X138049000Y-99853750D01*
X138303000Y-99853750D01*
X138303000Y-100965000D01*
X139414250Y-100965000D01*
X139573000Y-100806250D01*
X139573000Y-100203691D01*
X139476327Y-99970302D01*
X139297699Y-99791673D01*
X139064310Y-99695000D01*
X138461750Y-99695000D01*
X138303000Y-99853750D01*
X138049000Y-99853750D01*
X137890250Y-99695000D01*
X137287690Y-99695000D01*
X137054301Y-99791673D01*
X136903329Y-99942646D01*
X136862090Y-99878559D01*
X136649890Y-99733569D01*
X136398000Y-99682560D01*
X134874000Y-99682560D01*
X134638683Y-99726838D01*
X134422559Y-99865910D01*
X134369536Y-99943511D01*
X134217699Y-99791673D01*
X133984310Y-99695000D01*
X133381750Y-99695000D01*
X133223000Y-99853750D01*
X133223000Y-100965000D01*
X133243000Y-100965000D01*
X133243000Y-101219000D01*
X133223000Y-101219000D01*
X133223000Y-102330250D01*
X133254750Y-102362000D01*
X133223000Y-102393750D01*
X133223000Y-103505000D01*
X133243000Y-103505000D01*
X133243000Y-103759000D01*
X133223000Y-103759000D01*
X133223000Y-104870250D01*
X133360862Y-105008112D01*
X133185673Y-105183301D01*
X133089000Y-105416690D01*
X133089000Y-105632250D01*
X133247750Y-105791000D01*
X133997000Y-105791000D01*
X133997000Y-105771000D01*
X134251000Y-105771000D01*
X134251000Y-105791000D01*
X134271000Y-105791000D01*
X134271000Y-106045000D01*
X134251000Y-106045000D01*
X134251000Y-107315000D01*
X134271000Y-107315000D01*
X134271000Y-107569000D01*
X134251000Y-107569000D01*
X134251000Y-107589000D01*
X133997000Y-107589000D01*
X133997000Y-107569000D01*
X133247750Y-107569000D01*
X133089000Y-107727750D01*
X133089000Y-107943310D01*
X133185673Y-108176699D01*
X133293975Y-108285000D01*
X132473440Y-108285000D01*
X132473440Y-108204000D01*
X132429162Y-107968683D01*
X132290090Y-107752559D01*
X132077890Y-107607569D01*
X131826000Y-107556560D01*
X130302000Y-107556560D01*
X130066683Y-107600838D01*
X129850559Y-107739910D01*
X129794626Y-107821770D01*
X129750090Y-107752559D01*
X129537890Y-107607569D01*
X129286000Y-107556560D01*
X127762000Y-107556560D01*
X127526683Y-107600838D01*
X127310559Y-107739910D01*
X127165569Y-107952110D01*
X127114560Y-108204000D01*
X127114560Y-109728000D01*
X127158838Y-109963317D01*
X127274698Y-110143369D01*
X127249883Y-110148038D01*
X127033759Y-110287110D01*
X126945556Y-110416200D01*
X126238000Y-110416200D01*
X126187200Y-110426305D01*
X126136400Y-110416200D01*
X125869440Y-110416200D01*
X125869440Y-110236000D01*
X125825162Y-110000683D01*
X125686090Y-109784559D01*
X125604230Y-109728626D01*
X125673441Y-109684090D01*
X125818431Y-109471890D01*
X125869440Y-109220000D01*
X125869440Y-107696000D01*
X125825162Y-107460683D01*
X125686090Y-107244559D01*
X125473890Y-107099569D01*
X125222000Y-107048560D01*
X123698000Y-107048560D01*
X123462683Y-107092838D01*
X123246559Y-107231910D01*
X123190626Y-107313770D01*
X123146090Y-107244559D01*
X122933890Y-107099569D01*
X122682000Y-107048560D01*
X121158000Y-107048560D01*
X120922683Y-107092838D01*
X120706559Y-107231910D01*
X120561569Y-107444110D01*
X120510560Y-107696000D01*
X117804000Y-107696000D01*
X117804000Y-106203750D01*
X133089000Y-106203750D01*
X133089000Y-106419310D01*
X133185673Y-106652699D01*
X133212974Y-106680000D01*
X133185673Y-106707301D01*
X133089000Y-106940690D01*
X133089000Y-107156250D01*
X133247750Y-107315000D01*
X133997000Y-107315000D01*
X133997000Y-106045000D01*
X133247750Y-106045000D01*
X133089000Y-106203750D01*
X117804000Y-106203750D01*
X117804000Y-103917750D01*
X131699000Y-103917750D01*
X131699000Y-104520309D01*
X131795673Y-104753698D01*
X131974301Y-104932327D01*
X132207690Y-105029000D01*
X132810250Y-105029000D01*
X132969000Y-104870250D01*
X132969000Y-103759000D01*
X131857750Y-103759000D01*
X131699000Y-103917750D01*
X117804000Y-103917750D01*
X117804000Y-101377750D01*
X131699000Y-101377750D01*
X131699000Y-101980309D01*
X131795673Y-102213698D01*
X131943974Y-102362000D01*
X131795673Y-102510302D01*
X131699000Y-102743691D01*
X131699000Y-103346250D01*
X131857750Y-103505000D01*
X132969000Y-103505000D01*
X132969000Y-102393750D01*
X132937250Y-102362000D01*
X132969000Y-102330250D01*
X132969000Y-101219000D01*
X131857750Y-101219000D01*
X131699000Y-101377750D01*
X117804000Y-101377750D01*
X117804000Y-100203691D01*
X131699000Y-100203691D01*
X131699000Y-100806250D01*
X131857750Y-100965000D01*
X132969000Y-100965000D01*
X132969000Y-99853750D01*
X132810250Y-99695000D01*
X132207690Y-99695000D01*
X131974301Y-99791673D01*
X131795673Y-99970302D01*
X131699000Y-100203691D01*
X117804000Y-100203691D01*
X117804000Y-97484000D01*
X156516000Y-97484000D01*
X156516000Y-136196000D01*
G36*
X135041500Y-128451598D02*
X135061500Y-128451598D01*
X135061500Y-128705598D01*
X135041500Y-128705598D01*
X135041500Y-128725598D01*
X134886940Y-128725598D01*
X134886940Y-128431598D01*
X135041500Y-128431598D01*
X135041500Y-128451598D01*
X135041500Y-128451598D01*
G37*
X135041500Y-128451598D02*
X135061500Y-128451598D01*
X135061500Y-128705598D01*
X135041500Y-128705598D01*
X135041500Y-128725598D01*
X134886940Y-128725598D01*
X134886940Y-128431598D01*
X135041500Y-128431598D01*
X135041500Y-128451598D01*
G36*
X129335500Y-128174598D02*
X130379500Y-128174598D01*
X130379500Y-128154598D01*
X130629500Y-128154598D01*
X130629500Y-128174598D01*
X130651500Y-128174598D01*
X130651500Y-128428598D01*
X130629500Y-128428598D01*
X130629500Y-128448598D01*
X130379500Y-128448598D01*
X130379500Y-128428598D01*
X130027689Y-128428598D01*
X129917299Y-128382760D01*
X129545333Y-128382436D01*
X129433612Y-128428598D01*
X129335500Y-128428598D01*
X129335500Y-128448598D01*
X129085500Y-128448598D01*
X129085500Y-128428598D01*
X129063500Y-128428598D01*
X129063500Y-128174598D01*
X129085500Y-128174598D01*
X129085500Y-128154598D01*
X129335500Y-128154598D01*
X129335500Y-128174598D01*
X129335500Y-128174598D01*
G37*
X129335500Y-128174598D02*
X130379500Y-128174598D01*
X130379500Y-128154598D01*
X130629500Y-128154598D01*
X130629500Y-128174598D01*
X130651500Y-128174598D01*
X130651500Y-128428598D01*
X130629500Y-128428598D01*
X130629500Y-128448598D01*
X130379500Y-128448598D01*
X130379500Y-128428598D01*
X130027689Y-128428598D01*
X129917299Y-128382760D01*
X129545333Y-128382436D01*
X129433612Y-128428598D01*
X129335500Y-128428598D01*
X129335500Y-128448598D01*
X129085500Y-128448598D01*
X129085500Y-128428598D01*
X129063500Y-128428598D01*
X129063500Y-128174598D01*
X129085500Y-128174598D01*
X129085500Y-128154598D01*
X129335500Y-128154598D01*
X129335500Y-128174598D01*
G36*
X131219500Y-126328756D02*
X131219500Y-127418572D01*
X131114198Y-127313271D01*
X130880809Y-127216598D01*
X130788250Y-127216598D01*
X130631502Y-127373346D01*
X130631502Y-127216598D01*
X130530562Y-127216598D01*
X130561500Y-127141907D01*
X130561500Y-127049348D01*
X130402750Y-126890598D01*
X129603500Y-126890598D01*
X129603500Y-126912598D01*
X129349500Y-126912598D01*
X129349500Y-126890598D01*
X129329500Y-126890598D01*
X129329500Y-126640598D01*
X129349500Y-126640598D01*
X129349500Y-126618598D01*
X129603500Y-126618598D01*
X129603500Y-126640598D01*
X130402750Y-126640598D01*
X130561500Y-126481848D01*
X130561500Y-126389289D01*
X130464827Y-126155900D01*
X130323590Y-126014662D01*
X130377941Y-125979688D01*
X130522931Y-125767488D01*
X130545716Y-125654972D01*
X131219500Y-126328756D01*
X131219500Y-126328756D01*
G37*
X131219500Y-126328756D02*
X131219500Y-127418572D01*
X131114198Y-127313271D01*
X130880809Y-127216598D01*
X130788250Y-127216598D01*
X130631502Y-127373346D01*
X130631502Y-127216598D01*
X130530562Y-127216598D01*
X130561500Y-127141907D01*
X130561500Y-127049348D01*
X130402750Y-126890598D01*
X129603500Y-126890598D01*
X129603500Y-126912598D01*
X129349500Y-126912598D01*
X129349500Y-126890598D01*
X129329500Y-126890598D01*
X129329500Y-126640598D01*
X129349500Y-126640598D01*
X129349500Y-126618598D01*
X129603500Y-126618598D01*
X129603500Y-126640598D01*
X130402750Y-126640598D01*
X130561500Y-126481848D01*
X130561500Y-126389289D01*
X130464827Y-126155900D01*
X130323590Y-126014662D01*
X130377941Y-125979688D01*
X130522931Y-125767488D01*
X130545716Y-125654972D01*
X131219500Y-126328756D01*
G36*
X133892060Y-127375598D02*
X133765300Y-127375598D01*
X133765300Y-127081598D01*
X133892060Y-127081598D01*
X133892060Y-127375598D01*
X133892060Y-127375598D01*
G37*
X133892060Y-127375598D02*
X133765300Y-127375598D01*
X133765300Y-127081598D01*
X133892060Y-127081598D01*
X133892060Y-127375598D01*
G36*
X132104050Y-119410998D02*
X133056550Y-119410998D01*
X133076550Y-119390998D01*
X133234050Y-119390998D01*
X133254050Y-119410998D01*
X134206550Y-119410998D01*
X134226550Y-119390998D01*
X134384050Y-119390998D01*
X134404050Y-119410998D01*
X135356550Y-119410998D01*
X135376550Y-119390998D01*
X135582300Y-119390998D01*
X135582300Y-119410998D01*
X135602300Y-119410998D01*
X135602300Y-119616748D01*
X135582300Y-119636748D01*
X135582300Y-120589248D01*
X135602300Y-120609248D01*
X135602300Y-120766748D01*
X135582300Y-120786748D01*
X135582300Y-121739248D01*
X135602300Y-121759248D01*
X135602300Y-121916748D01*
X135582300Y-121936748D01*
X135582300Y-122889248D01*
X135602300Y-122909248D01*
X135602300Y-123114998D01*
X135582300Y-123114998D01*
X135582300Y-123134998D01*
X135376550Y-123134998D01*
X135356550Y-123114998D01*
X134404050Y-123114998D01*
X134384050Y-123134998D01*
X134226550Y-123134998D01*
X134206550Y-123114998D01*
X133254050Y-123114998D01*
X133234050Y-123134998D01*
X133076550Y-123134998D01*
X133056550Y-123114998D01*
X132104050Y-123114998D01*
X132084050Y-123134998D01*
X131878300Y-123134998D01*
X131878300Y-123114998D01*
X131858300Y-123114998D01*
X131858300Y-122909248D01*
X131878300Y-122889248D01*
X131878300Y-121936748D01*
X131858300Y-121916748D01*
X131858300Y-121759248D01*
X131878300Y-121739248D01*
X131878300Y-120786748D01*
X131858300Y-120766748D01*
X131858300Y-120609248D01*
X131878300Y-120589248D01*
X131878300Y-119823748D01*
X131945300Y-119823748D01*
X131945300Y-120402248D01*
X132104050Y-120560998D01*
X132130274Y-120560998D01*
X132132300Y-120563023D01*
X132132300Y-120589248D01*
X132231050Y-120687998D01*
X132132300Y-120786748D01*
X132132300Y-120812973D01*
X132130274Y-120814998D01*
X132104050Y-120814998D01*
X131945300Y-120973748D01*
X131945300Y-121552248D01*
X132104050Y-121710998D01*
X132130274Y-121710998D01*
X132132300Y-121713023D01*
X132132300Y-121739248D01*
X132231050Y-121837998D01*
X132132300Y-121936748D01*
X132132300Y-121962973D01*
X132130274Y-121964998D01*
X132104050Y-121964998D01*
X131945300Y-122123748D01*
X131945300Y-122702248D01*
X132104050Y-122860998D01*
X132130274Y-122860998D01*
X132132300Y-122863023D01*
X132132300Y-122889248D01*
X132291050Y-123047998D01*
X132869550Y-123047998D01*
X133028300Y-122889248D01*
X133028300Y-122863023D01*
X133030326Y-122860998D01*
X133056550Y-122860998D01*
X133155300Y-122762248D01*
X133254050Y-122860998D01*
X133280274Y-122860998D01*
X133282300Y-122863023D01*
X133282300Y-122889248D01*
X133441050Y-123047998D01*
X134019550Y-123047998D01*
X134178300Y-122889248D01*
X134178300Y-122863023D01*
X134180326Y-122860998D01*
X134206550Y-122860998D01*
X134305300Y-122762248D01*
X134404050Y-122860998D01*
X134430274Y-122860998D01*
X134432300Y-122863023D01*
X134432300Y-122889248D01*
X134591050Y-123047998D01*
X135169550Y-123047998D01*
X135328300Y-122889248D01*
X135328300Y-122863023D01*
X135330326Y-122860998D01*
X135356550Y-122860998D01*
X135515300Y-122702248D01*
X135515300Y-122123748D01*
X135356550Y-121964998D01*
X135330326Y-121964998D01*
X135328300Y-121962973D01*
X135328300Y-121936748D01*
X135229550Y-121837998D01*
X135328300Y-121739248D01*
X135328300Y-121713023D01*
X135330326Y-121710998D01*
X135356550Y-121710998D01*
X135515300Y-121552248D01*
X135515300Y-120973748D01*
X135356550Y-120814998D01*
X135330326Y-120814998D01*
X135328300Y-120812973D01*
X135328300Y-120786748D01*
X135229550Y-120687998D01*
X135328300Y-120589248D01*
X135328300Y-120563023D01*
X135330326Y-120560998D01*
X135356550Y-120560998D01*
X135515300Y-120402248D01*
X135515300Y-119823748D01*
X135356550Y-119664998D01*
X135330326Y-119664998D01*
X135328300Y-119662973D01*
X135328300Y-119636748D01*
X135169550Y-119477998D01*
X134591050Y-119477998D01*
X134432300Y-119636748D01*
X134432300Y-119662973D01*
X134430274Y-119664998D01*
X134404050Y-119664998D01*
X134305300Y-119763748D01*
X134206550Y-119664998D01*
X134180326Y-119664998D01*
X134178300Y-119662973D01*
X134178300Y-119636748D01*
X134019550Y-119477998D01*
X133441050Y-119477998D01*
X133282300Y-119636748D01*
X133282300Y-119662973D01*
X133280274Y-119664998D01*
X133254050Y-119664998D01*
X133155300Y-119763748D01*
X133056550Y-119664998D01*
X133030326Y-119664998D01*
X133028300Y-119662973D01*
X133028300Y-119636748D01*
X132869550Y-119477998D01*
X132291050Y-119477998D01*
X132132300Y-119636748D01*
X132132300Y-119662973D01*
X132130274Y-119664998D01*
X132104050Y-119664998D01*
X131945300Y-119823748D01*
X131878300Y-119823748D01*
X131878300Y-119636748D01*
X131858300Y-119616748D01*
X131858300Y-119410998D01*
X131878300Y-119410998D01*
X131878300Y-119390998D01*
X132084050Y-119390998D01*
X132104050Y-119410998D01*
X132104050Y-119410998D01*
G37*
X132104050Y-119410998D02*
X133056550Y-119410998D01*
X133076550Y-119390998D01*
X133234050Y-119390998D01*
X133254050Y-119410998D01*
X134206550Y-119410998D01*
X134226550Y-119390998D01*
X134384050Y-119390998D01*
X134404050Y-119410998D01*
X135356550Y-119410998D01*
X135376550Y-119390998D01*
X135582300Y-119390998D01*
X135582300Y-119410998D01*
X135602300Y-119410998D01*
X135602300Y-119616748D01*
X135582300Y-119636748D01*
X135582300Y-120589248D01*
X135602300Y-120609248D01*
X135602300Y-120766748D01*
X135582300Y-120786748D01*
X135582300Y-121739248D01*
X135602300Y-121759248D01*
X135602300Y-121916748D01*
X135582300Y-121936748D01*
X135582300Y-122889248D01*
X135602300Y-122909248D01*
X135602300Y-123114998D01*
X135582300Y-123114998D01*
X135582300Y-123134998D01*
X135376550Y-123134998D01*
X135356550Y-123114998D01*
X134404050Y-123114998D01*
X134384050Y-123134998D01*
X134226550Y-123134998D01*
X134206550Y-123114998D01*
X133254050Y-123114998D01*
X133234050Y-123134998D01*
X133076550Y-123134998D01*
X133056550Y-123114998D01*
X132104050Y-123114998D01*
X132084050Y-123134998D01*
X131878300Y-123134998D01*
X131878300Y-123114998D01*
X131858300Y-123114998D01*
X131858300Y-122909248D01*
X131878300Y-122889248D01*
X131878300Y-121936748D01*
X131858300Y-121916748D01*
X131858300Y-121759248D01*
X131878300Y-121739248D01*
X131878300Y-120786748D01*
X131858300Y-120766748D01*
X131858300Y-120609248D01*
X131878300Y-120589248D01*
X131878300Y-119823748D01*
X131945300Y-119823748D01*
X131945300Y-120402248D01*
X132104050Y-120560998D01*
X132130274Y-120560998D01*
X132132300Y-120563023D01*
X132132300Y-120589248D01*
X132231050Y-120687998D01*
X132132300Y-120786748D01*
X132132300Y-120812973D01*
X132130274Y-120814998D01*
X132104050Y-120814998D01*
X131945300Y-120973748D01*
X131945300Y-121552248D01*
X132104050Y-121710998D01*
X132130274Y-121710998D01*
X132132300Y-121713023D01*
X132132300Y-121739248D01*
X132231050Y-121837998D01*
X132132300Y-121936748D01*
X132132300Y-121962973D01*
X132130274Y-121964998D01*
X132104050Y-121964998D01*
X131945300Y-122123748D01*
X131945300Y-122702248D01*
X132104050Y-122860998D01*
X132130274Y-122860998D01*
X132132300Y-122863023D01*
X132132300Y-122889248D01*
X132291050Y-123047998D01*
X132869550Y-123047998D01*
X133028300Y-122889248D01*
X133028300Y-122863023D01*
X133030326Y-122860998D01*
X133056550Y-122860998D01*
X133155300Y-122762248D01*
X133254050Y-122860998D01*
X133280274Y-122860998D01*
X133282300Y-122863023D01*
X133282300Y-122889248D01*
X133441050Y-123047998D01*
X134019550Y-123047998D01*
X134178300Y-122889248D01*
X134178300Y-122863023D01*
X134180326Y-122860998D01*
X134206550Y-122860998D01*
X134305300Y-122762248D01*
X134404050Y-122860998D01*
X134430274Y-122860998D01*
X134432300Y-122863023D01*
X134432300Y-122889248D01*
X134591050Y-123047998D01*
X135169550Y-123047998D01*
X135328300Y-122889248D01*
X135328300Y-122863023D01*
X135330326Y-122860998D01*
X135356550Y-122860998D01*
X135515300Y-122702248D01*
X135515300Y-122123748D01*
X135356550Y-121964998D01*
X135330326Y-121964998D01*
X135328300Y-121962973D01*
X135328300Y-121936748D01*
X135229550Y-121837998D01*
X135328300Y-121739248D01*
X135328300Y-121713023D01*
X135330326Y-121710998D01*
X135356550Y-121710998D01*
X135515300Y-121552248D01*
X135515300Y-120973748D01*
X135356550Y-120814998D01*
X135330326Y-120814998D01*
X135328300Y-120812973D01*
X135328300Y-120786748D01*
X135229550Y-120687998D01*
X135328300Y-120589248D01*
X135328300Y-120563023D01*
X135330326Y-120560998D01*
X135356550Y-120560998D01*
X135515300Y-120402248D01*
X135515300Y-119823748D01*
X135356550Y-119664998D01*
X135330326Y-119664998D01*
X135328300Y-119662973D01*
X135328300Y-119636748D01*
X135169550Y-119477998D01*
X134591050Y-119477998D01*
X134432300Y-119636748D01*
X134432300Y-119662973D01*
X134430274Y-119664998D01*
X134404050Y-119664998D01*
X134305300Y-119763748D01*
X134206550Y-119664998D01*
X134180326Y-119664998D01*
X134178300Y-119662973D01*
X134178300Y-119636748D01*
X134019550Y-119477998D01*
X133441050Y-119477998D01*
X133282300Y-119636748D01*
X133282300Y-119662973D01*
X133280274Y-119664998D01*
X133254050Y-119664998D01*
X133155300Y-119763748D01*
X133056550Y-119664998D01*
X133030326Y-119664998D01*
X133028300Y-119662973D01*
X133028300Y-119636748D01*
X132869550Y-119477998D01*
X132291050Y-119477998D01*
X132132300Y-119636748D01*
X132132300Y-119662973D01*
X132130274Y-119664998D01*
X132104050Y-119664998D01*
X131945300Y-119823748D01*
X131878300Y-119823748D01*
X131878300Y-119636748D01*
X131858300Y-119616748D01*
X131858300Y-119410998D01*
X131878300Y-119410998D01*
X131878300Y-119390998D01*
X132084050Y-119390998D01*
X132104050Y-119410998D01*
G36*
X133254050Y-121710998D02*
X133280274Y-121710998D01*
X133282300Y-121713023D01*
X133282300Y-121739248D01*
X133381050Y-121837998D01*
X133282300Y-121936748D01*
X133282300Y-121962973D01*
X133280274Y-121964998D01*
X133254050Y-121964998D01*
X133155300Y-122063748D01*
X133056550Y-121964998D01*
X133030326Y-121964998D01*
X133028300Y-121962973D01*
X133028300Y-121936748D01*
X132929550Y-121837998D01*
X133028300Y-121739248D01*
X133028300Y-121713023D01*
X133030326Y-121710998D01*
X133056550Y-121710998D01*
X133155300Y-121612248D01*
X133254050Y-121710998D01*
X133254050Y-121710998D01*
G37*
X133254050Y-121710998D02*
X133280274Y-121710998D01*
X133282300Y-121713023D01*
X133282300Y-121739248D01*
X133381050Y-121837998D01*
X133282300Y-121936748D01*
X133282300Y-121962973D01*
X133280274Y-121964998D01*
X133254050Y-121964998D01*
X133155300Y-122063748D01*
X133056550Y-121964998D01*
X133030326Y-121964998D01*
X133028300Y-121962973D01*
X133028300Y-121936748D01*
X132929550Y-121837998D01*
X133028300Y-121739248D01*
X133028300Y-121713023D01*
X133030326Y-121710998D01*
X133056550Y-121710998D01*
X133155300Y-121612248D01*
X133254050Y-121710998D01*
G36*
X134404050Y-121710998D02*
X134430274Y-121710998D01*
X134432300Y-121713023D01*
X134432300Y-121739248D01*
X134531050Y-121837998D01*
X134432300Y-121936748D01*
X134432300Y-121962973D01*
X134430274Y-121964998D01*
X134404050Y-121964998D01*
X134305300Y-122063748D01*
X134206550Y-121964998D01*
X134180326Y-121964998D01*
X134178300Y-121962973D01*
X134178300Y-121936748D01*
X134079550Y-121837998D01*
X134178300Y-121739248D01*
X134178300Y-121713023D01*
X134180326Y-121710998D01*
X134206550Y-121710998D01*
X134305300Y-121612248D01*
X134404050Y-121710998D01*
X134404050Y-121710998D01*
G37*
X134404050Y-121710998D02*
X134430274Y-121710998D01*
X134432300Y-121713023D01*
X134432300Y-121739248D01*
X134531050Y-121837998D01*
X134432300Y-121936748D01*
X134432300Y-121962973D01*
X134430274Y-121964998D01*
X134404050Y-121964998D01*
X134305300Y-122063748D01*
X134206550Y-121964998D01*
X134180326Y-121964998D01*
X134178300Y-121962973D01*
X134178300Y-121936748D01*
X134079550Y-121837998D01*
X134178300Y-121739248D01*
X134178300Y-121713023D01*
X134180326Y-121710998D01*
X134206550Y-121710998D01*
X134305300Y-121612248D01*
X134404050Y-121710998D01*
G36*
X134404050Y-120560998D02*
X134430274Y-120560998D01*
X134432300Y-120563023D01*
X134432300Y-120589248D01*
X134531050Y-120687998D01*
X134432300Y-120786748D01*
X134432300Y-120812973D01*
X134430274Y-120814998D01*
X134404050Y-120814998D01*
X134305300Y-120913748D01*
X134206550Y-120814998D01*
X134180326Y-120814998D01*
X134178300Y-120812973D01*
X134178300Y-120786748D01*
X134079550Y-120687998D01*
X134178300Y-120589248D01*
X134178300Y-120563023D01*
X134180326Y-120560998D01*
X134206550Y-120560998D01*
X134305300Y-120462248D01*
X134404050Y-120560998D01*
X134404050Y-120560998D01*
G37*
X134404050Y-120560998D02*
X134430274Y-120560998D01*
X134432300Y-120563023D01*
X134432300Y-120589248D01*
X134531050Y-120687998D01*
X134432300Y-120786748D01*
X134432300Y-120812973D01*
X134430274Y-120814998D01*
X134404050Y-120814998D01*
X134305300Y-120913748D01*
X134206550Y-120814998D01*
X134180326Y-120814998D01*
X134178300Y-120812973D01*
X134178300Y-120786748D01*
X134079550Y-120687998D01*
X134178300Y-120589248D01*
X134178300Y-120563023D01*
X134180326Y-120560998D01*
X134206550Y-120560998D01*
X134305300Y-120462248D01*
X134404050Y-120560998D01*
G36*
X133254050Y-120560998D02*
X133280274Y-120560998D01*
X133282300Y-120563023D01*
X133282300Y-120589248D01*
X133381050Y-120687998D01*
X133282300Y-120786748D01*
X133282300Y-120812973D01*
X133280274Y-120814998D01*
X133254050Y-120814998D01*
X133155300Y-120913748D01*
X133056550Y-120814998D01*
X133030326Y-120814998D01*
X133028300Y-120812973D01*
X133028300Y-120786748D01*
X132929550Y-120687998D01*
X133028300Y-120589248D01*
X133028300Y-120563023D01*
X133030326Y-120560998D01*
X133056550Y-120560998D01*
X133155300Y-120462248D01*
X133254050Y-120560998D01*
X133254050Y-120560998D01*
G37*
X133254050Y-120560998D02*
X133280274Y-120560998D01*
X133282300Y-120563023D01*
X133282300Y-120589248D01*
X133381050Y-120687998D01*
X133282300Y-120786748D01*
X133282300Y-120812973D01*
X133280274Y-120814998D01*
X133254050Y-120814998D01*
X133155300Y-120913748D01*
X133056550Y-120814998D01*
X133030326Y-120814998D01*
X133028300Y-120812973D01*
X133028300Y-120786748D01*
X132929550Y-120687998D01*
X133028300Y-120589248D01*
X133028300Y-120563023D01*
X133030326Y-120560998D01*
X133056550Y-120560998D01*
X133155300Y-120462248D01*
X133254050Y-120560998D01*
G36*
X136449500Y-114458598D02*
X136469500Y-114458598D01*
X136469500Y-114712598D01*
X136449500Y-114712598D01*
X136449500Y-114732598D01*
X136195500Y-114732598D01*
X136195500Y-114712598D01*
X136175500Y-114712598D01*
X136175500Y-114458598D01*
X136195500Y-114458598D01*
X136195500Y-114438598D01*
X136449500Y-114438598D01*
X136449500Y-114458598D01*
X136449500Y-114458598D01*
G37*
X136449500Y-114458598D02*
X136469500Y-114458598D01*
X136469500Y-114712598D01*
X136449500Y-114712598D01*
X136449500Y-114732598D01*
X136195500Y-114732598D01*
X136195500Y-114712598D01*
X136175500Y-114712598D01*
X136175500Y-114458598D01*
X136195500Y-114458598D01*
X136195500Y-114438598D01*
X136449500Y-114438598D01*
X136449500Y-114458598D01*
G36*
X127021110Y-112102641D02*
X127233310Y-112247631D01*
X127485200Y-112298640D01*
X127713600Y-112298640D01*
X127713600Y-113898698D01*
X127773355Y-114199105D01*
X127837500Y-114295105D01*
X127837500Y-114458598D01*
X127857500Y-114458598D01*
X127857500Y-114712598D01*
X127837500Y-114712598D01*
X127837500Y-114732598D01*
X127583500Y-114732598D01*
X127583500Y-114712598D01*
X127563500Y-114712598D01*
X127563500Y-114458598D01*
X127583500Y-114458598D01*
X127583500Y-113734348D01*
X127424750Y-113575598D01*
X127184191Y-113575598D01*
X126972200Y-113663408D01*
X126972200Y-112026633D01*
X127021110Y-112102641D01*
X127021110Y-112102641D01*
G37*
X127021110Y-112102641D02*
X127233310Y-112247631D01*
X127485200Y-112298640D01*
X127713600Y-112298640D01*
X127713600Y-113898698D01*
X127773355Y-114199105D01*
X127837500Y-114295105D01*
X127837500Y-114458598D01*
X127857500Y-114458598D01*
X127857500Y-114712598D01*
X127837500Y-114712598D01*
X127837500Y-114732598D01*
X127583500Y-114732598D01*
X127583500Y-114712598D01*
X127563500Y-114712598D01*
X127563500Y-114458598D01*
X127583500Y-114458598D01*
X127583500Y-113734348D01*
X127424750Y-113575598D01*
X127184191Y-113575598D01*
X126972200Y-113663408D01*
X126972200Y-112026633D01*
X127021110Y-112102641D01*
G36*
X132618200Y-111784598D02*
X132556250Y-111784598D01*
X132397500Y-111943348D01*
X132397500Y-112692598D01*
X132417500Y-112692598D01*
X132417500Y-112946598D01*
X132397500Y-112946598D01*
X132397500Y-112966598D01*
X132255400Y-112966598D01*
X132255400Y-111493302D01*
X132216633Y-111298407D01*
X132195645Y-111192895D01*
X132025479Y-110938223D01*
X131910253Y-110822997D01*
X131910262Y-110812835D01*
X131768217Y-110469059D01*
X131674761Y-110375440D01*
X131826000Y-110375440D01*
X132061317Y-110331162D01*
X132277441Y-110192090D01*
X132302784Y-110155000D01*
X132618200Y-110155000D01*
X132618200Y-111784598D01*
X132618200Y-111784598D01*
G37*
X132618200Y-111784598D02*
X132556250Y-111784598D01*
X132397500Y-111943348D01*
X132397500Y-112692598D01*
X132417500Y-112692598D01*
X132417500Y-112946598D01*
X132397500Y-112946598D01*
X132397500Y-112966598D01*
X132255400Y-112966598D01*
X132255400Y-111493302D01*
X132216633Y-111298407D01*
X132195645Y-111192895D01*
X132025479Y-110938223D01*
X131910253Y-110822997D01*
X131910262Y-110812835D01*
X131768217Y-110469059D01*
X131674761Y-110375440D01*
X131826000Y-110375440D01*
X132061317Y-110331162D01*
X132277441Y-110192090D01*
X132302784Y-110155000D01*
X132618200Y-110155000D01*
X132618200Y-111784598D01*
M02*
