G04 #@! TF.GenerationSoftware,KiCad,Pcbnew,(2017-08-08 revision 53204e097)-makepkg*
G04 #@! TF.CreationDate,2017-10-18T16:30:53+02:00*
G04 #@! TF.ProjectId,LM510401A,4C4D353130343031412E6B696361645F,rev?*
G04 #@! TF.SameCoordinates,Original*
G04 #@! TF.FileFunction,Copper,L2,Bot,Signal*
G04 #@! TF.FilePolarity,Positive*
%FSLAX46Y46*%
G04 Gerber Fmt 4.6, Leading zero omitted, Abs format (unit mm)*
G04 Created by KiCad (PCBNEW (2017-08-08 revision 53204e097)-makepkg) date 10/18/17 16:30:53*
%MOMM*%
%LPD*%
G01*
G04 APERTURE LIST*
%ADD10R,2.032000X2.032000*%
%ADD11O,2.032000X2.032000*%
%ADD12R,2.032000X1.727200*%
%ADD13O,2.032000X1.727200*%
%ADD14C,4.000500*%
%ADD15C,6.400000*%
%ADD16C,0.500000*%
%ADD17C,0.300000*%
%ADD18C,0.254000*%
G04 APERTURE END LIST*
D10*
X137287000Y-100965000D03*
D11*
X139827000Y-100965000D03*
D12*
X118999000Y-94742000D03*
D13*
X118999000Y-97282000D03*
X118999000Y-99822000D03*
X118999000Y-102362000D03*
X118999000Y-104902000D03*
X118999000Y-107442000D03*
D14*
X149860000Y-87630000D03*
X139700000Y-87630000D03*
X149923500Y-113474500D03*
X139763500Y-113474500D03*
D15*
X119380000Y-86360000D03*
X119380000Y-116840000D03*
X152400000Y-101600000D03*
D16*
X133985000Y-104140000D03*
X133985000Y-102870000D03*
X132715000Y-104140000D03*
X132715000Y-102870000D03*
X131445000Y-104140000D03*
X130175000Y-102870000D03*
X131445000Y-102870000D03*
X130175000Y-95885000D03*
X132715000Y-95885000D03*
X131445000Y-95885000D03*
X133985000Y-94615000D03*
X133985000Y-95885000D03*
X130175000Y-104140000D03*
X132715000Y-94615000D03*
X131445000Y-94615000D03*
X130175000Y-94615000D03*
X125158500Y-94678502D03*
X121898815Y-96900499D03*
D17*
X133985000Y-102870000D02*
X133985000Y-104140000D01*
X131445000Y-104140000D02*
X132715000Y-104140000D01*
X131445000Y-102870000D02*
X132715000Y-102870000D01*
X130175000Y-96238553D02*
X130175000Y-102870000D01*
X130175000Y-95885000D02*
X130175000Y-96238553D01*
X130175000Y-95885000D02*
X131445000Y-95885000D01*
X132715000Y-95885000D02*
X133985000Y-95885000D01*
X132715000Y-94615000D02*
X133985000Y-94615000D01*
X133979161Y-94615000D02*
X132715000Y-94615000D01*
X130175000Y-94615000D02*
X131445000Y-94615000D01*
D18*
G36*
X157353000Y-121793000D02*
X114427000Y-121793000D01*
X114427000Y-113996384D01*
X147287793Y-113996384D01*
X147688141Y-114965299D01*
X148428802Y-115707254D01*
X149397017Y-116109292D01*
X150445384Y-116110207D01*
X151414299Y-115709859D01*
X152156254Y-114969198D01*
X152558292Y-114000983D01*
X152559207Y-112952616D01*
X152158859Y-111983701D01*
X151418198Y-111241746D01*
X150449983Y-110839708D01*
X149401616Y-110838793D01*
X148432701Y-111239141D01*
X147690746Y-111979802D01*
X147288708Y-112948017D01*
X147287793Y-113996384D01*
X114427000Y-113996384D01*
X114427000Y-102362000D01*
X117315655Y-102362000D01*
X117429729Y-102935489D01*
X117754585Y-103421670D01*
X118069366Y-103632000D01*
X117754585Y-103842330D01*
X117429729Y-104328511D01*
X117315655Y-104902000D01*
X117429729Y-105475489D01*
X117754585Y-105961670D01*
X118069366Y-106172000D01*
X117754585Y-106382330D01*
X117429729Y-106868511D01*
X117315655Y-107442000D01*
X117429729Y-108015489D01*
X117754585Y-108501670D01*
X118240766Y-108826526D01*
X118814255Y-108940600D01*
X119183745Y-108940600D01*
X119757234Y-108826526D01*
X120243415Y-108501670D01*
X120568271Y-108015489D01*
X120682345Y-107442000D01*
X120568271Y-106868511D01*
X120243415Y-106382330D01*
X119928634Y-106172000D01*
X120243415Y-105961670D01*
X120568271Y-105475489D01*
X120682345Y-104902000D01*
X120568271Y-104328511D01*
X120243415Y-103842330D01*
X119928634Y-103632000D01*
X120243415Y-103421670D01*
X120568271Y-102935489D01*
X120682345Y-102362000D01*
X120568271Y-101788511D01*
X120243415Y-101302330D01*
X119757234Y-100977474D01*
X119183745Y-100863400D01*
X118814255Y-100863400D01*
X118240766Y-100977474D01*
X117754585Y-101302330D01*
X117429729Y-101788511D01*
X117315655Y-102362000D01*
X114427000Y-102362000D01*
X114427000Y-99949000D01*
X135623560Y-99949000D01*
X135623560Y-101981000D01*
X135672843Y-102228765D01*
X135813191Y-102438809D01*
X136023235Y-102579157D01*
X136271000Y-102628440D01*
X138303000Y-102628440D01*
X138550765Y-102579157D01*
X138760809Y-102438809D01*
X138901157Y-102228765D01*
X138950440Y-101981000D01*
X138950440Y-99949000D01*
X138901157Y-99701235D01*
X138760809Y-99491191D01*
X138550765Y-99350843D01*
X138303000Y-99301560D01*
X136271000Y-99301560D01*
X136023235Y-99350843D01*
X135813191Y-99491191D01*
X135672843Y-99701235D01*
X135623560Y-99949000D01*
X114427000Y-99949000D01*
X114427000Y-97282000D01*
X117315655Y-97282000D01*
X117429729Y-97855489D01*
X117754585Y-98341670D01*
X118240766Y-98666526D01*
X118814255Y-98780600D01*
X119183745Y-98780600D01*
X119757234Y-98666526D01*
X120243415Y-98341670D01*
X120568271Y-97855489D01*
X120682345Y-97282000D01*
X120568271Y-96708511D01*
X120243415Y-96222330D01*
X119757234Y-95897474D01*
X119183745Y-95783400D01*
X118814255Y-95783400D01*
X118240766Y-95897474D01*
X117754585Y-96222330D01*
X117429729Y-96708511D01*
X117315655Y-97282000D01*
X114427000Y-97282000D01*
X114427000Y-88151884D01*
X147224293Y-88151884D01*
X147624641Y-89120799D01*
X148365302Y-89862754D01*
X149333517Y-90264792D01*
X150381884Y-90265707D01*
X151350799Y-89865359D01*
X152092754Y-89124698D01*
X152494792Y-88156483D01*
X152495707Y-87108116D01*
X152095359Y-86139201D01*
X151354698Y-85397246D01*
X150386483Y-84995208D01*
X149338116Y-84994293D01*
X148369201Y-85394641D01*
X147627246Y-86135302D01*
X147225208Y-87103517D01*
X147224293Y-88151884D01*
X114427000Y-88151884D01*
X114427000Y-81407000D01*
X157353000Y-81407000D01*
X157353000Y-121793000D01*
X157353000Y-121793000D01*
G37*
X157353000Y-121793000D02*
X114427000Y-121793000D01*
X114427000Y-113996384D01*
X147287793Y-113996384D01*
X147688141Y-114965299D01*
X148428802Y-115707254D01*
X149397017Y-116109292D01*
X150445384Y-116110207D01*
X151414299Y-115709859D01*
X152156254Y-114969198D01*
X152558292Y-114000983D01*
X152559207Y-112952616D01*
X152158859Y-111983701D01*
X151418198Y-111241746D01*
X150449983Y-110839708D01*
X149401616Y-110838793D01*
X148432701Y-111239141D01*
X147690746Y-111979802D01*
X147288708Y-112948017D01*
X147287793Y-113996384D01*
X114427000Y-113996384D01*
X114427000Y-102362000D01*
X117315655Y-102362000D01*
X117429729Y-102935489D01*
X117754585Y-103421670D01*
X118069366Y-103632000D01*
X117754585Y-103842330D01*
X117429729Y-104328511D01*
X117315655Y-104902000D01*
X117429729Y-105475489D01*
X117754585Y-105961670D01*
X118069366Y-106172000D01*
X117754585Y-106382330D01*
X117429729Y-106868511D01*
X117315655Y-107442000D01*
X117429729Y-108015489D01*
X117754585Y-108501670D01*
X118240766Y-108826526D01*
X118814255Y-108940600D01*
X119183745Y-108940600D01*
X119757234Y-108826526D01*
X120243415Y-108501670D01*
X120568271Y-108015489D01*
X120682345Y-107442000D01*
X120568271Y-106868511D01*
X120243415Y-106382330D01*
X119928634Y-106172000D01*
X120243415Y-105961670D01*
X120568271Y-105475489D01*
X120682345Y-104902000D01*
X120568271Y-104328511D01*
X120243415Y-103842330D01*
X119928634Y-103632000D01*
X120243415Y-103421670D01*
X120568271Y-102935489D01*
X120682345Y-102362000D01*
X120568271Y-101788511D01*
X120243415Y-101302330D01*
X119757234Y-100977474D01*
X119183745Y-100863400D01*
X118814255Y-100863400D01*
X118240766Y-100977474D01*
X117754585Y-101302330D01*
X117429729Y-101788511D01*
X117315655Y-102362000D01*
X114427000Y-102362000D01*
X114427000Y-99949000D01*
X135623560Y-99949000D01*
X135623560Y-101981000D01*
X135672843Y-102228765D01*
X135813191Y-102438809D01*
X136023235Y-102579157D01*
X136271000Y-102628440D01*
X138303000Y-102628440D01*
X138550765Y-102579157D01*
X138760809Y-102438809D01*
X138901157Y-102228765D01*
X138950440Y-101981000D01*
X138950440Y-99949000D01*
X138901157Y-99701235D01*
X138760809Y-99491191D01*
X138550765Y-99350843D01*
X138303000Y-99301560D01*
X136271000Y-99301560D01*
X136023235Y-99350843D01*
X135813191Y-99491191D01*
X135672843Y-99701235D01*
X135623560Y-99949000D01*
X114427000Y-99949000D01*
X114427000Y-97282000D01*
X117315655Y-97282000D01*
X117429729Y-97855489D01*
X117754585Y-98341670D01*
X118240766Y-98666526D01*
X118814255Y-98780600D01*
X119183745Y-98780600D01*
X119757234Y-98666526D01*
X120243415Y-98341670D01*
X120568271Y-97855489D01*
X120682345Y-97282000D01*
X120568271Y-96708511D01*
X120243415Y-96222330D01*
X119757234Y-95897474D01*
X119183745Y-95783400D01*
X118814255Y-95783400D01*
X118240766Y-95897474D01*
X117754585Y-96222330D01*
X117429729Y-96708511D01*
X117315655Y-97282000D01*
X114427000Y-97282000D01*
X114427000Y-88151884D01*
X147224293Y-88151884D01*
X147624641Y-89120799D01*
X148365302Y-89862754D01*
X149333517Y-90264792D01*
X150381884Y-90265707D01*
X151350799Y-89865359D01*
X152092754Y-89124698D01*
X152494792Y-88156483D01*
X152495707Y-87108116D01*
X152095359Y-86139201D01*
X151354698Y-85397246D01*
X150386483Y-84995208D01*
X149338116Y-84994293D01*
X148369201Y-85394641D01*
X147627246Y-86135302D01*
X147225208Y-87103517D01*
X147224293Y-88151884D01*
X114427000Y-88151884D01*
X114427000Y-81407000D01*
X157353000Y-81407000D01*
X157353000Y-121793000D01*
M02*
