G04 #@! TF.GenerationSoftware,KiCad,Pcbnew,(2017-08-08 revision 53204e097)-makepkg*
G04 #@! TF.CreationDate,2017-10-18T16:30:53+02:00*
G04 #@! TF.ProjectId,LM510401A,4C4D353130343031412E6B696361645F,rev?*
G04 #@! TF.SameCoordinates,Original*
G04 #@! TF.FileFunction,Soldermask,Top*
G04 #@! TF.FilePolarity,Negative*
%FSLAX46Y46*%
G04 Gerber Fmt 4.6, Leading zero omitted, Abs format (unit mm)*
G04 Created by KiCad (PCBNEW (2017-08-08 revision 53204e097)-makepkg) date 10/18/17 16:30:53*
%MOMM*%
%LPD*%
G01*
G04 APERTURE LIST*
%ADD10R,1.000000X1.950000*%
%ADD11R,1.200000X1.150000*%
%ADD12R,2.432000X2.432000*%
%ADD13O,2.432000X2.432000*%
%ADD14R,3.300680X5.800040*%
%ADD15R,0.900000X1.300000*%
%ADD16R,0.908000X1.543000*%
%ADD17R,1.650000X1.400000*%
%ADD18R,2.900000X1.400000*%
%ADD19R,2.432000X2.127200*%
%ADD20O,2.432000X2.127200*%
%ADD21C,4.400500*%
%ADD22C,6.800000*%
G04 APERTURE END LIST*
D10*
X133908800Y-100728800D03*
X132638800Y-100728800D03*
X131368800Y-100728800D03*
X130098800Y-100728800D03*
X130098800Y-106128800D03*
X131368800Y-106128800D03*
X132638800Y-106128800D03*
X133908800Y-106128800D03*
D11*
X123432000Y-102997000D03*
X121932000Y-102997000D03*
D12*
X137287000Y-100965000D03*
D13*
X139827000Y-100965000D03*
D11*
X126453200Y-106680000D03*
X127953200Y-106680000D03*
X125387800Y-87884000D03*
X123887800Y-87884000D03*
D14*
X136857740Y-102641400D03*
X146860260Y-102641400D03*
D15*
X127191200Y-91795600D03*
X125691200Y-91795600D03*
X127927800Y-104927400D03*
X126427800Y-104927400D03*
X125387800Y-89941400D03*
X123887800Y-89941400D03*
D16*
X123901200Y-93624400D03*
X125171200Y-93624400D03*
X126441200Y-93624400D03*
X127711200Y-93624400D03*
X127711200Y-99974400D03*
X126441200Y-99974400D03*
X125171200Y-99974400D03*
X123901200Y-99974400D03*
D17*
X121894600Y-99983800D03*
X121894600Y-97983800D03*
D11*
X125691200Y-102997000D03*
X127191200Y-102997000D03*
D18*
X139954000Y-95124400D03*
X139954000Y-92124400D03*
X143357600Y-92124400D03*
X143357600Y-95124400D03*
X146812000Y-95124400D03*
X146812000Y-92124400D03*
X136525000Y-95124400D03*
X136525000Y-92124400D03*
D10*
X133908800Y-98026200D03*
X132638800Y-98026200D03*
X131368800Y-98026200D03*
X130098800Y-98026200D03*
X130098800Y-92626200D03*
X131368800Y-92626200D03*
X132638800Y-92626200D03*
X133908800Y-92626200D03*
D18*
X123063000Y-108609000D03*
X123063000Y-111609000D03*
X126619000Y-108609000D03*
X126619000Y-111609000D03*
X130136900Y-108570900D03*
X130136900Y-111570900D03*
X133692900Y-111570900D03*
X133692900Y-108570900D03*
D19*
X118999000Y-94742000D03*
D20*
X118999000Y-97282000D03*
X118999000Y-99822000D03*
X118999000Y-102362000D03*
X118999000Y-104902000D03*
X118999000Y-107442000D03*
D21*
X149860000Y-87630000D03*
X139700000Y-87630000D03*
X149923500Y-113474500D03*
X139763500Y-113474500D03*
D22*
X119380000Y-86360000D03*
X119380000Y-116840000D03*
X152400000Y-101600000D03*
M02*
