G04 #@! TF.GenerationSoftware,KiCad,Pcbnew,(2017-08-08 revision 53204e097)-makepkg*
G04 #@! TF.CreationDate,2017-10-18T16:30:53+02:00*
G04 #@! TF.ProjectId,LM510401A,4C4D353130343031412E6B696361645F,rev?*
G04 #@! TF.SameCoordinates,Original*
G04 #@! TF.FileFunction,Legend,Top*
G04 #@! TF.FilePolarity,Positive*
%FSLAX46Y46*%
G04 Gerber Fmt 4.6, Leading zero omitted, Abs format (unit mm)*
G04 Created by KiCad (PCBNEW (2017-08-08 revision 53204e097)-makepkg) date 10/18/17 16:30:53*
%MOMM*%
%LPD*%
G01*
G04 APERTURE LIST*
%ADD10C,0.300000*%
%ADD11C,0.150000*%
G04 APERTURE END LIST*
D10*
X142970500Y-111378071D02*
X143470500Y-112878071D01*
X143970500Y-111378071D01*
X145327642Y-112735214D02*
X145256214Y-112806642D01*
X145041928Y-112878071D01*
X144899071Y-112878071D01*
X144684785Y-112806642D01*
X144541928Y-112663785D01*
X144470500Y-112520928D01*
X144399071Y-112235214D01*
X144399071Y-112020928D01*
X144470500Y-111735214D01*
X144541928Y-111592357D01*
X144684785Y-111449500D01*
X144899071Y-111378071D01*
X145041928Y-111378071D01*
X145256214Y-111449500D01*
X145327642Y-111520928D01*
X146827642Y-112735214D02*
X146756214Y-112806642D01*
X146541928Y-112878071D01*
X146399071Y-112878071D01*
X146184785Y-112806642D01*
X146041928Y-112663785D01*
X145970500Y-112520928D01*
X145899071Y-112235214D01*
X145899071Y-112020928D01*
X145970500Y-111735214D01*
X146041928Y-111592357D01*
X146184785Y-111449500D01*
X146399071Y-111378071D01*
X146541928Y-111378071D01*
X146756214Y-111449500D01*
X146827642Y-111520928D01*
X143899071Y-113928071D02*
X143613357Y-113928071D01*
X143470500Y-113999500D01*
X143399071Y-114070928D01*
X143256214Y-114285214D01*
X143184785Y-114570928D01*
X143184785Y-115142357D01*
X143256214Y-115285214D01*
X143327642Y-115356642D01*
X143470500Y-115428071D01*
X143756214Y-115428071D01*
X143899071Y-115356642D01*
X143970500Y-115285214D01*
X144041928Y-115142357D01*
X144041928Y-114785214D01*
X143970500Y-114642357D01*
X143899071Y-114570928D01*
X143756214Y-114499500D01*
X143470500Y-114499500D01*
X143327642Y-114570928D01*
X143256214Y-114642357D01*
X143184785Y-114785214D01*
X144970500Y-113928071D02*
X145113357Y-113928071D01*
X145256214Y-113999500D01*
X145327642Y-114070928D01*
X145399071Y-114213785D01*
X145470500Y-114499500D01*
X145470500Y-114856642D01*
X145399071Y-115142357D01*
X145327642Y-115285214D01*
X145256214Y-115356642D01*
X145113357Y-115428071D01*
X144970500Y-115428071D01*
X144827642Y-115356642D01*
X144756214Y-115285214D01*
X144684785Y-115142357D01*
X144613357Y-114856642D01*
X144613357Y-114499500D01*
X144684785Y-114213785D01*
X144756214Y-114070928D01*
X144827642Y-113999500D01*
X144970500Y-113928071D01*
X145899071Y-113928071D02*
X146399071Y-115428071D01*
X146899071Y-113928071D01*
X143280000Y-85533571D02*
X143565714Y-85533571D01*
X143708571Y-85605000D01*
X143851428Y-85747857D01*
X143922857Y-86033571D01*
X143922857Y-86533571D01*
X143851428Y-86819285D01*
X143708571Y-86962142D01*
X143565714Y-87033571D01*
X143280000Y-87033571D01*
X143137142Y-86962142D01*
X142994285Y-86819285D01*
X142922857Y-86533571D01*
X142922857Y-86033571D01*
X142994285Y-85747857D01*
X143137142Y-85605000D01*
X143280000Y-85533571D01*
X144565714Y-85533571D02*
X144565714Y-86747857D01*
X144637142Y-86890714D01*
X144708571Y-86962142D01*
X144851428Y-87033571D01*
X145137142Y-87033571D01*
X145280000Y-86962142D01*
X145351428Y-86890714D01*
X145422857Y-86747857D01*
X145422857Y-85533571D01*
X145922857Y-85533571D02*
X146780000Y-85533571D01*
X146351428Y-87033571D02*
X146351428Y-85533571D01*
X144494285Y-88083571D02*
X143780000Y-88083571D01*
X143708571Y-88797857D01*
X143780000Y-88726428D01*
X143922857Y-88655000D01*
X144280000Y-88655000D01*
X144422857Y-88726428D01*
X144494285Y-88797857D01*
X144565714Y-88940714D01*
X144565714Y-89297857D01*
X144494285Y-89440714D01*
X144422857Y-89512142D01*
X144280000Y-89583571D01*
X143922857Y-89583571D01*
X143780000Y-89512142D01*
X143708571Y-89440714D01*
X145137142Y-89155000D02*
X145851428Y-89155000D01*
X144994285Y-89583571D02*
X145494285Y-88083571D01*
X145994285Y-89583571D01*
X150407000Y-110065357D02*
X149264142Y-110065357D01*
X149835571Y-109493928D02*
X149835571Y-110636785D01*
X140549857Y-110065357D02*
X139407000Y-110065357D01*
X139089500Y-84562142D02*
X140232357Y-84562142D01*
X148946642Y-84562142D02*
X150089500Y-84562142D01*
X149518071Y-85133571D02*
X149518071Y-83990714D01*
D11*
X134578800Y-101353800D02*
X134433800Y-101353800D01*
X134578800Y-105503800D02*
X134433800Y-105503800D01*
X129428800Y-105503800D02*
X129573800Y-105503800D01*
X129428800Y-101353800D02*
X129573800Y-101353800D01*
X134578800Y-101353800D02*
X134578800Y-105503800D01*
X129428800Y-101353800D02*
X129428800Y-105503800D01*
X134433800Y-101353800D02*
X134433800Y-99953800D01*
X123032000Y-103597000D02*
X122332000Y-103597000D01*
X122332000Y-102397000D02*
X123032000Y-102397000D01*
X138557000Y-99695000D02*
X141097000Y-99695000D01*
X135737000Y-99415000D02*
X137287000Y-99415000D01*
X138557000Y-99695000D02*
X138557000Y-102235000D01*
X137287000Y-102515000D02*
X135737000Y-102515000D01*
X135737000Y-102515000D02*
X135737000Y-99415000D01*
X138557000Y-102235000D02*
X141097000Y-102235000D01*
X141097000Y-102235000D02*
X141097000Y-99695000D01*
X126853200Y-106080000D02*
X127553200Y-106080000D01*
X127553200Y-107280000D02*
X126853200Y-107280000D01*
X124987800Y-88484000D02*
X124287800Y-88484000D01*
X124287800Y-87284000D02*
X124987800Y-87284000D01*
X146860260Y-102641400D02*
G75*
G03X146860260Y-102641400I-5001260J0D01*
G01*
X135859520Y-102641400D02*
X135859520Y-97640140D01*
X135859520Y-97640140D02*
X136857740Y-96641920D01*
X136857740Y-96641920D02*
X146860260Y-96641920D01*
X146860260Y-96641920D02*
X147858480Y-97640140D01*
X147858480Y-97640140D02*
X147858480Y-107642660D01*
X147858480Y-107642660D02*
X146860260Y-108640880D01*
X146860260Y-108640880D02*
X136857740Y-108640880D01*
X136857740Y-108640880D02*
X135859520Y-107642660D01*
X135859520Y-107642660D02*
X135859520Y-102641400D01*
X125941200Y-91120600D02*
X126941200Y-91120600D01*
X126941200Y-92470600D02*
X125941200Y-92470600D01*
X126677800Y-104252400D02*
X127677800Y-104252400D01*
X127677800Y-105602400D02*
X126677800Y-105602400D01*
X124137800Y-89266400D02*
X125137800Y-89266400D01*
X125137800Y-90616400D02*
X124137800Y-90616400D01*
X123266200Y-94513400D02*
X128346200Y-94513400D01*
X128346200Y-94513400D02*
X128346200Y-99085400D01*
X128346200Y-99085400D02*
X123266200Y-99085400D01*
X123266200Y-99085400D02*
X123266200Y-94513400D01*
X123266200Y-96037400D02*
X123774200Y-96037400D01*
X123774200Y-96037400D02*
X123774200Y-97307400D01*
X123774200Y-97307400D02*
X123266200Y-97307400D01*
X121044600Y-98483800D02*
X121044600Y-99483800D01*
X122744600Y-99483800D02*
X122744600Y-98483800D01*
X126091200Y-102397000D02*
X126791200Y-102397000D01*
X126791200Y-103597000D02*
X126091200Y-103597000D01*
X138479000Y-92624400D02*
X138479000Y-94624400D01*
X141429000Y-94624400D02*
X141429000Y-92624400D01*
X144832600Y-94624400D02*
X144832600Y-92624400D01*
X141882600Y-92624400D02*
X141882600Y-94624400D01*
X145337000Y-92624400D02*
X145337000Y-94624400D01*
X148287000Y-94624400D02*
X148287000Y-92624400D01*
X135050000Y-92624400D02*
X135050000Y-94624400D01*
X138000000Y-94624400D02*
X138000000Y-92624400D01*
X134433800Y-93251200D02*
X134433800Y-91851200D01*
X129428800Y-93251200D02*
X129428800Y-97401200D01*
X134578800Y-93251200D02*
X134578800Y-97401200D01*
X129428800Y-93251200D02*
X129573800Y-93251200D01*
X129428800Y-97401200D02*
X129573800Y-97401200D01*
X134578800Y-97401200D02*
X134433800Y-97401200D01*
X134578800Y-93251200D02*
X134433800Y-93251200D01*
X124538000Y-111109000D02*
X124538000Y-109109000D01*
X121588000Y-109109000D02*
X121588000Y-111109000D01*
X128094000Y-111109000D02*
X128094000Y-109109000D01*
X125144000Y-109109000D02*
X125144000Y-111109000D01*
X131611900Y-111070900D02*
X131611900Y-109070900D01*
X128661900Y-109070900D02*
X128661900Y-111070900D01*
X132217900Y-109070900D02*
X132217900Y-111070900D01*
X135167900Y-111070900D02*
X135167900Y-109070900D01*
X120269000Y-96012000D02*
X120269000Y-108712000D01*
X120269000Y-108712000D02*
X117729000Y-108712000D01*
X117729000Y-108712000D02*
X117729000Y-96012000D01*
X120549000Y-93192000D02*
X120549000Y-94742000D01*
X120269000Y-96012000D02*
X117729000Y-96012000D01*
X117449000Y-94742000D02*
X117449000Y-93192000D01*
X117449000Y-93192000D02*
X120549000Y-93192000D01*
X131103619Y-103600238D02*
X131056000Y-103695476D01*
X130960761Y-103790714D01*
X130817904Y-103933571D01*
X130770285Y-104028809D01*
X130770285Y-104124047D01*
X131008380Y-104076428D02*
X130960761Y-104171666D01*
X130865523Y-104266904D01*
X130675047Y-104314523D01*
X130341714Y-104314523D01*
X130151238Y-104266904D01*
X130056000Y-104171666D01*
X130008380Y-104076428D01*
X130008380Y-103885952D01*
X130056000Y-103790714D01*
X130151238Y-103695476D01*
X130341714Y-103647857D01*
X130675047Y-103647857D01*
X130865523Y-103695476D01*
X130960761Y-103790714D01*
X131008380Y-103885952D01*
X131008380Y-104076428D01*
X130103619Y-103266904D02*
X130056000Y-103219285D01*
X130008380Y-103124047D01*
X130008380Y-102885952D01*
X130056000Y-102790714D01*
X130103619Y-102743095D01*
X130198857Y-102695476D01*
X130294095Y-102695476D01*
X130436952Y-102743095D01*
X131008380Y-103314523D01*
X131008380Y-102695476D01*
X121867704Y-102052380D02*
X121867704Y-101052380D01*
X122105800Y-101052380D01*
X122248657Y-101100000D01*
X122343895Y-101195238D01*
X122391514Y-101290476D01*
X122439133Y-101480952D01*
X122439133Y-101623809D01*
X122391514Y-101814285D01*
X122343895Y-101909523D01*
X122248657Y-102004761D01*
X122105800Y-102052380D01*
X121867704Y-102052380D01*
X123391514Y-102052380D02*
X122820085Y-102052380D01*
X123105800Y-102052380D02*
X123105800Y-101052380D01*
X123010561Y-101195238D01*
X122915323Y-101290476D01*
X122820085Y-101338095D01*
X141819380Y-101425333D02*
X142533666Y-101425333D01*
X142676523Y-101472952D01*
X142771761Y-101568190D01*
X142819380Y-101711047D01*
X142819380Y-101806285D01*
X141819380Y-101044380D02*
X141819380Y-100425333D01*
X142200333Y-100758666D01*
X142200333Y-100615809D01*
X142247952Y-100520571D01*
X142295571Y-100472952D01*
X142390809Y-100425333D01*
X142628904Y-100425333D01*
X142724142Y-100472952D01*
X142771761Y-100520571D01*
X142819380Y-100615809D01*
X142819380Y-100901523D01*
X142771761Y-100996761D01*
X142724142Y-101044380D01*
X123848904Y-107132380D02*
X123848904Y-106132380D01*
X124087000Y-106132380D01*
X124229857Y-106180000D01*
X124325095Y-106275238D01*
X124372714Y-106370476D01*
X124420333Y-106560952D01*
X124420333Y-106703809D01*
X124372714Y-106894285D01*
X124325095Y-106989523D01*
X124229857Y-107084761D01*
X124087000Y-107132380D01*
X123848904Y-107132380D01*
X124801285Y-106227619D02*
X124848904Y-106180000D01*
X124944142Y-106132380D01*
X125182238Y-106132380D01*
X125277476Y-106180000D01*
X125325095Y-106227619D01*
X125372714Y-106322857D01*
X125372714Y-106418095D01*
X125325095Y-106560952D01*
X124753666Y-107132380D01*
X125372714Y-107132380D01*
X126198404Y-88336380D02*
X126198404Y-87336380D01*
X126436500Y-87336380D01*
X126579357Y-87384000D01*
X126674595Y-87479238D01*
X126722214Y-87574476D01*
X126769833Y-87764952D01*
X126769833Y-87907809D01*
X126722214Y-88098285D01*
X126674595Y-88193523D01*
X126579357Y-88288761D01*
X126436500Y-88336380D01*
X126198404Y-88336380D01*
X127103166Y-87336380D02*
X127722214Y-87336380D01*
X127388880Y-87717333D01*
X127531738Y-87717333D01*
X127626976Y-87764952D01*
X127674595Y-87812571D01*
X127722214Y-87907809D01*
X127722214Y-88145904D01*
X127674595Y-88241142D01*
X127626976Y-88288761D01*
X127531738Y-88336380D01*
X127246023Y-88336380D01*
X127150785Y-88288761D01*
X127103166Y-88241142D01*
X149423380Y-107481666D02*
X149423380Y-107957857D01*
X148423380Y-107957857D01*
X149423380Y-106624523D02*
X149423380Y-107195952D01*
X149423380Y-106910238D02*
X148423380Y-106910238D01*
X148566238Y-107005476D01*
X148661476Y-107100714D01*
X148709095Y-107195952D01*
X124039333Y-92273380D02*
X123706000Y-91797190D01*
X123467904Y-92273380D02*
X123467904Y-91273380D01*
X123848857Y-91273380D01*
X123944095Y-91321000D01*
X123991714Y-91368619D01*
X124039333Y-91463857D01*
X124039333Y-91606714D01*
X123991714Y-91701952D01*
X123944095Y-91749571D01*
X123848857Y-91797190D01*
X123467904Y-91797190D01*
X124991714Y-92273380D02*
X124420285Y-92273380D01*
X124706000Y-92273380D02*
X124706000Y-91273380D01*
X124610761Y-91416238D01*
X124515523Y-91511476D01*
X124420285Y-91559095D01*
X124420333Y-105354380D02*
X124087000Y-104878190D01*
X123848904Y-105354380D02*
X123848904Y-104354380D01*
X124229857Y-104354380D01*
X124325095Y-104402000D01*
X124372714Y-104449619D01*
X124420333Y-104544857D01*
X124420333Y-104687714D01*
X124372714Y-104782952D01*
X124325095Y-104830571D01*
X124229857Y-104878190D01*
X123848904Y-104878190D01*
X124801285Y-104449619D02*
X124848904Y-104402000D01*
X124944142Y-104354380D01*
X125182238Y-104354380D01*
X125277476Y-104402000D01*
X125325095Y-104449619D01*
X125372714Y-104544857D01*
X125372714Y-104640095D01*
X125325095Y-104782952D01*
X124753666Y-105354380D01*
X125372714Y-105354380D01*
X126706333Y-90431880D02*
X126373000Y-89955690D01*
X126134904Y-90431880D02*
X126134904Y-89431880D01*
X126515857Y-89431880D01*
X126611095Y-89479500D01*
X126658714Y-89527119D01*
X126706333Y-89622357D01*
X126706333Y-89765214D01*
X126658714Y-89860452D01*
X126611095Y-89908071D01*
X126515857Y-89955690D01*
X126134904Y-89955690D01*
X127039666Y-89431880D02*
X127658714Y-89431880D01*
X127325380Y-89812833D01*
X127468238Y-89812833D01*
X127563476Y-89860452D01*
X127611095Y-89908071D01*
X127658714Y-90003309D01*
X127658714Y-90241404D01*
X127611095Y-90336642D01*
X127563476Y-90384261D01*
X127468238Y-90431880D01*
X127182523Y-90431880D01*
X127087285Y-90384261D01*
X127039666Y-90336642D01*
X125258580Y-97535904D02*
X126068104Y-97535904D01*
X126163342Y-97488285D01*
X126210961Y-97440666D01*
X126258580Y-97345428D01*
X126258580Y-97154952D01*
X126210961Y-97059714D01*
X126163342Y-97012095D01*
X126068104Y-96964476D01*
X125258580Y-96964476D01*
X126258580Y-95964476D02*
X126258580Y-96535904D01*
X126258580Y-96250190D02*
X125258580Y-96250190D01*
X125401438Y-96345428D01*
X125496676Y-96440666D01*
X125544295Y-96535904D01*
X120151742Y-99150466D02*
X120199361Y-99198085D01*
X120246980Y-99340942D01*
X120246980Y-99436180D01*
X120199361Y-99579038D01*
X120104123Y-99674276D01*
X120008885Y-99721895D01*
X119818409Y-99769514D01*
X119675552Y-99769514D01*
X119485076Y-99721895D01*
X119389838Y-99674276D01*
X119294600Y-99579038D01*
X119246980Y-99436180D01*
X119246980Y-99340942D01*
X119294600Y-99198085D01*
X119342219Y-99150466D01*
X120246980Y-98198085D02*
X120246980Y-98769514D01*
X120246980Y-98483800D02*
X119246980Y-98483800D01*
X119389838Y-98579038D01*
X119485076Y-98674276D01*
X119532695Y-98769514D01*
X126325333Y-101957142D02*
X126277714Y-102004761D01*
X126134857Y-102052380D01*
X126039619Y-102052380D01*
X125896761Y-102004761D01*
X125801523Y-101909523D01*
X125753904Y-101814285D01*
X125706285Y-101623809D01*
X125706285Y-101480952D01*
X125753904Y-101290476D01*
X125801523Y-101195238D01*
X125896761Y-101100000D01*
X126039619Y-101052380D01*
X126134857Y-101052380D01*
X126277714Y-101100000D01*
X126325333Y-101147619D01*
X126706285Y-101147619D02*
X126753904Y-101100000D01*
X126849142Y-101052380D01*
X127087238Y-101052380D01*
X127182476Y-101100000D01*
X127230095Y-101147619D01*
X127277714Y-101242857D01*
X127277714Y-101338095D01*
X127230095Y-101480952D01*
X126658666Y-102052380D01*
X127277714Y-102052380D01*
X139723833Y-91098642D02*
X139676214Y-91146261D01*
X139533357Y-91193880D01*
X139438119Y-91193880D01*
X139295261Y-91146261D01*
X139200023Y-91051023D01*
X139152404Y-90955785D01*
X139104785Y-90765309D01*
X139104785Y-90622452D01*
X139152404Y-90431976D01*
X139200023Y-90336738D01*
X139295261Y-90241500D01*
X139438119Y-90193880D01*
X139533357Y-90193880D01*
X139676214Y-90241500D01*
X139723833Y-90289119D01*
X140580976Y-90527214D02*
X140580976Y-91193880D01*
X140342880Y-90146261D02*
X140104785Y-90860547D01*
X140723833Y-90860547D01*
X143152833Y-91098642D02*
X143105214Y-91146261D01*
X142962357Y-91193880D01*
X142867119Y-91193880D01*
X142724261Y-91146261D01*
X142629023Y-91051023D01*
X142581404Y-90955785D01*
X142533785Y-90765309D01*
X142533785Y-90622452D01*
X142581404Y-90431976D01*
X142629023Y-90336738D01*
X142724261Y-90241500D01*
X142867119Y-90193880D01*
X142962357Y-90193880D01*
X143105214Y-90241500D01*
X143152833Y-90289119D01*
X144057595Y-90193880D02*
X143581404Y-90193880D01*
X143533785Y-90670071D01*
X143581404Y-90622452D01*
X143676642Y-90574833D01*
X143914738Y-90574833D01*
X144009976Y-90622452D01*
X144057595Y-90670071D01*
X144105214Y-90765309D01*
X144105214Y-91003404D01*
X144057595Y-91098642D01*
X144009976Y-91146261D01*
X143914738Y-91193880D01*
X143676642Y-91193880D01*
X143581404Y-91146261D01*
X143533785Y-91098642D01*
X146581833Y-91098642D02*
X146534214Y-91146261D01*
X146391357Y-91193880D01*
X146296119Y-91193880D01*
X146153261Y-91146261D01*
X146058023Y-91051023D01*
X146010404Y-90955785D01*
X145962785Y-90765309D01*
X145962785Y-90622452D01*
X146010404Y-90431976D01*
X146058023Y-90336738D01*
X146153261Y-90241500D01*
X146296119Y-90193880D01*
X146391357Y-90193880D01*
X146534214Y-90241500D01*
X146581833Y-90289119D01*
X147438976Y-90193880D02*
X147248500Y-90193880D01*
X147153261Y-90241500D01*
X147105642Y-90289119D01*
X147010404Y-90431976D01*
X146962785Y-90622452D01*
X146962785Y-91003404D01*
X147010404Y-91098642D01*
X147058023Y-91146261D01*
X147153261Y-91193880D01*
X147343738Y-91193880D01*
X147438976Y-91146261D01*
X147486595Y-91098642D01*
X147534214Y-91003404D01*
X147534214Y-90765309D01*
X147486595Y-90670071D01*
X147438976Y-90622452D01*
X147343738Y-90574833D01*
X147153261Y-90574833D01*
X147058023Y-90622452D01*
X147010404Y-90670071D01*
X146962785Y-90765309D01*
X136358333Y-91098642D02*
X136310714Y-91146261D01*
X136167857Y-91193880D01*
X136072619Y-91193880D01*
X135929761Y-91146261D01*
X135834523Y-91051023D01*
X135786904Y-90955785D01*
X135739285Y-90765309D01*
X135739285Y-90622452D01*
X135786904Y-90431976D01*
X135834523Y-90336738D01*
X135929761Y-90241500D01*
X136072619Y-90193880D01*
X136167857Y-90193880D01*
X136310714Y-90241500D01*
X136358333Y-90289119D01*
X136691666Y-90193880D02*
X137310714Y-90193880D01*
X136977380Y-90574833D01*
X137120238Y-90574833D01*
X137215476Y-90622452D01*
X137263095Y-90670071D01*
X137310714Y-90765309D01*
X137310714Y-91003404D01*
X137263095Y-91098642D01*
X137215476Y-91146261D01*
X137120238Y-91193880D01*
X136834523Y-91193880D01*
X136739285Y-91146261D01*
X136691666Y-91098642D01*
X131103619Y-95345238D02*
X131056000Y-95440476D01*
X130960761Y-95535714D01*
X130817904Y-95678571D01*
X130770285Y-95773809D01*
X130770285Y-95869047D01*
X131008380Y-95821428D02*
X130960761Y-95916666D01*
X130865523Y-96011904D01*
X130675047Y-96059523D01*
X130341714Y-96059523D01*
X130151238Y-96011904D01*
X130056000Y-95916666D01*
X130008380Y-95821428D01*
X130008380Y-95630952D01*
X130056000Y-95535714D01*
X130151238Y-95440476D01*
X130341714Y-95392857D01*
X130675047Y-95392857D01*
X130865523Y-95440476D01*
X130960761Y-95535714D01*
X131008380Y-95630952D01*
X131008380Y-95821428D01*
X131008380Y-94440476D02*
X131008380Y-95011904D01*
X131008380Y-94726190D02*
X130008380Y-94726190D01*
X130151238Y-94821428D01*
X130246476Y-94916666D01*
X130294095Y-95011904D01*
X123343942Y-113806266D02*
X123391561Y-113853885D01*
X123439180Y-113996742D01*
X123439180Y-114091980D01*
X123391561Y-114234838D01*
X123296323Y-114330076D01*
X123201085Y-114377695D01*
X123010609Y-114425314D01*
X122867752Y-114425314D01*
X122677276Y-114377695D01*
X122582038Y-114330076D01*
X122486800Y-114234838D01*
X122439180Y-114091980D01*
X122439180Y-113996742D01*
X122486800Y-113853885D01*
X122534419Y-113806266D01*
X122439180Y-113472933D02*
X122439180Y-112806266D01*
X123439180Y-113234838D01*
X127001542Y-113615766D02*
X127049161Y-113663385D01*
X127096780Y-113806242D01*
X127096780Y-113901480D01*
X127049161Y-114044338D01*
X126953923Y-114139576D01*
X126858685Y-114187195D01*
X126668209Y-114234814D01*
X126525352Y-114234814D01*
X126334876Y-114187195D01*
X126239638Y-114139576D01*
X126144400Y-114044338D01*
X126096780Y-113901480D01*
X126096780Y-113806242D01*
X126144400Y-113663385D01*
X126192019Y-113615766D01*
X126525352Y-113044338D02*
X126477733Y-113139576D01*
X126430114Y-113187195D01*
X126334876Y-113234814D01*
X126287257Y-113234814D01*
X126192019Y-113187195D01*
X126144400Y-113139576D01*
X126096780Y-113044338D01*
X126096780Y-112853861D01*
X126144400Y-112758623D01*
X126192019Y-112711004D01*
X126287257Y-112663385D01*
X126334876Y-112663385D01*
X126430114Y-112711004D01*
X126477733Y-112758623D01*
X126525352Y-112853861D01*
X126525352Y-113044338D01*
X126572971Y-113139576D01*
X126620590Y-113187195D01*
X126715828Y-113234814D01*
X126906304Y-113234814D01*
X127001542Y-113187195D01*
X127049161Y-113139576D01*
X127096780Y-113044338D01*
X127096780Y-112853861D01*
X127049161Y-112758623D01*
X127001542Y-112711004D01*
X126906304Y-112663385D01*
X126715828Y-112663385D01*
X126620590Y-112711004D01*
X126572971Y-112758623D01*
X126525352Y-112853861D01*
X130532142Y-113704666D02*
X130579761Y-113752285D01*
X130627380Y-113895142D01*
X130627380Y-113990380D01*
X130579761Y-114133238D01*
X130484523Y-114228476D01*
X130389285Y-114276095D01*
X130198809Y-114323714D01*
X130055952Y-114323714D01*
X129865476Y-114276095D01*
X129770238Y-114228476D01*
X129675000Y-114133238D01*
X129627380Y-113990380D01*
X129627380Y-113895142D01*
X129675000Y-113752285D01*
X129722619Y-113704666D01*
X130627380Y-113228476D02*
X130627380Y-113038000D01*
X130579761Y-112942761D01*
X130532142Y-112895142D01*
X130389285Y-112799904D01*
X130198809Y-112752285D01*
X129817857Y-112752285D01*
X129722619Y-112799904D01*
X129675000Y-112847523D01*
X129627380Y-112942761D01*
X129627380Y-113133238D01*
X129675000Y-113228476D01*
X129722619Y-113276095D01*
X129817857Y-113323714D01*
X130055952Y-113323714D01*
X130151190Y-113276095D01*
X130198809Y-113228476D01*
X130246428Y-113133238D01*
X130246428Y-112942761D01*
X130198809Y-112847523D01*
X130151190Y-112799904D01*
X130055952Y-112752285D01*
X134088142Y-114561857D02*
X134135761Y-114609476D01*
X134183380Y-114752333D01*
X134183380Y-114847571D01*
X134135761Y-114990428D01*
X134040523Y-115085666D01*
X133945285Y-115133285D01*
X133754809Y-115180904D01*
X133611952Y-115180904D01*
X133421476Y-115133285D01*
X133326238Y-115085666D01*
X133231000Y-114990428D01*
X133183380Y-114847571D01*
X133183380Y-114752333D01*
X133231000Y-114609476D01*
X133278619Y-114561857D01*
X134183380Y-113609476D02*
X134183380Y-114180904D01*
X134183380Y-113895190D02*
X133183380Y-113895190D01*
X133326238Y-113990428D01*
X133421476Y-114085666D01*
X133469095Y-114180904D01*
X133183380Y-112990428D02*
X133183380Y-112895190D01*
X133231000Y-112799952D01*
X133278619Y-112752333D01*
X133373857Y-112704714D01*
X133564333Y-112657095D01*
X133802428Y-112657095D01*
X133992904Y-112704714D01*
X134088142Y-112752333D01*
X134135761Y-112799952D01*
X134183380Y-112895190D01*
X134183380Y-112990428D01*
X134135761Y-113085666D01*
X134088142Y-113133285D01*
X133992904Y-113180904D01*
X133802428Y-113228523D01*
X133564333Y-113228523D01*
X133373857Y-113180904D01*
X133278619Y-113133285D01*
X133231000Y-113085666D01*
X133183380Y-112990428D01*
X118602166Y-91527380D02*
X118602166Y-92241666D01*
X118554547Y-92384523D01*
X118459309Y-92479761D01*
X118316452Y-92527380D01*
X118221214Y-92527380D01*
X119030738Y-91622619D02*
X119078357Y-91575000D01*
X119173595Y-91527380D01*
X119411690Y-91527380D01*
X119506928Y-91575000D01*
X119554547Y-91622619D01*
X119602166Y-91717857D01*
X119602166Y-91813095D01*
X119554547Y-91955952D01*
X118983119Y-92527380D01*
X119602166Y-92527380D01*
X136509166Y-88288880D02*
X136509166Y-89003166D01*
X136461547Y-89146023D01*
X136366309Y-89241261D01*
X136223452Y-89288880D01*
X136128214Y-89288880D01*
X137413928Y-88622214D02*
X137413928Y-89288880D01*
X137175833Y-88241261D02*
X136937738Y-88955547D01*
X137556785Y-88955547D01*
X136953666Y-115085880D02*
X136953666Y-115800166D01*
X136906047Y-115943023D01*
X136810809Y-116038261D01*
X136667952Y-116085880D01*
X136572714Y-116085880D01*
X137953666Y-116085880D02*
X137382238Y-116085880D01*
X137667952Y-116085880D02*
X137667952Y-115085880D01*
X137572714Y-115228738D01*
X137477476Y-115323976D01*
X137382238Y-115371595D01*
X119046666Y-81612380D02*
X119046666Y-82326666D01*
X118999047Y-82469523D01*
X118903809Y-82564761D01*
X118760952Y-82612380D01*
X118665714Y-82612380D01*
X119999047Y-81612380D02*
X119522857Y-81612380D01*
X119475238Y-82088571D01*
X119522857Y-82040952D01*
X119618095Y-81993333D01*
X119856190Y-81993333D01*
X119951428Y-82040952D01*
X119999047Y-82088571D01*
X120046666Y-82183809D01*
X120046666Y-82421904D01*
X119999047Y-82517142D01*
X119951428Y-82564761D01*
X119856190Y-82612380D01*
X119618095Y-82612380D01*
X119522857Y-82564761D01*
X119475238Y-82517142D01*
X119046666Y-112092380D02*
X119046666Y-112806666D01*
X118999047Y-112949523D01*
X118903809Y-113044761D01*
X118760952Y-113092380D01*
X118665714Y-113092380D01*
X119951428Y-112092380D02*
X119760952Y-112092380D01*
X119665714Y-112140000D01*
X119618095Y-112187619D01*
X119522857Y-112330476D01*
X119475238Y-112520952D01*
X119475238Y-112901904D01*
X119522857Y-112997142D01*
X119570476Y-113044761D01*
X119665714Y-113092380D01*
X119856190Y-113092380D01*
X119951428Y-113044761D01*
X119999047Y-112997142D01*
X120046666Y-112901904D01*
X120046666Y-112663809D01*
X119999047Y-112568571D01*
X119951428Y-112520952D01*
X119856190Y-112473333D01*
X119665714Y-112473333D01*
X119570476Y-112520952D01*
X119522857Y-112568571D01*
X119475238Y-112663809D01*
X152066666Y-96852380D02*
X152066666Y-97566666D01*
X152019047Y-97709523D01*
X151923809Y-97804761D01*
X151780952Y-97852380D01*
X151685714Y-97852380D01*
X152447619Y-96852380D02*
X153114285Y-96852380D01*
X152685714Y-97852380D01*
M02*
