G04 #@! TF.GenerationSoftware,KiCad,Pcbnew,(2017-08-08 revision 53204e097)-makepkg*
G04 #@! TF.CreationDate,2017-10-18T16:30:53+02:00*
G04 #@! TF.ProjectId,LM510401A,4C4D353130343031412E6B696361645F,rev?*
G04 #@! TF.SameCoordinates,Original*
G04 #@! TF.FileFunction,Copper,L1,Top,Signal*
G04 #@! TF.FilePolarity,Positive*
%FSLAX46Y46*%
G04 Gerber Fmt 4.6, Leading zero omitted, Abs format (unit mm)*
G04 Created by KiCad (PCBNEW (2017-08-08 revision 53204e097)-makepkg) date 10/18/17 16:30:53*
%MOMM*%
%LPD*%
G01*
G04 APERTURE LIST*
%ADD10R,0.600000X1.550000*%
%ADD11R,0.800000X0.750000*%
%ADD12R,2.032000X2.032000*%
%ADD13O,2.032000X2.032000*%
%ADD14R,2.900680X5.400040*%
%ADD15R,0.500000X0.900000*%
%ADD16R,0.508000X1.143000*%
%ADD17R,1.250000X1.000000*%
%ADD18R,2.500000X1.000000*%
%ADD19R,2.032000X1.727200*%
%ADD20O,2.032000X1.727200*%
%ADD21C,4.000500*%
%ADD22C,6.400000*%
%ADD23C,0.500000*%
%ADD24C,0.300000*%
%ADD25C,1.500000*%
%ADD26C,0.400000*%
%ADD27C,2.000000*%
%ADD28C,0.200000*%
%ADD29C,0.254000*%
G04 APERTURE END LIST*
D10*
X133908800Y-100728800D03*
X132638800Y-100728800D03*
X131368800Y-100728800D03*
X130098800Y-100728800D03*
X130098800Y-106128800D03*
X131368800Y-106128800D03*
X132638800Y-106128800D03*
X133908800Y-106128800D03*
D11*
X123432000Y-102997000D03*
X121932000Y-102997000D03*
D12*
X137287000Y-100965000D03*
D13*
X139827000Y-100965000D03*
D11*
X126453200Y-106680000D03*
X127953200Y-106680000D03*
X125387800Y-87884000D03*
X123887800Y-87884000D03*
D14*
X136857740Y-102641400D03*
X146860260Y-102641400D03*
D15*
X127191200Y-91795600D03*
X125691200Y-91795600D03*
X127927800Y-104927400D03*
X126427800Y-104927400D03*
X125387800Y-89941400D03*
X123887800Y-89941400D03*
D16*
X123901200Y-93624400D03*
X125171200Y-93624400D03*
X126441200Y-93624400D03*
X127711200Y-93624400D03*
X127711200Y-99974400D03*
X126441200Y-99974400D03*
X125171200Y-99974400D03*
X123901200Y-99974400D03*
D17*
X121894600Y-99983800D03*
X121894600Y-97983800D03*
D11*
X125691200Y-102997000D03*
X127191200Y-102997000D03*
D18*
X139954000Y-95124400D03*
X139954000Y-92124400D03*
X143357600Y-92124400D03*
X143357600Y-95124400D03*
X146812000Y-95124400D03*
X146812000Y-92124400D03*
X136525000Y-95124400D03*
X136525000Y-92124400D03*
D10*
X133908800Y-98026200D03*
X132638800Y-98026200D03*
X131368800Y-98026200D03*
X130098800Y-98026200D03*
X130098800Y-92626200D03*
X131368800Y-92626200D03*
X132638800Y-92626200D03*
X133908800Y-92626200D03*
D18*
X123063000Y-108609000D03*
X123063000Y-111609000D03*
X126619000Y-108609000D03*
X126619000Y-111609000D03*
X130136900Y-108570900D03*
X130136900Y-111570900D03*
X133692900Y-111570900D03*
X133692900Y-108570900D03*
D19*
X118999000Y-94742000D03*
D20*
X118999000Y-97282000D03*
X118999000Y-99822000D03*
X118999000Y-102362000D03*
X118999000Y-104902000D03*
X118999000Y-107442000D03*
D21*
X149860000Y-87630000D03*
X139700000Y-87630000D03*
X149923500Y-113474500D03*
X139763500Y-113474500D03*
D22*
X119380000Y-86360000D03*
X119380000Y-116840000D03*
X152400000Y-101600000D03*
D23*
X133985000Y-104140000D03*
X133985000Y-102870000D03*
X132715000Y-104140000D03*
X132715000Y-102870000D03*
X131445000Y-104140000D03*
X130175000Y-102870000D03*
X131445000Y-102870000D03*
X130175000Y-95885000D03*
X132715000Y-95885000D03*
X131445000Y-95885000D03*
X133985000Y-94615000D03*
X133985000Y-95885000D03*
X130175000Y-104140000D03*
X132715000Y-94615000D03*
X131445000Y-94615000D03*
X130175000Y-94615000D03*
X125158500Y-94678502D03*
X121898815Y-96900499D03*
D24*
X132715000Y-104140000D02*
X133985000Y-104140000D01*
X132715000Y-102870000D02*
X133985000Y-102870000D01*
X130175000Y-104140000D02*
X131445000Y-104140000D01*
X131445000Y-95885000D02*
X132715000Y-95885000D01*
X133985000Y-94615000D02*
X133985000Y-95885000D01*
X130175000Y-102870000D02*
X131445000Y-102870000D01*
X131445000Y-94615000D02*
X132715000Y-94615000D01*
X130175000Y-94295000D02*
X130175000Y-94615000D01*
X131368800Y-92626200D02*
X131368800Y-93101200D01*
X131368800Y-93101200D02*
X130175000Y-94295000D01*
X125171200Y-94665802D02*
X125158500Y-94678502D01*
X125171200Y-93624400D02*
X125171200Y-94665802D01*
X121894600Y-97983800D02*
X121894600Y-96904714D01*
X121894600Y-96904714D02*
X121898815Y-96900499D01*
X125171200Y-93624400D02*
X125171200Y-92315600D01*
X125171200Y-92315600D02*
X125691200Y-91795600D01*
D25*
X118999000Y-102362000D02*
X121515000Y-102362000D01*
X121515000Y-102362000D02*
X121894600Y-102362000D01*
D26*
X121894600Y-99983800D02*
X121894600Y-102362000D01*
X121894600Y-102362000D02*
X121894600Y-102959600D01*
X121894600Y-102959600D02*
X121932000Y-102997000D01*
D25*
X118999000Y-104902000D02*
X118999000Y-102362000D01*
D26*
X121732800Y-99822000D02*
X121894600Y-99983800D01*
X121894600Y-99983800D02*
X123891800Y-99983800D01*
X123891800Y-99983800D02*
X123901200Y-99974400D01*
X121834400Y-99923600D02*
X121894600Y-99983800D01*
D24*
X121904000Y-99974400D02*
X121894600Y-99983800D01*
D26*
X123432000Y-102997000D02*
X125691200Y-102997000D01*
D24*
X125691200Y-101840900D02*
X125171200Y-101320900D01*
X125171200Y-101320900D02*
X125171200Y-99974400D01*
X125691200Y-102997000D02*
X125691200Y-101840900D01*
D27*
X146812000Y-95124400D02*
X148398100Y-95124400D01*
X149923500Y-92424000D02*
X149923500Y-89408000D01*
X148398100Y-95124400D02*
X149923500Y-93599000D01*
X149923500Y-93599000D02*
X149923500Y-92424000D01*
X146860260Y-102641400D02*
X146860260Y-95172660D01*
X146860260Y-95172660D02*
X146812000Y-95124400D01*
D25*
X146860260Y-102641400D02*
X146177000Y-101958140D01*
X143510000Y-95124400D02*
X146050000Y-95124400D01*
X146050000Y-95124400D02*
X146913600Y-95124400D01*
X140081000Y-95124400D02*
X143510000Y-95124400D01*
X136652000Y-95124400D02*
X140081000Y-95124400D01*
D24*
X130098800Y-101803800D02*
X130098800Y-100728800D01*
X127927800Y-103974800D02*
X130098800Y-101803800D01*
X127927800Y-104927400D02*
X127927800Y-103974800D01*
X130098800Y-101295200D02*
X130098800Y-100728800D01*
X130098800Y-92626200D02*
X130098800Y-91948000D01*
X130098800Y-91948000D02*
X129717800Y-91567000D01*
X129717800Y-91567000D02*
X128270000Y-91567000D01*
X128270000Y-91567000D02*
X126644400Y-89941400D01*
X126644400Y-89941400D02*
X125937800Y-89941400D01*
X125937800Y-89941400D02*
X125387800Y-89941400D01*
X118999000Y-97282000D02*
X119151400Y-97282000D01*
X119151400Y-97282000D02*
X121691400Y-94742000D01*
X124206996Y-94742000D02*
X124778496Y-95313500D01*
X121691400Y-94742000D02*
X124206996Y-94742000D01*
X124778496Y-95313500D02*
X125666500Y-95313500D01*
X125666500Y-95313500D02*
X126441200Y-94538800D01*
X126441200Y-94538800D02*
X126441200Y-94495900D01*
X126441200Y-94495900D02*
X126441200Y-93624400D01*
D27*
X123063000Y-108609000D02*
X120166000Y-108609000D01*
X120166000Y-108609000D02*
X118999000Y-107442000D01*
X136423251Y-109829749D02*
X146278749Y-109829749D01*
X146278749Y-109829749D02*
X149923500Y-113474500D01*
X136398000Y-109855000D02*
X135128000Y-108585000D01*
X136423251Y-109829749D02*
X136398000Y-109855000D01*
X135128000Y-108585000D02*
X133707000Y-108585000D01*
X133707000Y-108585000D02*
X133692900Y-108570900D01*
D26*
X119316500Y-107759500D02*
X118999000Y-107442000D01*
D25*
X130276600Y-108570900D02*
X133832600Y-108570900D01*
X133832600Y-108570900D02*
X133858000Y-108545500D01*
X126707900Y-108570900D02*
X130276600Y-108570900D01*
X123151900Y-108570900D02*
X126707900Y-108570900D01*
D24*
X127711200Y-93624400D02*
X127711200Y-92315600D01*
X127711200Y-92315600D02*
X127191200Y-91795600D01*
D28*
X137287000Y-100965000D02*
X134145000Y-100965000D01*
X134145000Y-100965000D02*
X133908800Y-100728800D01*
D24*
X133908800Y-98442780D02*
X133908800Y-98026200D01*
X127711200Y-99974400D02*
X128828800Y-99974400D01*
X130098800Y-98704400D02*
X130098800Y-98026200D01*
X128828800Y-99974400D02*
X130098800Y-98704400D01*
X127711200Y-101401098D02*
X127711200Y-99974400D01*
X127191200Y-101921098D02*
X127711200Y-101401098D01*
X127191200Y-102997000D02*
X127191200Y-101921098D01*
X126427800Y-104927400D02*
X126427800Y-106654600D01*
X126427800Y-106654600D02*
X126453200Y-106680000D01*
X126441200Y-99974400D02*
X126441200Y-104890000D01*
X126441200Y-104890000D02*
X126478600Y-104927400D01*
X127927800Y-104927400D02*
X127927800Y-106654600D01*
X125387800Y-89941400D02*
X125387800Y-87884000D01*
X123887800Y-89941400D02*
X123887800Y-87884000D01*
X123901200Y-93624400D02*
X123901200Y-89954800D01*
X123901200Y-89954800D02*
X123887800Y-89941400D01*
D29*
G36*
X157353000Y-121793000D02*
X114427000Y-121793000D01*
X114427000Y-102362000D01*
X117315655Y-102362000D01*
X117429729Y-102935489D01*
X117614000Y-103211270D01*
X117614000Y-104052730D01*
X117429729Y-104328511D01*
X117315655Y-104902000D01*
X117429729Y-105475489D01*
X117754585Y-105961670D01*
X118041340Y-106153274D01*
X117842880Y-106285880D01*
X117797670Y-106353541D01*
X117754585Y-106382330D01*
X117429729Y-106868511D01*
X117315655Y-107442000D01*
X117429729Y-108015489D01*
X117754585Y-108501670D01*
X117797670Y-108530459D01*
X117842880Y-108598120D01*
X119009878Y-109765117D01*
X119009880Y-109765120D01*
X119247277Y-109923743D01*
X119540312Y-110119543D01*
X120166000Y-110244000D01*
X121176888Y-110244000D01*
X121216987Y-110304013D01*
X121422996Y-110441664D01*
X121666000Y-110490000D01*
X134720761Y-110490000D01*
X135241878Y-111011117D01*
X135241880Y-111011120D01*
X135772312Y-111365543D01*
X136398000Y-111490001D01*
X136524949Y-111464749D01*
X145601509Y-111464749D01*
X147288530Y-113151770D01*
X147287793Y-113996384D01*
X147688141Y-114965299D01*
X148428802Y-115707254D01*
X149397017Y-116109292D01*
X150445384Y-116110207D01*
X151414299Y-115709859D01*
X152156254Y-114969198D01*
X152558292Y-114000983D01*
X152559207Y-112952616D01*
X152158859Y-111983701D01*
X151418198Y-111241746D01*
X150449983Y-110839708D01*
X149600206Y-110838966D01*
X148103886Y-109342647D01*
X148130601Y-109337333D01*
X148171803Y-109309803D01*
X148199333Y-109268601D01*
X148209000Y-109220000D01*
X148209000Y-105988860D01*
X148310600Y-105988860D01*
X148558365Y-105939577D01*
X148768409Y-105799229D01*
X148908757Y-105589185D01*
X148958040Y-105341420D01*
X148958040Y-99941380D01*
X148908757Y-99693615D01*
X148768409Y-99483571D01*
X148558365Y-99343223D01*
X148495260Y-99330671D01*
X148495260Y-96774000D01*
X150939500Y-96774000D01*
X151182504Y-96725664D01*
X151388513Y-96588013D01*
X151526164Y-96382004D01*
X151574500Y-96139000D01*
X151574500Y-93218000D01*
X151558500Y-93137562D01*
X151558500Y-89658020D01*
X152092754Y-89124698D01*
X152494792Y-88156483D01*
X152495707Y-87108116D01*
X152095359Y-86139201D01*
X151354698Y-85397246D01*
X150386483Y-84995208D01*
X149338116Y-84994293D01*
X148369201Y-85394641D01*
X147627246Y-86135302D01*
X147225208Y-87103517D01*
X147224293Y-88151884D01*
X147624641Y-89120799D01*
X148288500Y-89785818D01*
X148288500Y-92583000D01*
X135128000Y-92583000D01*
X134884996Y-92631336D01*
X134678987Y-92768987D01*
X134541336Y-92974996D01*
X134493000Y-93218000D01*
X134493000Y-96637732D01*
X134482004Y-96631836D01*
X134239000Y-96583500D01*
X129794000Y-96583500D01*
X129550996Y-96631836D01*
X129344987Y-96769487D01*
X129207336Y-96975496D01*
X129202260Y-97001015D01*
X129200643Y-97003435D01*
X129151360Y-97251200D01*
X129151360Y-98541682D01*
X128553163Y-99139879D01*
X128423009Y-98945091D01*
X128212965Y-98804743D01*
X127965200Y-98755460D01*
X127457200Y-98755460D01*
X127209435Y-98804743D01*
X127076200Y-98893768D01*
X126942965Y-98804743D01*
X126695200Y-98755460D01*
X126187200Y-98755460D01*
X125939435Y-98804743D01*
X125806200Y-98893768D01*
X125672965Y-98804743D01*
X125425200Y-98755460D01*
X124917200Y-98755460D01*
X124669435Y-98804743D01*
X124536200Y-98893768D01*
X124402965Y-98804743D01*
X124155200Y-98755460D01*
X123647200Y-98755460D01*
X123399435Y-98804743D01*
X123189391Y-98945091D01*
X123056372Y-99144167D01*
X122977409Y-99025991D01*
X122767365Y-98885643D01*
X122519600Y-98836360D01*
X121269600Y-98836360D01*
X121021835Y-98885643D01*
X120811791Y-99025991D01*
X120671443Y-99236035D01*
X120622160Y-99483800D01*
X120622160Y-100483800D01*
X120671443Y-100731565D01*
X120811791Y-100941609D01*
X120864757Y-100977000D01*
X119754851Y-100977000D01*
X119183745Y-100863400D01*
X118814255Y-100863400D01*
X118240766Y-100977474D01*
X117754585Y-101302330D01*
X117429729Y-101788511D01*
X117315655Y-102362000D01*
X114427000Y-102362000D01*
X114427000Y-97282000D01*
X117315655Y-97282000D01*
X117429729Y-97855489D01*
X117754585Y-98341670D01*
X118240766Y-98666526D01*
X118814255Y-98780600D01*
X119183745Y-98780600D01*
X119757234Y-98666526D01*
X120243415Y-98341670D01*
X120568271Y-97855489D01*
X120682345Y-97282000D01*
X120612532Y-96931026D01*
X122016558Y-95527000D01*
X123881838Y-95527000D01*
X124223417Y-95868579D01*
X124478089Y-96038745D01*
X124778496Y-96098500D01*
X125666500Y-96098500D01*
X125966907Y-96038745D01*
X126221579Y-95868579D01*
X126996279Y-95093879D01*
X127166445Y-94839207D01*
X127179416Y-94773999D01*
X127209435Y-94794057D01*
X127457200Y-94843340D01*
X127965200Y-94843340D01*
X128212965Y-94794057D01*
X128423009Y-94653709D01*
X128563357Y-94443665D01*
X128612640Y-94195900D01*
X128612640Y-93052900D01*
X128563357Y-92805135D01*
X128496200Y-92704628D01*
X128496200Y-92352000D01*
X129151360Y-92352000D01*
X129151360Y-93401200D01*
X129200643Y-93648965D01*
X129340991Y-93859009D01*
X129551035Y-93999357D01*
X129798800Y-94048640D01*
X130398800Y-94048640D01*
X130646565Y-93999357D01*
X130856609Y-93859009D01*
X130996957Y-93648965D01*
X131046240Y-93401200D01*
X131046240Y-91851200D01*
X130996957Y-91603435D01*
X130856609Y-91393391D01*
X130646565Y-91253043D01*
X130481085Y-91220127D01*
X130272879Y-91011921D01*
X130018207Y-90841755D01*
X129717800Y-90782000D01*
X128595158Y-90782000D01*
X127199479Y-89386321D01*
X126944807Y-89216155D01*
X126644400Y-89156400D01*
X126177668Y-89156400D01*
X126172800Y-89149115D01*
X126172800Y-88765459D01*
X126245609Y-88716809D01*
X126385957Y-88506765D01*
X126435240Y-88259000D01*
X126435240Y-87509000D01*
X126385957Y-87261235D01*
X126245609Y-87051191D01*
X126035565Y-86910843D01*
X125787800Y-86861560D01*
X124987800Y-86861560D01*
X124740035Y-86910843D01*
X124637800Y-86979155D01*
X124535565Y-86910843D01*
X124287800Y-86861560D01*
X123487800Y-86861560D01*
X123240035Y-86910843D01*
X123029991Y-87051191D01*
X122889643Y-87261235D01*
X122840360Y-87509000D01*
X122840360Y-88259000D01*
X122889643Y-88506765D01*
X123029991Y-88716809D01*
X123102800Y-88765459D01*
X123102800Y-89149115D01*
X123039643Y-89243635D01*
X122990360Y-89491400D01*
X122990360Y-90391400D01*
X123039643Y-90639165D01*
X123116200Y-90753740D01*
X123116200Y-92704628D01*
X123049043Y-92805135D01*
X122999760Y-93052900D01*
X122999760Y-93957000D01*
X121691400Y-93957000D01*
X121390994Y-94016755D01*
X121198975Y-94145057D01*
X121136321Y-94186921D01*
X119480762Y-95842480D01*
X119183745Y-95783400D01*
X118814255Y-95783400D01*
X118240766Y-95897474D01*
X117754585Y-96222330D01*
X117429729Y-96708511D01*
X117315655Y-97282000D01*
X114427000Y-97282000D01*
X114427000Y-81407000D01*
X157353000Y-81407000D01*
X157353000Y-121793000D01*
X157353000Y-121793000D01*
G37*
X157353000Y-121793000D02*
X114427000Y-121793000D01*
X114427000Y-102362000D01*
X117315655Y-102362000D01*
X117429729Y-102935489D01*
X117614000Y-103211270D01*
X117614000Y-104052730D01*
X117429729Y-104328511D01*
X117315655Y-104902000D01*
X117429729Y-105475489D01*
X117754585Y-105961670D01*
X118041340Y-106153274D01*
X117842880Y-106285880D01*
X117797670Y-106353541D01*
X117754585Y-106382330D01*
X117429729Y-106868511D01*
X117315655Y-107442000D01*
X117429729Y-108015489D01*
X117754585Y-108501670D01*
X117797670Y-108530459D01*
X117842880Y-108598120D01*
X119009878Y-109765117D01*
X119009880Y-109765120D01*
X119247277Y-109923743D01*
X119540312Y-110119543D01*
X120166000Y-110244000D01*
X121176888Y-110244000D01*
X121216987Y-110304013D01*
X121422996Y-110441664D01*
X121666000Y-110490000D01*
X134720761Y-110490000D01*
X135241878Y-111011117D01*
X135241880Y-111011120D01*
X135772312Y-111365543D01*
X136398000Y-111490001D01*
X136524949Y-111464749D01*
X145601509Y-111464749D01*
X147288530Y-113151770D01*
X147287793Y-113996384D01*
X147688141Y-114965299D01*
X148428802Y-115707254D01*
X149397017Y-116109292D01*
X150445384Y-116110207D01*
X151414299Y-115709859D01*
X152156254Y-114969198D01*
X152558292Y-114000983D01*
X152559207Y-112952616D01*
X152158859Y-111983701D01*
X151418198Y-111241746D01*
X150449983Y-110839708D01*
X149600206Y-110838966D01*
X148103886Y-109342647D01*
X148130601Y-109337333D01*
X148171803Y-109309803D01*
X148199333Y-109268601D01*
X148209000Y-109220000D01*
X148209000Y-105988860D01*
X148310600Y-105988860D01*
X148558365Y-105939577D01*
X148768409Y-105799229D01*
X148908757Y-105589185D01*
X148958040Y-105341420D01*
X148958040Y-99941380D01*
X148908757Y-99693615D01*
X148768409Y-99483571D01*
X148558365Y-99343223D01*
X148495260Y-99330671D01*
X148495260Y-96774000D01*
X150939500Y-96774000D01*
X151182504Y-96725664D01*
X151388513Y-96588013D01*
X151526164Y-96382004D01*
X151574500Y-96139000D01*
X151574500Y-93218000D01*
X151558500Y-93137562D01*
X151558500Y-89658020D01*
X152092754Y-89124698D01*
X152494792Y-88156483D01*
X152495707Y-87108116D01*
X152095359Y-86139201D01*
X151354698Y-85397246D01*
X150386483Y-84995208D01*
X149338116Y-84994293D01*
X148369201Y-85394641D01*
X147627246Y-86135302D01*
X147225208Y-87103517D01*
X147224293Y-88151884D01*
X147624641Y-89120799D01*
X148288500Y-89785818D01*
X148288500Y-92583000D01*
X135128000Y-92583000D01*
X134884996Y-92631336D01*
X134678987Y-92768987D01*
X134541336Y-92974996D01*
X134493000Y-93218000D01*
X134493000Y-96637732D01*
X134482004Y-96631836D01*
X134239000Y-96583500D01*
X129794000Y-96583500D01*
X129550996Y-96631836D01*
X129344987Y-96769487D01*
X129207336Y-96975496D01*
X129202260Y-97001015D01*
X129200643Y-97003435D01*
X129151360Y-97251200D01*
X129151360Y-98541682D01*
X128553163Y-99139879D01*
X128423009Y-98945091D01*
X128212965Y-98804743D01*
X127965200Y-98755460D01*
X127457200Y-98755460D01*
X127209435Y-98804743D01*
X127076200Y-98893768D01*
X126942965Y-98804743D01*
X126695200Y-98755460D01*
X126187200Y-98755460D01*
X125939435Y-98804743D01*
X125806200Y-98893768D01*
X125672965Y-98804743D01*
X125425200Y-98755460D01*
X124917200Y-98755460D01*
X124669435Y-98804743D01*
X124536200Y-98893768D01*
X124402965Y-98804743D01*
X124155200Y-98755460D01*
X123647200Y-98755460D01*
X123399435Y-98804743D01*
X123189391Y-98945091D01*
X123056372Y-99144167D01*
X122977409Y-99025991D01*
X122767365Y-98885643D01*
X122519600Y-98836360D01*
X121269600Y-98836360D01*
X121021835Y-98885643D01*
X120811791Y-99025991D01*
X120671443Y-99236035D01*
X120622160Y-99483800D01*
X120622160Y-100483800D01*
X120671443Y-100731565D01*
X120811791Y-100941609D01*
X120864757Y-100977000D01*
X119754851Y-100977000D01*
X119183745Y-100863400D01*
X118814255Y-100863400D01*
X118240766Y-100977474D01*
X117754585Y-101302330D01*
X117429729Y-101788511D01*
X117315655Y-102362000D01*
X114427000Y-102362000D01*
X114427000Y-97282000D01*
X117315655Y-97282000D01*
X117429729Y-97855489D01*
X117754585Y-98341670D01*
X118240766Y-98666526D01*
X118814255Y-98780600D01*
X119183745Y-98780600D01*
X119757234Y-98666526D01*
X120243415Y-98341670D01*
X120568271Y-97855489D01*
X120682345Y-97282000D01*
X120612532Y-96931026D01*
X122016558Y-95527000D01*
X123881838Y-95527000D01*
X124223417Y-95868579D01*
X124478089Y-96038745D01*
X124778496Y-96098500D01*
X125666500Y-96098500D01*
X125966907Y-96038745D01*
X126221579Y-95868579D01*
X126996279Y-95093879D01*
X127166445Y-94839207D01*
X127179416Y-94773999D01*
X127209435Y-94794057D01*
X127457200Y-94843340D01*
X127965200Y-94843340D01*
X128212965Y-94794057D01*
X128423009Y-94653709D01*
X128563357Y-94443665D01*
X128612640Y-94195900D01*
X128612640Y-93052900D01*
X128563357Y-92805135D01*
X128496200Y-92704628D01*
X128496200Y-92352000D01*
X129151360Y-92352000D01*
X129151360Y-93401200D01*
X129200643Y-93648965D01*
X129340991Y-93859009D01*
X129551035Y-93999357D01*
X129798800Y-94048640D01*
X130398800Y-94048640D01*
X130646565Y-93999357D01*
X130856609Y-93859009D01*
X130996957Y-93648965D01*
X131046240Y-93401200D01*
X131046240Y-91851200D01*
X130996957Y-91603435D01*
X130856609Y-91393391D01*
X130646565Y-91253043D01*
X130481085Y-91220127D01*
X130272879Y-91011921D01*
X130018207Y-90841755D01*
X129717800Y-90782000D01*
X128595158Y-90782000D01*
X127199479Y-89386321D01*
X126944807Y-89216155D01*
X126644400Y-89156400D01*
X126177668Y-89156400D01*
X126172800Y-89149115D01*
X126172800Y-88765459D01*
X126245609Y-88716809D01*
X126385957Y-88506765D01*
X126435240Y-88259000D01*
X126435240Y-87509000D01*
X126385957Y-87261235D01*
X126245609Y-87051191D01*
X126035565Y-86910843D01*
X125787800Y-86861560D01*
X124987800Y-86861560D01*
X124740035Y-86910843D01*
X124637800Y-86979155D01*
X124535565Y-86910843D01*
X124287800Y-86861560D01*
X123487800Y-86861560D01*
X123240035Y-86910843D01*
X123029991Y-87051191D01*
X122889643Y-87261235D01*
X122840360Y-87509000D01*
X122840360Y-88259000D01*
X122889643Y-88506765D01*
X123029991Y-88716809D01*
X123102800Y-88765459D01*
X123102800Y-89149115D01*
X123039643Y-89243635D01*
X122990360Y-89491400D01*
X122990360Y-90391400D01*
X123039643Y-90639165D01*
X123116200Y-90753740D01*
X123116200Y-92704628D01*
X123049043Y-92805135D01*
X122999760Y-93052900D01*
X122999760Y-93957000D01*
X121691400Y-93957000D01*
X121390994Y-94016755D01*
X121198975Y-94145057D01*
X121136321Y-94186921D01*
X119480762Y-95842480D01*
X119183745Y-95783400D01*
X118814255Y-95783400D01*
X118240766Y-95897474D01*
X117754585Y-96222330D01*
X117429729Y-96708511D01*
X117315655Y-97282000D01*
X114427000Y-97282000D01*
X114427000Y-81407000D01*
X157353000Y-81407000D01*
X157353000Y-121793000D01*
G36*
X134759960Y-104711500D02*
X134234641Y-104711500D01*
X134208800Y-104706360D01*
X133608800Y-104706360D01*
X133582959Y-104711500D01*
X132964641Y-104711500D01*
X132938800Y-104706360D01*
X132338800Y-104706360D01*
X132312959Y-104711500D01*
X131694641Y-104711500D01*
X131668800Y-104706360D01*
X131068800Y-104706360D01*
X131042959Y-104711500D01*
X130424641Y-104711500D01*
X130398800Y-104706360D01*
X129798800Y-104706360D01*
X129772959Y-104711500D01*
X129032000Y-104711500D01*
X128825240Y-104752627D01*
X128825240Y-104477400D01*
X128777146Y-104235612D01*
X130653879Y-102358879D01*
X130779081Y-102171500D01*
X134759960Y-102171500D01*
X134759960Y-104711500D01*
X134759960Y-104711500D01*
G37*
X134759960Y-104711500D02*
X134234641Y-104711500D01*
X134208800Y-104706360D01*
X133608800Y-104706360D01*
X133582959Y-104711500D01*
X132964641Y-104711500D01*
X132938800Y-104706360D01*
X132338800Y-104706360D01*
X132312959Y-104711500D01*
X131694641Y-104711500D01*
X131668800Y-104706360D01*
X131068800Y-104706360D01*
X131042959Y-104711500D01*
X130424641Y-104711500D01*
X130398800Y-104706360D01*
X129798800Y-104706360D01*
X129772959Y-104711500D01*
X129032000Y-104711500D01*
X128825240Y-104752627D01*
X128825240Y-104477400D01*
X128777146Y-104235612D01*
X130653879Y-102358879D01*
X130779081Y-102171500D01*
X134759960Y-102171500D01*
X134759960Y-104711500D01*
G36*
X126482286Y-90889444D02*
X126343043Y-91097835D01*
X126293760Y-91345600D01*
X126293760Y-92245600D01*
X126325558Y-92405460D01*
X126187200Y-92405460D01*
X125939435Y-92454743D01*
X125729391Y-92595091D01*
X125589043Y-92805135D01*
X125539760Y-93052900D01*
X125539760Y-94195900D01*
X125562022Y-94307820D01*
X125341342Y-94528500D01*
X125103654Y-94528500D01*
X124797400Y-94222246D01*
X124802640Y-94195900D01*
X124802640Y-93052900D01*
X124753357Y-92805135D01*
X124686200Y-92704628D01*
X124686200Y-90853358D01*
X124890035Y-90989557D01*
X125137800Y-91038840D01*
X125637800Y-91038840D01*
X125885565Y-90989557D01*
X126095609Y-90849209D01*
X126177668Y-90726400D01*
X126319242Y-90726400D01*
X126482286Y-90889444D01*
X126482286Y-90889444D01*
G37*
X126482286Y-90889444D02*
X126343043Y-91097835D01*
X126293760Y-91345600D01*
X126293760Y-92245600D01*
X126325558Y-92405460D01*
X126187200Y-92405460D01*
X125939435Y-92454743D01*
X125729391Y-92595091D01*
X125589043Y-92805135D01*
X125539760Y-93052900D01*
X125539760Y-94195900D01*
X125562022Y-94307820D01*
X125341342Y-94528500D01*
X125103654Y-94528500D01*
X124797400Y-94222246D01*
X124802640Y-94195900D01*
X124802640Y-93052900D01*
X124753357Y-92805135D01*
X124686200Y-92704628D01*
X124686200Y-90853358D01*
X124890035Y-90989557D01*
X125137800Y-91038840D01*
X125637800Y-91038840D01*
X125885565Y-90989557D01*
X126095609Y-90849209D01*
X126177668Y-90726400D01*
X126319242Y-90726400D01*
X126482286Y-90889444D01*
G36*
X138176000Y-100016675D02*
X138176000Y-100139500D01*
X135382000Y-100139500D01*
X135333399Y-100149167D01*
X135292197Y-100176697D01*
X135264667Y-100217899D01*
X135255000Y-100266500D01*
X135255000Y-101409500D01*
X131046240Y-101409500D01*
X131046240Y-99953800D01*
X130996957Y-99706035D01*
X130856609Y-99495991D01*
X130646565Y-99355643D01*
X130398800Y-99306360D01*
X129921000Y-99306360D01*
X129921000Y-97345500D01*
X134200298Y-97345500D01*
X138176000Y-100016675D01*
X138176000Y-100016675D01*
G37*
X138176000Y-100016675D02*
X138176000Y-100139500D01*
X135382000Y-100139500D01*
X135333399Y-100149167D01*
X135292197Y-100176697D01*
X135264667Y-100217899D01*
X135255000Y-100266500D01*
X135255000Y-101409500D01*
X131046240Y-101409500D01*
X131046240Y-99953800D01*
X130996957Y-99706035D01*
X130856609Y-99495991D01*
X130646565Y-99355643D01*
X130398800Y-99306360D01*
X129921000Y-99306360D01*
X129921000Y-97345500D01*
X134200298Y-97345500D01*
X138176000Y-100016675D01*
G36*
X134809243Y-105589185D02*
X134949591Y-105799229D01*
X135001000Y-105833580D01*
X135001000Y-109210476D01*
X129159000Y-109228732D01*
X129159000Y-105473500D01*
X134786232Y-105473500D01*
X134809243Y-105589185D01*
X134809243Y-105589185D01*
G37*
X134809243Y-105589185D02*
X134949591Y-105799229D01*
X135001000Y-105833580D01*
X135001000Y-109210476D01*
X129159000Y-109228732D01*
X129159000Y-105473500D01*
X134786232Y-105473500D01*
X134809243Y-105589185D01*
G36*
X150812500Y-96012000D02*
X135509000Y-96012000D01*
X135499333Y-95963399D01*
X135471803Y-95922197D01*
X135430601Y-95894667D01*
X135382000Y-95885000D01*
X135255000Y-95885000D01*
X135255000Y-93345000D01*
X150812500Y-93345000D01*
X150812500Y-96012000D01*
X150812500Y-96012000D01*
G37*
X150812500Y-96012000D02*
X135509000Y-96012000D01*
X135499333Y-95963399D01*
X135471803Y-95922197D01*
X135430601Y-95894667D01*
X135382000Y-95885000D01*
X135255000Y-95885000D01*
X135255000Y-93345000D01*
X150812500Y-93345000D01*
X150812500Y-96012000D01*
G36*
X126053200Y-107702440D02*
X126853200Y-107702440D01*
X126885576Y-107696000D01*
X127520824Y-107696000D01*
X127553200Y-107702440D01*
X128353200Y-107702440D01*
X128385576Y-107696000D01*
X135001000Y-107696000D01*
X135001000Y-109728000D01*
X121793000Y-109728000D01*
X121793000Y-107696000D01*
X126020824Y-107696000D01*
X126053200Y-107702440D01*
X126053200Y-107702440D01*
G37*
X126053200Y-107702440D02*
X126853200Y-107702440D01*
X126885576Y-107696000D01*
X127520824Y-107696000D01*
X127553200Y-107702440D01*
X128353200Y-107702440D01*
X128385576Y-107696000D01*
X135001000Y-107696000D01*
X135001000Y-109728000D01*
X121793000Y-109728000D01*
X121793000Y-107696000D01*
X126020824Y-107696000D01*
X126053200Y-107702440D01*
G36*
X122491500Y-102287946D02*
X122433843Y-102374235D01*
X122384560Y-102622000D01*
X122384560Y-103314500D01*
X121348500Y-103314500D01*
X121348500Y-99568000D01*
X122491500Y-99568000D01*
X122491500Y-102287946D01*
X122491500Y-102287946D01*
G37*
X122491500Y-102287946D02*
X122433843Y-102374235D01*
X122384560Y-102622000D01*
X122384560Y-103314500D01*
X121348500Y-103314500D01*
X121348500Y-99568000D01*
X122491500Y-99568000D01*
X122491500Y-102287946D01*
M02*
