M48
;DRILL file {KiCad (2017-08-08 revision 53204e097)-makepkg} date 10/18/17 16:31:02
;FORMAT={3:3/ absolute / metric / suppress leading zeros}
FMAT,2
METRIC,TZ
T1C0.200
T2C1.016
T3C1.999
T4C3.200
%
G90
G05
M71
T1
X121899Y-96900
X125158Y-94679
X130175Y-94615
X130175Y-95885
X130175Y-102870
X130175Y-104140
X131445Y-94615
X131445Y-95885
X131445Y-102870
X131445Y-104140
X132715Y-94615
X132715Y-95885
X132715Y-102870
X132715Y-104140
X133985Y-94615
X133985Y-95885
X133985Y-102870
X133985Y-104140
T2
X137287Y-100965
X139827Y-100965
X118999Y-94742
X118999Y-97282
X118999Y-99822
X118999Y-102362
X118999Y-104902
X118999Y-107442
T3
X139700Y-87630
X149860Y-87630
X139764Y-113474
X149924Y-113474
T4
X119380Y-86360
X152400Y-101600
X119380Y-116840
T0
M30
